{
.appVersion = "3087";
.formatVersion = 3;
DisplayStrings = (
molly,
"/z___ z"
);
axes = (
{
name = Weight;
tag = wght;
},
{
name = Contrast;
tag = cont;
},
{
name = Monospaced;
tag = mono;
}
);
date = "2016-11-08 10:02:54 +0000";
familyName = Mell;
featurePrefixes = (
{
automatic = 1;
code = "languagesystem DFLT dflt;
languagesystem cyrl dflt;
languagesystem latn dflt;
languagesystem latn CAT;
languagesystem latn ROM;
languagesystem latn MOL;
languagesystem latn TRK;
";
name = Languagesystems;
}
);
features = (
{
automatic = 1;
code = "feature locl;
feature frac;
";
tag = aalt;
},
{
automatic = 1;
code = "script latn;
language CAT;
sub  l' periodcentered' l by ldot;
sub  L' periodcentered' L by Ldot;
language ROM;
sub Scedilla by Scommaaccent;
sub scedilla by scommaaccent;
sub Tcedilla by Tcommaaccent;
sub tcedilla by tcommaaccent;
language MOL;
sub Scedilla by Scommaaccent;
sub scedilla by scommaaccent;
sub Tcedilla by Tcommaaccent;
sub tcedilla by tcommaaccent;
language KAZ;
sub i by idotaccent;
language TAT;
sub i by idotaccent;
language TRK;
sub i by idotaccent;
language CRT;
sub i by idotaccent;
language AZE;
sub i by idotaccent;
";
tag = locl;
},
{
automatic = 1;
code = "lookup FRAC {
	sub slash by fraction;
} FRAC;
lookup UP {
	sub [zero one two three four five six seven eight nine] by [zero.numr one.numr two.numr three.numr four.numr five.numr six.numr seven.numr eight.numr nine.numr];
} UP;
lookup DOWN {
	sub fraction [zero.numr one.numr two.numr three.numr four.numr five.numr six.numr seven.numr eight.numr nine.numr]' by [zero.dnom one.dnom two.dnom three.dnom four.dnom five.dnom six.dnom seven.dnom eight.dnom nine.dnom];
	sub [zero.dnom one.dnom two.dnom three.dnom four.dnom five.dnom six.dnom seven.dnom eight.dnom nine.dnom] [zero.numr one.numr two.numr three.numr four.numr five.numr six.numr seven.numr eight.numr nine.numr]' by [zero.dnom one.dnom two.dnom three.dnom four.dnom five.dnom six.dnom seven.dnom eight.dnom nine.dnom];
} DOWN;
";

glyphs = (
{
glyphname = B;
lastChange = "2024-03-05 14:33:21 +0000";
layers = (
{
background = {
shapes = (
{
closed = 1;
nodes = (
(300,356,o),
(243,353,o),
(323,362,c),
(377,379,o),
(413,421,o),
(413,508,cs),
(413,638,o),
(359,703,o),
(221,701,cs),
(151,700,l),
(151,700,o),
(148,356,o),
(148,356,cs)
);
},
{
closed = 1;
nodes = (
(202,619,ls),
(290,619,o),
(326,586,o),
(326,513,cs),
(326,439,o),
(311,396,o),
(226,396,cs),
(131,396,l),
(131,619,l)
);
}
);
};
layerId = "7EBE3D46-E53E-419E-A3EC-596DA2EA1E0D";
name = Regular;
shapes = (
{
alignment = -1;
pos = (40,19);
ref = _I_small;
},
{
alignment = -1;
pos = (40,158);
ref = _I_small;
},
{
alignment = -1;
pos = (40,472);
ref = _I_small;
},
{
alignment = -1;
pos = (78,657);
ref = _curve_B;
scale = (1,-1);
},
{
alignment = -1;
pos = (78,3);
ref = _curve_B;
},
{
alignment = -1;
pos = (40,321);
ref = _I_small;
}
);
width = 560;
},
{
background = {
shapes = (
{
closed = 1;
nodes = (
(302,356,o),
(245,353,o),
(325,362,c),
(379,379,o),
(415,421,o),
(415,508,cs),
(415,638,o),
(361,703,o),
(223,701,cs),
(153,700,l),
(153,700,o),
(150,356,o),
(150,356,cs)
);
},
{
closed = 1;
nodes = (
(204,619,ls),
(292,619,o),
(328,586,o),
(328,513,cs),
(328,439,o),
(313,396,o),
(228,396,cs),
(133,396,l),
(133,619,l)
);
}
);
};
layerId = m002;
name = Regular;
shapes = (
{
alignment = -1;
pos = (-58,19);
ref = _I_small;
},
{
alignment = -1;
pos = (-58,158);
ref = _I_small;
},
{
alignment = -1;
pos = (-58,423);
ref = _I_small;
},
{
alignment = -1;
pos = (50,627);
ref = _curve_B;
scale = (1,-1);
},
{
alignment = -1;
pos = (50,-7);
ref = _curve_B;
},
{
alignment = -1;
pos = (-58,321);
ref = _I_small;
}
);
width = 582;
},
{
background = {
shapes = (
{
closed = 1;
nodes = (
(300,356,o),
(243,353,o),
(323,362,c),
(377,379,o),
(413,421,o),
(413,508,cs),
(413,638,o),
(359,703,o),
(221,701,cs),
(151,700,l),
(151,700,o),
(148,356,o),
(148,356,cs)
);
},
{
closed = 1;
nodes = (
(202,619,ls),
(290,619,o),
(326,586,o),
(326,513,cs),
(326,439,o),
(311,396,o),
(226,396,cs),
(131,396,l),
(131,619,l)
);
}
);
};
layerId = m003;
name = Regular;
shapes = (
{
alignment = -1;
pos = (-19,19);
ref = _I_small;
},
{
alignment = -1;
pos = (-19,158);
ref = _I_small;
},
{
alignment = -1;
pos = (-19,472);
ref = _I_small;
},
{
alignment = -1;
pos = (78,657);
ref = _curve_B;
scale = (1,-1);
},
{
alignment = -1;
pos = (78,3);
ref = _curve_B;
},
{
alignment = -1;
pos = (-19,321);
ref = _I_small;
}
);
width = 560;
},
{
background = {
shapes = (
{
closed = 1;
nodes = (
(302,356,o),
(245,353,o),
(325,362,c),
(379,379,o),
(415,421,o),
(415,508,cs),
(415,638,o),
(361,703,o),
(223,701,cs),
(153,700,l),
(153,700,o),
(150,356,o),
(150,356,cs)
);
},
{
closed = 1;
nodes = (
(204,619,ls),
(292,619,o),
(328,586,o),
(328,513,cs),
(328,439,o),
(313,396,o),
(228,396,cs),
(133,396,l),
(133,619,l)
);
}
);
};
layerId = m004;
name = Regular;
shapes = (
{
alignment = -1;
pos = (-58,19);
ref = _I_small;
},
{
alignment = -1;
pos = (-58,158);
ref = _I_small;
},
{
alignment = -1;
pos = (-58,423);
ref = _I_small;
},
{
alignment = -1;
pos = (50,627);
ref = _curve_B;
scale = (1,-1);
},
{
alignment = -1;
pos = (50,-7);
ref = _curve_B;
},
{
alignment = -1;
pos = (-58,321);
ref = _I_small;
}
);
width = 582;
},
{
background = {
shapes = (
{
closed = 1;
nodes = (
(300,356,o),
(243,353,o),
(323,362,c),
(377,379,o),
(413,421,o),
(413,508,cs),
(413,638,o),
(359,703,o),
(221,701,cs),
(151,700,l),
(151,700,o),
(148,356,o),
(148,356,cs)
);
},
{
closed = 1;
nodes = (
(202,619,ls),
(290,619,o),
(326,586,o),
(326,513,cs),
(326,439,o),
(311,396,o),
(226,396,cs),
(131,396,l),
(131,619,l)
);
}
);
};
layerId = m005;
name = Regular;
shapes = (
{
alignment = -1;
pos = (10,19);
ref = _I_small;
},
{
alignment = -1;
pos = (10,158);
ref = _I_small;
},
{
alignment = -1;
pos = (10,472);
ref = _I_small;
},
{
alignment = -1;
pos = (48,657);
ref = _curve_B;
scale = (1,-1);
},
{
alignment = -1;
pos = (48,3);
ref = _curve_B;
},
{
alignment = -1;
pos = (10,321);
ref = _I_small;
}
);
width = 500;
},
{
background = {
shapes = (
{
closed = 1;
nodes = (
(302,356,o),
(245,353,o),
(325,362,c),
(379,379,o),
(415,421,o),
(415,508,cs),
(415,638,o),
(361,703,o),
(223,701,cs),
(153,700,l),
(153,700,o),
(150,356,o),
(150,356,cs)
);
},
{
closed = 1;
nodes = (
(204,619,ls),
(292,619,o),
(328,586,o),
(328,513,cs),
(328,439,o),
(313,396,o),
(228,396,cs),
(133,396,l),
(133,619,l)
);
}
);
};
layerId = m006;
name = Regular;
shapes = (
{
alignment = -1;
pos = (-59,19);
ref = _I_small;
},
{
alignment = -1;
pos = (-59,158);
ref = _I_small;
},
{
alignment = -1;
pos = (-59,423);
ref = _I_small;
},
{
alignment = -1;
pos = (49,627);
ref = _curve_B;
scale = (1,-1);
},
{
alignment = -1;
pos = (49,-7);
ref = _curve_B;
},
{
alignment = -1;
pos = (-59,321);
ref = _I_small;
}
);
width = 500;
}
);
unicode = 66;
},
{
glyphname = G;
kernLeft = O;
kernRight = O;
lastChange = "2024-03-02 14:34:01 +0000";
layers = (
{
layerId = "7EBE3D46-E53E-419E-A3EC-596DA2EA1E0D";
name = Regular;
shapes = (
{
alignment = -1;
pos = (10,732);
ref = _O;
scale = (1,-1);
},
{
alignment = -1;
pos = (0,672);
ref = "C-";
scale = (1,-1);
},
{
closed = 1;
nodes = (
(189,160,o),
(143,-5,o),
(301,-5,cs),
(444,-5,o),
(491,55,o),
(545,128,c),
(545,395,l),
(361,394,l),
(363,280,l),
(434,280,l),
(434,194,l),
(409,172,o),
(383,160,o),
(301,160,cs)
);
}
);
width = 611;
},
{
layerId = m002;
name = Regular;
shapes = (
{
alignment = -1;
pos = (-8,722);
ref = _O;
scale = (1,-1);
},
{
alignment = -1;
pos = (0,636);
ref = "C-";
scale = (1,-1);
},
{
closed = 1;
nodes = (
(253,23,o),
(206,-15,o),
(294,-15,cs),
(407,-15,o),
(462,26,o),
(538,99,c),
(538,323,l),
(354,322,l),
(355,289,l),
(511,289,l),
(510,109,l),
(434,42,o),
(376,23,o),
(295,23,cs)
);
}
);
width = 599;
},
{
layerId = m003;
name = Regular;
shapes = (
{
alignment = -1;
pos = (10,732);
ref = _O;
scale = (1,-1);
},
{
alignment = -1;
pos = (0,672);
ref = "C-";
scale = (1,-1);
},
{
closed = 1;
nodes = (
(189,160,o),
(143,-5,o),
(301,-5,cs),
(444,-5,o),
(491,55,o),
(545,128,c),
(545,395,l),
(361,394,l),
(363,280,l),
(504,280,l),
(504,194,l),
(479,172,o),
(383,160,o),
(301,160,cs)
);
}
);
width = 611;
},
{
layerId = m004;
name = Regular;
shapes = (
{
alignment = -1;
pos = (-8,722);
ref = _O;
scale = (1,-1);
},
{
alignment = -1;
pos = (0,636);
ref = "C-";
scale = (1,-1);
},
{
closed = 1;
nodes = (
(253,23,o),
(206,-15,o),
(294,-15,cs),
(407,-15,o),
(462,26,o),
(538,99,c),
(538,323,l),
(354,322,l),
(355,289,l),
(511,289,l),
(510,109,l),
(434,42,o),
(376,23,o),
(295,23,cs)
);
}
);
width = 599;
},
{
layerId = m005;
name = Regular;
shapes = (
{
alignment = -1;
pos = (-30,732);
ref = _O;
scale = (1,-1);
},
{
alignment = -1;
pos = (-10,672);
ref = "C-";
scale = (1,-1);
},
{
closed = 1;
nodes = (
(169,160,o),
(123,-5,o),
(281,-5,cs),
(374,-5,o),
(431,35,o),
(485,88,c),
(485,385,l),
(301,384,l),
(303,270,l),
(374,270,l),
(374,184,l),
(349,162,o),
(313,160,o),
(281,160,cs)
);
}
);
width = 500;
},
{
layerId = m006;
name = Regular;
shapes = (
{
alignment = -1;
pos = (-28,722);
ref = _O;
scale = (1,-1);
},
{
alignment = -1;
pos = (-20,636);
ref = "C-";
scale = (1,-1);
},
{
closed = 1;
nodes = (
(233,23,o),
(186,-15,o),
(274,-15,cs),
(357,-15,o),
(432,36,o),
(478,99,c),
(478,323,l),
(294,322,l),
(295,289,l),
(451,289,l),
(450,109,l),
(404,52,o),
(326,23,o),
(275,23,cs)
);
}
);
width = 500;
}
);
unicode = 71;
},
{
glyphname = J;
kernLeft = A;
lastChange = "2024-03-05 14:38:41 +0000";
layers = (
{
layerId = "7EBE3D46-E53E-419E-A3EC-596DA2EA1E0D";
name = Regular;
shapes = (
{
alignment = -1;
pos = (293,359);
ref = _I_small;
},
{
alignment = -1;
pos = (132,209);
ref = _EF_horizontal;
},
{
closed = 1;
nodes = (
(323,344,l),
(323,340,ls),
(323,216,o),
(283,151,o),
(201,151,cs),
(162,151,o),
(119,155,o),
(76,188,c),
(58,137,o),
(49,69,o),
(50,29,c),
(124,-2,o),
(149,-9,o),
(211,-9,cs),
(369,-9,o),
(478,110,o),
(478,345,c)
);
},
{
alignment = -1;
pos = (122,209);
ref = _EF_horizontal;
},
{
alignment = -1;
pos = (293,409);
ref = _I_small;
}
);
width = 548;
},
{
layerId = m002;
name = Regular;
shapes = (
{
alignment = -1;
pos = (313,369);
ref = _I_small;
},
{
alignment = -1;
pos = (112,243);
ref = _EF_horizontal;
},
{
closed = 1;
nodes = (
(441,354,l),
(441,350,ls),
(441,131,o),
(382,29,o),
(230,29,cs),
(191,29,o),
(110,43,o),
(67,76,c),
(59,60,o),
(54,54,o),
(50,37,c),
(124,-3,o),
(169,-6,o),
(231,-6,cs),
(429,-6,o),
(468,128,o),
(468,355,c)
);
},
{
alignment = -1;
pos = (112,243);
ref = _EF_horizontal;
},
{
alignment = -1;
pos = (313,419);
ref = _I_small;
}
);
width = 526;
},
{
layerId = m003;
name = Regular;
shapes = (
{
alignment = -1;
pos = (313,359);
ref = _I_small;
},
{
alignment = -1;
pos = (132,209);
ref = _EF_horizontal;
},
{
closed = 1;
nodes = (
(423,344,l),
(423,340,ls),
(423,147,o),
(283,152,o),
(201,152,cs),
(162,152,o),
(119,165,o),
(76,189,c),
(58,138,o),
(49,70,o),
(50,30,c),
(114,-1,o),
(149,-8,o),
(211,-8,cs),
(369,-8,o),
(478,91,o),
(478,345,c)
);
},
{
alignment = -1;
pos = (122,209);
ref = _EF_horizontal;
},
{
alignment = -1;
pos = (313,409);
ref = _I_small;
}
);
width = 548;
},
{
layerId = m004;
name = Regular;
shapes = (
{
alignment = -1;
pos = (313,369);
ref = _I_small;
},
{
alignment = -1;
pos = (112,243);
ref = _EF_horizontal;
},
{
closed = 1;
nodes = (
(441,354,l),
(441,350,ls),
(441,131,o),
(382,29,o),
(230,29,cs),
(191,29,o),
(110,43,o),
(67,76,c),
(59,60,o),
(54,54,o),
(50,37,c),
(124,-3,o),
(169,-6,o),
(231,-6,cs),
(429,-6,o),
(468,128,o),
(468,355,c)
);
},
{
alignment = -1;
pos = (112,243);
ref = _EF_horizontal;
},
{
alignment = -1;
pos = (313,419);
ref = _I_small;
}
);
width = 526;
},
{
layerId = m005;
name = Regular;
shapes = (
{
alignment = -1;
pos = (293,349);
ref = _I_small;
},
{
alignment = -1;
pos = (62,209);
ref = _EF_horizontal;
},
{
closed = 1;
nodes = (
(323,334,l),
(323,330,ls),
(323,214,o),
(283,149,o),
(201,149,cs),
(162,149,o),
(119,153,o),
(76,186,c),
(58,135,o),
(49,67,o),
(50,27,c),
(124,-4,o),
(149,-11,o),
(211,-11,cs),
(369,-11,o),
(478,108,o),
(478,335,c)
);
},
{
alignment = -1;
pos = (-31,209);
ref = _EF_horizontal;
},
{
alignment = -1;
pos = (293,409);
ref = _I_small;
}
);
width = 500;
},
{
layerId = m006;
name = Regular;
shapes = (
{
alignment = -1;
pos = (313,369);
ref = _I_small;
},
{
alignment = -1;
pos = (112,243);
ref = _EF_horizontal;
},
{
closed = 1;
nodes = (
(441,354,l),
(441,350,ls),
(441,131,o),
(382,29,o),
(230,29,cs),
(191,29,o),
(110,43,o),
(67,76,c),
(59,60,o),
(54,54,o),
(50,37,c),
(124,-3,o),
(169,-6,o),
(231,-6,cs),
(429,-6,o),
(468,128,o),
(468,355,c)
);
},
{
alignment = -1;
pos = (22,243);
ref = _EF_horizontal;
},
{
alignment = -1;
pos = (313,419);
ref = _I_small;
}
);
width = 500;
}
);
unicode = 74;
},
{
glyphname = K;
lastChange = "2024-03-05 14:41:57 +0000";
layers = (
{
layerId = "7EBE3D46-E53E-419E-A3EC-596DA2EA1E0D";
name = Regular;
shapes = (
{
ref = _I;
},
{
closed = 1;
nodes = (
(432,418,o),
(461,548,o),
(548,654,c),
(503,666,o),
(417,664,o),
(366,662,c),
(286,554,o),
(197,454,o),
(166,357,cs),
(148,300,l),
(267,195,o),
(286,79,o),
(355,-8,c),
(390,-7,o),
(504,-6,o),
(538,6,c),
(459,99,o),
(412,268,o),
(264,336,c)
);
}
);
width = 558;
},
{
layerId = m002;
name = Regular;
shapes = (
{
ref = _I;
},
{
closed = 1;
nodes = (
(198,422,o),
(320,536,o),
(437,632,c),
(430,633,o),
(407,634,o),
(396,632,c),
(296,554,o),
(177,433,o),
(115,347,cs),
(97,322,l),
(196,247,o),
(326,112,o),
(415,-5,c),
(423,-6,o),
(442,-5,o),
(448,-4,c),
(329,159,o),
(246,236,o),
(128,334,c)
);
}
);
width = 469;
},
{
layerId = m003;
name = Regular;
shapes = (
{
pos = (-30,0);
ref = _I;
},
{
closed = 1;
nodes = (
(312,449,o),
(420,566,o),
(537,662,c),
(512,672,o),
(457,672,o),
(416,669,c),
(336,601,o),
(169,428,o),
(126,337,cs),
(118,320,l),
(247,243,o),
(296,89,o),
(375,-8,c),
(430,-12,o),
(495,-4,o),
(548,8,c),
(409,141,o),
(372,286,o),
(224,386,c)
);
}
);
width = 558;
},
{
layerId = m004;
name = Regular;
shapes = (
{
ref = _I;
},
{
closed = 1;
nodes = (
(194,434,o),
(320,536,o),
(437,632,c),
(430,633,o),
(407,634,o),
(396,632,c),
(296,554,o),
(178,442,o),
(116,355,cs),
(98,330,l),
(197,255,o),
(326,112,o),
(415,-5,c),
(423,-6,o),
(442,-5,o),
(448,-4,c),
(329,159,o),
(242,248,o),
(124,346,c)
);
}
);
width = 469;
},
{
layerId = m005;
name = Regular;
shapes = (
{
pos = (-6,1);
ref = _I;
},
{
closed = 1;
nodes = (
(382,428,o),
(411,548,o),
(498,654,c),
(453,666,o),
(367,664,o),
(316,662,c),
(236,554,o),
(197,444,o),
(166,347,cs),
(148,290,l),
(267,185,o),
(246,79,o),
(315,-8,c),
(350,-7,o),
(454,-6,o),
(488,6,c),
(409,99,o),
(392,248,o),
(254,336,c)
);
}
);
width = 500;
},
{
layerId = m006;
name = Regular;
shapes = (
{
ref = _I;
},
{
closed = 1;
nodes = (
(194,424,o),
(320,536,o),
(437,632,c),
(430,633,o),
(407,634,o),
(396,632,c),
(296,554,o),
(178,442,o),
(116,355,cs),
(98,330,l),
(197,255,o),
(326,112,o),
(415,-5,c),
(423,-6,o),
(442,-5,o),
(448,-4,c),
(329,159,o),
(242,238,o),
(124,336,c)
);
}
);
width = 469;
}
);
unicode = 75;
},
{
glyphname = M;
lastChange = "2024-03-01 19:59:42 +0000";
layers = (
{
layerId = "7EBE3D46-E53E-419E-A3EC-596DA2EA1E0D";
name = Regular;
shapes = (
{
closed = 1;
nodes = (
(380,113,l),
(399,117,o),
(409,135,o),
(423,160,cs),
(544,376,l),
(569,-4,l),
(589,-3,o),
(695,-2,o),
(722,2,c),
(649,606,ls),
(644,647,o),
(637,673,o),
(611,673,cs),
(586,673,o),
(574,651,o),
(557,622,cs),
(375,311,l),
(193,622,ls),
(176,651,o),
(164,673,o),
(139,673,cs),
(113,673,o),
(106,647,o),
(101,606,cs),
(28,2,l),
(55,-1,o),
(151,-4,o),
(181,-4,c),
(206,376,l),
(327,160,ls),
(341,135,o),
(351,117,o),
(370,113,c),
(370,112,l),
(372,112,o),
(373,112,o),
(375,112.25,cs),
(380,112,l)
);
}
);
width = 750;
},
{
layerId = m002;
name = Regular;
shapes = (
{
closed = 1;
nodes = (
(375,182,l),
(379,185,o),
(383,190,o),
(388,199,cs),
(620,591,l),
(629,1,l),
(638,1,o),
(651,2,o),
(661,4,c),
(648,620,ls),
(648,632,o),
(634,639,o),
(626,639,cs),
(615,639,o),
(610,630,o),
(604,619,cs),
(366,224,l),
(127,619,ls),
(121,630,o),
(116,639,o),
(105,639,cs),
(97,639,o),
(83,632,o),
(83,620,cs),
(70,4,l),
(80,2,o),
(93,1,o),
(102,1,c),
(111,591,l),
(343,199,ls),
(348,190,o),
(352,185,o),
(356,182,c),
(356,178,l),
(360,178,o),
(363,178,o),
(365.5,178.602,c),
(375,178,l)
);
}
);
width = 731;
},
{
layerId = m003;
name = Regular;
shapes = (
{
closed = 1;
nodes = (
(360,113,l),
(409,112,o),
(435,163,o),
(443,190,cs),
(544,536,l),
(569,-4,l),
(609,-8,o),
(695,-6,o),
(722,2,c),
(649,596,ls),
(644,637,o),
(627,673,o),
(581,673,cs),
(536,673,o),
(512,641,o),
(497,592,cs),
(386,232,l),
(243,602,ls),
(228,640,o),
(202,673,o),
(167,673,cs),
(131,673,o),
(107,657,o),
(101,606,cs),
(28,2,l),
(36,0,o),
(70,-6,o),
(81,-4,c),
(137,536,l),
(267,190,ls),
(276,167,o),
(311,114,o),
(350,113,c),
(350,112,l),
(352,112,o),
(353,112,o),
(355,112,cs),
(360,112,l)
);
}
);
width = 750;
},
{
layerId = m004;
name = Regular;
shapes = (
{
closed = 1;
nodes = (
(375,182,l),
(379,185,o),
(383,190,o),
(388,199,cs),
(620,591,l),
(629,1,l),
(638,1,o),
(651,2,o),
(661,4,c),
(648,620,ls),
(648,632,o),
(634,639,o),
(626,639,cs),
(615,639,o),
(610,630,o),
(604,619,cs),
(366,224,l),
(127,619,ls),
(121,630,o),
(116,639,o),
(105,639,cs),
(97,639,o),
(83,632,o),
(83,620,cs),
(70,4,l),
(80,2,o),
(93,1,o),
(102,1,c),
(111,591,l),
(343,199,ls),
(348,190,o),
(352,185,o),
(356,182,c),
(356,178,l),
(360,178,o),
(363,178,o),
(365.5,178.602,c),
(375,178,l)
);
}
);
width = 731;
},
{
layerId = m005;
name = Regular;
shapes = (
{
closed = 1;
nodes = (
(270,93,l),
(289,97,o),
(306,114,o),
(313,140,cs),
(354,296,l),
(339,-4,l),
(359,-3,o),
(465,-2,o),
(492,2,c),
(459,600,ls),
(457,641,o),
(447,673,o),
(411,673,cs),
(376,673,o),
(355,651,o),
(347,622,cs),
(265,311,l),
(163,622,ls),
(153,651,o),
(134,673,o),
(99,673,cs),
(63,673,o),
(54,647,o),
(51,606,cs),
(8,2,l),
(34,-3,o),
(130,-6,o),
(161,-4,c),
(156,286,l),
(217,140,ls),
(227,115,o),
(241,97,o),
(260,93,c),
(260,92,l),
(262,92,o),
(263,92,o),
(265,92,cs),
(270,92,l)
);
}
);
width = 500;
},
{
layerId = m006;
name = Regular;
shapes = (
{
closed = 1;
nodes = (
(264,182,l),
(268,185,o),
(273,190,o),
(277,199,cs),
(449,591,l),
(458,1,l),
(467,1,o),
(480,2,o),
(490,4,c),
(477,620,ls),
(477,632,o),
(463,639,o),
(455,639,cs),
(444,639,o),
(438,630,o),
(433,619,cs),
(255,224,l),
(76,619,ls),
(71,630,o),
(65,639,o),
(54,639,cs),
(46,639,o),
(32,632,o),
(32,620,cs),
(19,4,l),
(29,2,o),
(42,1,o),
(51,1,c),
(60,591,l),
(232,199,ls),
(236,190,o),
(241,185,o),
(245,182,c),
(245,178,l),
(249,178,o),
(252,178,o),
(255,179,c),
(264,178,l)
);
}
);
width = 500;
}
);
unicode = 77;
},
{
glyphname = N;
lastChange = "2024-03-01 20:00:44 +0000";
layers = (
{
layerId = "7EBE3D46-E53E-419E-A3EC-596DA2EA1E0D";
name = Regular;
shapes = (
{
alignment = -1;
pos = (40,316);
ref = _I_small;
},
{
alignment = -1;
pos = (40,124);
ref = _I_small;
},
{
alignment = -1;
pos = (40,17);
ref = _I_small;
},
{
alignment = -1;
pos = (404,369);
ref = _I_small;
},
{
alignment = -1;
pos = (404,200);
ref = _I_small;
},
{
alignment = -1;
pos = (404,472);
ref = _I_small;
},
{
closed = 1;
nodes = (
(592,-7,o),
(589,23,o),
(589,56,cs),
(589,182,ls),
(589,196,o),
(515,239,o),
(464,288,c),
(188,615,ls),
(151,658,o),
(126,681,o),
(96,674,cs),
(71,668,o),
(71,643,o),
(71,609,cs),
(70,509,ls),
(70,494,o),
(86,494,o),
(95,483,cs),
(151,409,o),
(157,420,o),
(162,414,cs),
(478,36,ls),
(512,-5,o),
(538,-23,o),
(565,-15,cs)
);
}
);
width = 659;
},
{
layerId = m002;
name = Regular;
shapes = (
{
alignment = -1;
pos = (-58,406);
ref = _I_small;
},
{
alignment = -1;
pos = (-58,214);
ref = _I_small;
},
{
alignment = -1;
pos = (-58,17);
ref = _I_small;
},
{
alignment = -1;
pos = (434,216);
ref = _I_small;
},
{
alignment = -1;
pos = (434,46);
ref = _I_small;
},
{
alignment = -1;
pos = (434,432);
ref = _I_small;
},
{
closed = 1;
nodes = (
(584,0,o),
(589,10,o),
(589,22,cs),
(589,42,ls),
(589,56,o),
(575,34,o),
(564,43,c),
(127,605,ls),
(115,620,o),
(105,630,o),
(89,630,cs),
(74,630,o),
(70,620,o),
(70,605,cs),
(70,555,ls),
(70,540,o),
(72,572,o),
(86,572,cs),
(92,572,o),
(88,606,o),
(93,600,cs),
(545,22,ls),
(558,6,o),
(565,0,o),
(574,0,cs)
);
}
);
width = 659;
},
{
layerId = m003;
name = Regular;
shapes = (
{
alignment = -1;
pos = (-30,316);
ref = _I_small;
},
{
alignment = -1;
pos = (-30,124);
ref = _I_small;
},
{
alignment = -1;
pos = (-30,17);
ref = _I_small;
},
{
alignment = -1;
pos = (424,369);
ref = _I_small;
},
{
alignment = -1;
pos = (424,200);
ref = _I_small;
},
{
alignment = -1;
pos = (424,472);
ref = _I_small;
},
{
closed = 1;
nodes = (
(582,-7,o),
(589,23,o),
(589,56,cs),
(589,182,ls),
(589,196,o),
(543,217,o),
(524,238,cs),
(198,615,ls),
(160,658,o),
(136,681,o),
(106,674,cs),
(81,668,o),
(71,643,o),
(71,609,cs),
(70,509,ls),
(70,494,o),
(90,495,o),
(95,483,cs),
(101,469,o),
(117,460,o),
(122,454,cs),
(468,36,ls),
(501,-4,o),
(528,-23,o),
(555,-15,cs)
);
}
);
width = 659;
},
{
layerId = m004;
name = Regular;
shapes = (
{
alignment = -1;
pos = (-58,406);
ref = _I_small;
},
{
alignment = -1;
pos = (-58,214);
ref = _I_small;
},
{
alignment = -1;
pos = (-58,17);
ref = _I_small;
},
{
alignment = -1;
pos = (434,216);
ref = _I_small;
},
{
alignment = -1;
pos = (434,46);
ref = _I_small;
},
{
alignment = -1;
pos = (434,432);
ref = _I_small;
},
{
closed = 1;
nodes = (
(584,0,o),
(589,10,o),
(589,22,cs),
(589,42,ls),
(589,56,o),
(575,34,o),
(564,43,c),
(127,605,ls),
(115,620,o),
(105,630,o),
(89,630,cs),
(74,630,o),
(70,620,o),
(70,605,cs),
(70,555,ls),
(70,540,o),
(72,572,o),
(86,572,cs),
(92,572,o),
(88,606,o),
(93,600,cs),
(545,22,ls),
(558,6,o),
(565,0,o),
(574,0,cs)
);
}
);
width = 659;
},
{
layerId = m005;
name = Regular;
shapes = (
{
alignment = -1;
pos = (40,316);
ref = _I_small;
},
{
alignment = -1;
pos = (40,124);
ref = _I_small;
},
{
alignment = -1;
pos = (40,17);
ref = _I_small;
},
{
alignment = -1;
pos = (284,369);
ref = _I_small;
},
{
alignment = -1;
pos = (284,200);
ref = _I_small;
},
{
alignment = -1;
pos = (284,472);
ref = _I_small;
},
{
closed = 1;
nodes = (
(472,-7,o),
(469,23,o),
(469,56,cs),
(469,182,ls),
(469,196,o),
(435,189,o),
(384,238,c),
(188,615,ls),
(162,664,o),
(126,681,o),
(96,674,cs),
(71,668,o),
(71,643,o),
(71,609,cs),
(70,509,ls),
(70,494,o),
(86,494,o),
(95,483,cs),
(151,409,o),
(159,430,o),
(162,424,cs),
(358,36,ls),
(382,-12,o),
(418,-23,o),
(445,-15,cs)
);
}
);
width = 500;
},
{
layerId = m006;
name = Regular;
shapes = (
{
alignment = -1;
pos = (-88,406);
ref = _I_small;
},
{
alignment = -1;
pos = (-88,214);
ref = _I_small;
},
{
alignment = -1;
pos = (-88,17);
ref = _I_small;
},
{
alignment = -1;
pos = (294,216);
ref = _I_small;
},
{
alignment = -1;
pos = (294,46);
ref = _I_small;
},
{
alignment = -1;
pos = (294,432);
ref = _I_small;
},
{
closed = 1;
nodes = (
(444,0,o),
(449,10,o),
(449,22,cs),
(449,42,ls),
(449,56,o),
(435,34,o),
(424,43,c),
(97,605,ls),
(88,620,o),
(75,630,o),
(59,630,cs),
(44,630,o),
(40,620,o),
(40,605,cs),
(40,555,ls),
(40,540,o),
(42,572,o),
(56,572,cs),
(62,572,o),
(59,606,o),
(63,600,cs),
(405,22,ls),
(415,5,o),
(425,0,o),
(434,0,cs)
);
}
);
width = 500;
}
);
unicode = 78;
},
{
glyphname = P;
lastChange = "2024-02-28 03:10:00 +0000";
layers = (
{
layerId = "7EBE3D46-E53E-419E-A3EC-596DA2EA1E0D";
name = Regular;
shapes = (
{
alignment = -1;
pos = (40,19);
ref = _I_small;
},
{
alignment = -1;
pos = (40,164);
ref = _I_small;
},
{
alignment = -1;
pos = (40,327);
ref = _I_small;
},
{
alignment = -1;
pos = (40,473);
ref = _I_small;
},
{
closed = 1;
nodes = (
(522,541,o),
(448,675,o),
(254,675,c),
(179,676,o),
(112,663,o),
(72,661,c),
(92,489,l),
(119,506,o),
(190,523,o),
(254,521,c),
(338,521,o),
(398,487,o),
(398,420,c),
(397,353,o),
(345,322,o),
(254,322,c),
(189,320,o),
(119,340,o),
(92,357,c),
(92,223,l),
(132,216,o),
(207,196,o),
(283,200,cs),
(453,208,o),
(522,313,o),
(522,418,c)
);
}
);
width = 550;
},
{
layerId = m002;
name = Regular;
shapes = (
{
alignment = -1;
pos = (-58,19);
ref = _I_small;
},
{
alignment = -1;
pos = (-58,164);
ref = _I_small;
},
{
alignment = -1;
pos = (-58,327);
ref = _I_small;
},
{
alignment = -1;
pos = (-58,432);
ref = _I_small;
},
{
closed = 1;
nodes = (
(503,530,o),
(429,638,o),
(255,638,c),
(180,639,o),
(109,632,o),
(71,630,c),
(73,599,l),
(100,605,o),
(191,609,o),
(255,607,c),
(379,607,o),
(473,527,o),
(473,405,c),
(473,287,o),
(362,225,o),
(235,225,c),
(170,223,o),
(100,228,o),
(73,230,c),
(73,199,l),
(113,197,o),
(188,193,o),
(264,197,cs),
(434,205,o),
(503,302,o),
(503,402,c)
);
}
);
width = 542;
},
{
layerId = m003;
name = Regular;
shapes = (
{
alignment = -1;
pos = (-22,19);
ref = _I_small;
},
{
alignment = -1;
pos = (-22,164);
ref = _I_small;
},
{
alignment = -1;
pos = (-22,327);
ref = _I_small;
},
{
alignment = -1;
pos = (-22,473);
ref = _I_small;
},
{
closed = 1;
nodes = (
(520,541,o),
(446,675,o),
(252,675,c),
(177,676,o),
(110,663,o),
(70,661,c),
(90,489,l),
(117,506,o),
(188,523,o),
(252,521,c),
(336,521,o),
(396,487,o),
(396,420,c),
(395,353,o),
(343,322,o),
(252,322,c),
(187,320,o),
(117,340,o),
(90,357,c),
(90,223,l),
(130,216,o),
(205,196,o),
(281,200,cs),
(451,208,o),
(520,313,o),
(520,418,c)
);
}
);
width = 548;
},
{
layerId = m004;
name = Regular;
shapes = (
{
alignment = -1;
pos = (-58,19);
ref = _I_small;
},
{
alignment = -1;
pos = (-58,164);
ref = _I_small;
},
{
alignment = -1;
pos = (-58,327);
ref = _I_small;
},
{
alignment = -1;
pos = (-58,432);
ref = _I_small;
},
{
closed = 1;
nodes = (
(503,530,o),
(429,638,o),
(255,638,c),
(180,639,o),
(109,632,o),
(71,630,c),
(73,599,l),
(100,605,o),
(191,609,o),
(255,607,c),
(379,607,o),
(473,527,o),
(473,405,c),
(473,287,o),
(362,225,o),
(235,225,c),
(170,223,o),
(100,228,o),
(73,230,c),
(73,199,l),
(113,197,o),
(188,193,o),
(264,197,cs),
(434,205,o),
(503,302,o),
(503,402,c)
);
}
);
width = 542;
},
{
layerId = m005;
name = Regular;
shapes = (
{
alignment = -1;
pos = (10,19);
ref = _I_small;
},
{
alignment = -1;
pos = (10,164);
ref = _I_small;
},
{
alignment = -1;
pos = (10,327);
ref = _I_small;
},
{
alignment = -1;
pos = (10,473);
ref = _I_small;
},
{
closed = 1;
nodes = (
(482,541,o),
(408,675,o),
(254,675,c),
(179,676,o),
(82,663,o),
(42,661,c),
(62,489,l),
(89,506,o),
(190,532,o),
(254,530,c),
(328,530,o),
(358,487,o),
(358,420,c),
(357,353,o),
(305,322,o),
(254,322,c),
(189,320,o),
(89,340,o),
(62,357,c),
(62,223,l),
(102,216,o),
(207,195,o),
(283,200,cs),
(413,208,o),
(482,313,o),
(482,418,c)
);
}
);
width = 500;
},
{
layerId = m006;
name = Regular;
shapes = (
{
alignment = -1;
pos = (-58,19);
ref = _I_small;
},
{
alignment = -1;
pos = (-58,164);
ref = _I_small;
},
{
alignment = -1;
pos = (-58,327);
ref = _I_small;
},
{
alignment = -1;
pos = (-58,432);
ref = _I_small;
},
{
closed = 1;
nodes = (
(503,530,o),
(429,638,o),
(255,638,c),
(180,639,o),
(109,632,o),
(71,630,c),
(73,599,l),
(100,605,o),
(191,609,o),
(255,607,c),
(379,607,o),
(473,527,o),
(473,405,c),
(473,287,o),
(362,225,o),
(235,225,c),
(170,223,o),
(100,228,o),
(73,230,c),
(73,199,l),
(113,197,o),
(188,193,o),
(264,197,cs),
(434,205,o),
(503,302,o),
(503,402,c)
);
}
);
width = 500;
}
);
unicode = 80;
},
{
glyphname = Q;
lastChange = "2024-02-28 03:10:21 +0000";
layers = (
{
layerId = "7EBE3D46-E53E-419E-A3EC-596DA2EA1E0D";
name = Regular;
shapes = (
{
closed = 1;
nodes = (
(629,-53,l),
(623,119,l),
(300,136,l),
(310,-13,l)
);
},
{
ref = O;
}
);
width = 629;
},
{
layerId = m002;
name = Regular;
shapes = (
{
closed = 1;
nodes = (
(567,-75,l),
(573,-30,l),
(248,14,l),
(244,-8,l)
);
},
{
pos = (-10,0);
ref = O;
}
);
width = 617;
},
{
layerId = m003;
name = Regular;
shapes = (
{
closed = 1;
nodes = (
(629,-53,l),
(623,119,l),
(300,136,l),
(310,-13,l)
);
},
{
ref = O;
}
);
width = 629;
},
{
layerId = m004;
name = Regular;
shapes = (
{
closed = 1;
nodes = (
(567,-75,l),
(573,-30,l),
(248,14,l),
(244,-8,l)
);
},
{
pos = (-10,0);
ref = O;
}
);
width = 617;
},
{
layerId = m005;
name = Regular;
shapes = (
{
closed = 1;
nodes = (
(489,-51,l),
(483,121,l),
(210,138,l),
(220,-11,l)
);
},
{
ref = O;
}
);
width = 500;
},
{
layerId = m006;
name = Regular;
shapes = (
{
closed = 1;
nodes = (
(567,-75,l),
(573,-30,l),
(248,14,l),
(244,-8,l)
);
},
{
pos = (-10,0);
ref = O;
}
);
width = 500;
}
);
unicode = 81;
},
{
glyphname = R;
lastChange = "2024-02-28 03:10:50 +0000";
layers = (
{
layerId = "7EBE3D46-E53E-419E-A3EC-596DA2EA1E0D";
name = Regular;
shapes = (
{
pos = (40,19);
ref = _I_small;
},
{
pos = (40,144);
ref = _I_small;
},
{
pos = (40,327);
ref = _I_small;
},
{
pos = (40,473);
ref = _I_small;
},
{
closed = 1;
nodes = (
(522,541,o),
(448,675,o),
(254,675,c),
(179,676,o),
(112,663,o),
(72,661,c),
(92,489,l),
(119,506,o),
(180,523,o),
(244,521,c),
(308,521,o),
(368,487,o),
(368,420,c),
(367,353,o),
(315,322,o),
(244,322,c),
(179,320,o),
(119,329,o),
(92,327,c),
(92,223,l),
(132,216,o),
(197,221,o),
(273,220,cs),
(413,218,o),
(522,313,o),
(522,418,c)
);
},
{
closed = 1;
nodes = (
(472,101,o),
(426,170,o),
(360,281,c),
(235,248,l),
(295,128,o),
(327,68,o),
(375,-7,c),
(415,-3,o),
(499,2,o),
(545,2,c)
);
}
);
width = 565;
},
{
layerId = m002;
name = Regular;
shapes = (
{
pos = (-58,19);
ref = _I_small;
},
{
pos = (-58,164);
ref = _I_small;
},
{
pos = (-58,327);
ref = _I_small;
},
{
pos = (-58,433);
ref = _I_small;
},
{
closed = 1;
nodes = (
(507,570,o),
(433,638,o),
(259,638,c),
(184,639,o),
(113,632,o),
(75,630,c),
(77,599,l),
(104,605,o),
(195,609,o),
(259,607,c),
(383,607,o),
(477,567,o),
(477,445,c),
(477,337,o),
(366,295,o),
(239,295,c),
(174,293,o),
(104,298,o),
(77,300,c),
(77,269,l),
(117,267,o),
(192,263,o),
(268,267,cs),
(438,275,o),
(507,352,o),
(507,442,c)
);
},
{
closed = 1;
nodes = (
(488,31,o),
(319,225,o),
(283,280,c),
(249,280,l),
(289,223,o),
(454,21,o),
(480,-6,c),
(493,-5,o),
(506,-3,o),
(519,0,c)
);
}
);
width = 579;
},
{
layerId = m003;
name = Regular;
shapes = (
{
pos = (-32,19);
ref = _I_small;
},
{
pos = (-32,144);
ref = _I_small;
},
{
pos = (-32,327);
ref = _I_small;
},
{
pos = (-32,473);
ref = _I_small;
},
{
closed = 1;
nodes = (
(510,583,o),
(406,671,o),
(264,671,c),
(167,672,o),
(100,665,o),
(60,661,c),
(80,504,l),
(107,511,o),
(246,523,o),
(310,521,c),
(394,521,o),
(464,479,o),
(464,412,c),
(463,345,o),
(401,292,o),
(310,292,c),
(245,290,o),
(107,291,o),
(80,289,c),
(80,243,l),
(120,246,o),
(185,241,o),
(261,240,cs),
(401,238,o),
(510,275,o),
(510,460,c)
);
},
{
closed = 1;
nodes = (
(440,109,o),
(384,160,o),
(308,271,c),
(233,248,l),
(273,138,o),
(315,65,o),
(363,-10,c),
(413,-14,o),
(477,-8,o),
(533,10,c)
);
}
);
width = 573;
},
{
layerId = m004;
name = Regular;
shapes = (
{
pos = (-58,19);
ref = _I_small;
},
{
pos = (-58,164);
ref = _I_small;
},
{
pos = (-58,327);
ref = _I_small;
},
{
pos = (-58,433);
ref = _I_small;
},
{
closed = 1;
nodes = (
(507,570,o),
(433,638,o),
(259,638,c),
(184,639,o),
(113,632,o),
(75,630,c),
(77,599,l),
(104,605,o),
(195,609,o),
(259,607,c),
(383,607,o),
(477,567,o),
(477,445,c),
(477,337,o),
(366,295,o),
(239,295,c),
(174,293,o),
(104,298,o),
(77,300,c),
(77,269,l),
(117,267,o),
(192,263,o),
(268,267,cs),
(438,275,o),
(507,352,o),
(507,442,c)
);
},
{
closed = 1;
nodes = (
(488,31,o),
(319,225,o),
(283,280,c),
(249,280,l),
(289,223,o),
(454,21,o),
(480,-6,c),
(493,-5,o),
(506,-3,o),
(519,0,c)
);
}
);
width = 579;
},
{
layerId = m005;
name = Regular;
shapes = (
{
pos = (0,19);
ref = _I_small;
},
{
pos = (0,144);
ref = _I_small;
},
{
pos = (0,327);
ref = _I_small;
},
{
pos = (0,473);
ref = _I_small;
},
{
closed = 1;
nodes = (
(472,541,o),
(398,675,o),
(204,675,c),
(129,676,o),
(71,663,o),
(31,661,c),
(91,489,l),
(118,506,o),
(150,523,o),
(214,521,c),
(278,521,o),
(328,487,o),
(328,420,c),
(327,353,o),
(285,322,o),
(214,322,c),
(149,320,o),
(118,329,o),
(91,327,c),
(91,223,l),
(131,216,o),
(147,221,o),
(223,220,cs),
(363,218,o),
(472,313,o),
(472,418,c)
);
},
{
closed = 1;
nodes = (
(422,101,o),
(376,170,o),
(310,281,c),
(185,248,l),
(245,128,o),
(277,68,o),
(325,-7,c),
(365,-3,o),
(449,2,o),
(495,2,c)
);
}
);
width = 500;
},
{
layerId = m006;
name = Regular;
shapes = (
{
pos = (-58,19);
ref = _I_small;
},
{
pos = (-58,164);
ref = _I_small;
},
{
pos = (-58,327);
ref = _I_small;
},
{
pos = (-58,433);
ref = _I_small;
},
{
closed = 1;
nodes = (
(507,570,o),
(433,638,o),
(259,638,c),
(184,639,o),
(113,632,o),
(75,630,c),
(77,599,l),
(104,605,o),
(195,609,o),
(259,607,c),
(383,607,o),
(477,567,o),
(477,445,c),
(477,337,o),
(366,295,o),
(239,295,c),
(174,293,o),
(104,298,o),
(77,300,c),
(77,269,l),
(117,267,o),
(192,263,o),
(268,267,cs),
(438,275,o),
(507,352,o),
(507,442,c)
);
},
{
closed = 1;
nodes = (
(488,31,o),
(319,225,o),
(283,280,c),
(249,280,l),
(289,223,o),
(454,21,o),
(480,-6,c),
(493,-5,o),
(506,-3,o),
(519,0,c)
);
}
);
width = 500;
}
);
unicode = 82;
},
{
glyphname = S;
lastChange = "2024-03-05 14:47:15 +0000";
layers = (
{
layerId = "7EBE3D46-E53E-419E-A3EC-596DA2EA1E0D";
name = Regular;
shapes = (
{
closed = 1;
nodes = (
(253,434,o),
(221,443,o),
(221,476,c),
(221,509,o),
(259,515,o),
(305,514,cs),
(367,513,o),
(438,489,o),
(484,465,c),
(497,519,o),
(507,574,o),
(511,632,c),
(436,657,o),
(363,670,o),
(292,670,cs),
(130,670,o),
(63,602,o),
(63,501,cs),
(63,391,o),
(164,351,o),
(261,296,cs),
(348,247,o),
(381,237,o),
(381,203,cs),
(381,172,o),
(346,156,o),
(279,156,cs),
(217,156,o),
(136,175,o),
(88,199,c),
(65,141,o),
(54,83,o),
(50,27,c),
(124,2,o),
(243,-10,o),
(314,-10,cs),
(434,-10,o),
(542,62,o),
(542,179,cs),
(542,291,o),
(450,324,o),
(364,372,cs)
);
}
);
width = 592;
},
{
layerId = m002;
name = Regular;
shapes = (
{
closed = 1;
nodes = (
(209,373,o),
(100,412,o),
(100,495,cs),
(100,593,o),
(225,607,o),
(315,597,cs),
(352,593,o),
(403,585,o),
(436,574,c),
(438,587,o),
(440,600,o),
(442,613,c),
(389,627,o),
(329,634,o),
(278,634,cs),
(150,634,o),
(66,593,o),
(66,492,cs),
(66,403,o),
(170,356,o),
(266,312,cs),
(377,260,o),
(444,238,o),
(444,158,cs),
(444,62,o),
(349,31,o),
(266,31,cs),
(200,31,o),
(123,44,o),
(76,66,c),
(73,55,o),
(69,43,o),
(66,32,c),
(140,7,o),
(167,0,o),
(270,0,cs),
(381,0,o),
(481,43,o),
(481,157,cs),
(481,250,o),
(416,276,o),
(329,316,cs)
);
}
);
width = 547;
},
{
layerId = m003;
name = Regular;
shapes = (
{
closed = 1;
nodes = (
(219,378,o),
(171,423,o),
(171,456,c),
(171,499,o),
(219,515,o),
(285,514,cs),
(347,513,o),
(438,489,o),
(484,465,c),
(497,519,o),
(507,574,o),
(511,632,c),
(436,657,o),
(363,670,o),
(292,670,cs),
(130,670,o),
(63,602,o),
(63,501,cs),
(63,391,o),
(164,341,o),
(261,306,cs),
(355,272,o),
(431,257,o),
(431,203,cs),
(431,152,o),
(346,156,o),
(279,156,cs),
(217,156,o),
(136,175,o),
(88,199,c),
(65,141,o),
(54,83,o),
(50,27,c),
(124,2,o),
(243,-10,o),
(314,-10,cs),
(434,-10,o),
(542,42,o),
(542,159,cs),
(542,261,o),
(437,315,o),
(344,342,cs)
);
}
);
width = 592;
},
{
layerId = m004;
name = Regular;
shapes = (
{
closed = 1;
nodes = (
(209,373,o),
(100,412,o),
(100,495,cs),
(100,593,o),
(225,607,o),
(315,597,cs),
(352,593,o),
(403,585,o),
(436,574,c),
(438,587,o),
(440,600,o),
(442,613,c),
(389,627,o),
(329,634,o),
(278,634,cs),
(150,634,o),
(66,593,o),
(66,492,cs),
(66,403,o),
(170,356,o),
(266,312,cs),
(377,260,o),
(444,238,o),
(444,158,cs),
(444,62,o),
(349,31,o),
(266,31,cs),
(200,31,o),
(123,44,o),
(76,66,c),
(73,55,o),
(69,43,o),
(66,32,c),
(140,7,o),
(167,0,o),
(270,0,cs),
(381,0,o),
(481,43,o),
(481,157,cs),
(481,250,o),
(416,276,o),
(329,316,cs)
);
}
);
width = 547;
},
{
layerId = m005;
name = Regular;
shapes = (
{
closed = 1;
nodes = (
(213,434,o),
(191,443,o),
(191,476,c),
(191,509,o),
(219,515,o),
(265,514,cs),
(327,513,o),
(378,489,o),
(424,465,c),
(437,519,o),
(447,574,o),
(451,632,c),
(376,657,o),
(323,670,o),
(252,670,cs),
(90,670,o),
(33,602,o),
(33,501,cs),
(33,391,o),
(134,351,o),
(221,296,cs),
(305,243,o),
(341,237,o),
(341,203,cs),
(341,172,o),
(306,156,o),
(239,156,cs),
(177,156,o),
(106,175,o),
(58,199,c),
(35,141,o),
(24,83,o),
(20,27,c),
(94,2,o),
(183,-10,o),
(254,-10,cs),
(404,-10,o),
(482,62,o),
(482,179,cs),
(482,291,o),
(410,324,o),
(324,372,cs)
);
}
);
width = 500;
},
{
layerId = m006;
name = Regular;
shapes = (
{
closed = 1;
nodes = (
(209,383,o),
(100,412,o),
(100,495,cs),
(100,593,o),
(225,607,o),
(315,597,cs),
(352,593,o),
(403,585,o),
(436,574,c),
(438,587,o),
(440,600,o),
(442,613,c),
(389,627,o),
(329,634,o),
(278,634,cs),
(150,634,o),
(66,593,o),
(66,492,cs),
(66,403,o),
(170,366,o),
(266,322,cs),
(377,270,o),
(444,238,o),
(444,158,cs),
(444,62,o),
(349,31,o),
(266,31,cs),
(200,31,o),
(123,44,o),
(76,66,c),
(73,55,o),
(69,43,o),
(66,32,c),
(140,7,o),
(167,0,o),
(270,0,cs),
(381,0,o),
(481,43,o),
(481,157,cs),
(481,250,o),
(416,286,o),
(329,326,cs)
);
}
);
width = 500;
}
);
unicode = 83;
},
{
glyphname = U;
lastChange = "2024-03-02 14:09:40 +0000";
layers = (
{
layerId = "7EBE3D46-E53E-419E-A3EC-596DA2EA1E0D";
name = Regular;
shapes = (
{
closed = 1;
nodes = (
(336,-19,l),
(498,-19,o),
(615,127,o),
(615,318,c),
(615,319,o),
(461,318,o),
(461,317,c),
(461,204,o),
(406,146,o),
(336,146,c)
);
},
{
closed = 1;
nodes = (
(274,146,o),
(226,204,o),
(226,317,c),
(226,318,o),
(71,319,o),
(71,318,c),
(71,127,o),
(182,-19,o),
(344,-19,c),
(344,146,l)
);
},
{
alignment = -1;
pos = (431,473);
ref = _I_small;
},
{
alignment = -1;
pos = (40,336);
ref = _I_small;
},
{
alignment = -1;
pos = (40,473);
ref = _I_small;
},
{
alignment = -1;
pos = (431,334);
ref = _I_small;
}
);
width = 686;
},
{
layerId = m002;
name = Regular;
shapes = (
{
closed = 1;
nodes = (
(306,-9,l),
(468,-9,o),
(550,107,o),
(550,308,c),
(550,309,o),
(523,310,o),
(523,309,c),
(523,153,o),
(465,29,o),
(304,29,c)
);
},
{
closed = 1;
nodes = (
(155,29,o),
(97,153,o),
(97,309,c),
(97,310,o),
(70,309,o),
(70,308,c),
(70,107,o),
(152,-9,o),
(314,-9,c),
(316,29,l)
);
},
{
alignment = -1;
pos = (395,433);
ref = _I_small;
},
{
alignment = -1;
pos = (-58,316);
ref = _I_small;
},
{
alignment = -1;
pos = (-58,433);
ref = _I_small;
},
{
alignment = -1;
pos = (395,314);
ref = _I_small;
}
);
width = 620;
},
{
layerId = m003;
name = Regular;
shapes = (
{
closed = 1;
nodes = (
(296,-9,l),
(458,-9,o),
(545,137,o),
(545,328,c),
(545,329,o),
(491,328,o),
(491,327,c),
(491,214,o),
(416,156,o),
(296,156,c)
);
},
{
closed = 1;
nodes = (
(194,156,o),
(125,214,o),
(125,327,c),
(95,328,o),
(70,329,o),
(70,328,c),
(70,137,o),
(142,-9,o),
(304,-9,c),
(304,156,l)
);
},
{
alignment = -1;
pos = (381,473);
ref = _I_small;
},
{
alignment = -1;
pos = (-40,336);
ref = _I_small;
},
{
alignment = -1;
pos = (-40,473);
ref = _I_small;
},
{
alignment = -1;
pos = (381,334);
ref = _I_small;
}
);
width = 616;
},
{
layerId = m004;
name = Regular;
shapes = (
{
closed = 1;
nodes = (
(306,-9,l),
(468,-9,o),
(550,107,o),
(550,308,c),
(550,309,o),
(523,310,o),
(523,309,c),
(523,153,o),
(465,29,o),
(304,29,c)
);
},
{
closed = 1;
nodes = (
(155,29,o),
(97,153,o),
(97,309,c),
(97,310,o),
(70,309,o),
(70,308,c),
(70,107,o),
(152,-9,o),
(314,-9,c),
(316,29,l)
);
},
{
alignment = -1;
pos = (395,433);
ref = _I_small;
},
{
alignment = -1;
pos = (-58,316);
ref = _I_small;
},
{
alignment = -1;
pos = (-58,433);
ref = _I_small;
},
{
alignment = -1;
pos = (395,314);
ref = _I_small;
}
);
width = 620;
},
{
layerId = m005;
name = Regular;
shapes = (
{
closed = 1;
nodes = (
(245,-19,l),
(407,-19,o),
(474,107,o),
(474,298,c),
(474,299,o),
(320,298,o),
(320,297,c),
(320,204,o),
(315,146,o),
(245,146,c)
);
},
{
closed = 1;
nodes = (
(183,146,o),
(175,204,o),
(175,297,c),
(175,298,o),
(20,299,o),
(20,298,c),
(20,107,o),
(91,-19,o),
(253,-19,c),
(253,146,l)
);
},
{
alignment = -1;
pos = (290,473);
ref = _I_small;
},
{
alignment = -1;
pos = (-10,316);
ref = _I_small;
},
{
alignment = -1;
pos = (-10,473);
ref = _I_small;
},
{
alignment = -1;
pos = (290,314);
ref = _I_small;
}
);
width = 500;
},
{
layerId = m006;
name = Regular;
shapes = (
{
closed = 1;
nodes = (
(246,-9,l),
(408,-9,o),
(470,107,o),
(470,308,c),
(470,309,o),
(443,310,o),
(443,309,c),
(443,153,o),
(405,29,o),
(244,29,c)
);
},
{
closed = 1;
nodes = (
(95,29,o),
(57,153,o),
(57,309,c),
(57,310,o),
(30,309,o),
(30,308,c),
(30,107,o),
(92,-9,o),
(254,-9,c),
(256,29,l)
);
},
{
alignment = -1;
pos = (315,433);
ref = _I_small;
},
{
alignment = -1;
pos = (-98,316);
ref = _I_small;
},
{
alignment = -1;
pos = (-98,433);
ref = _I_small;
},
{
alignment = -1;
pos = (315,314);
ref = _I_small;
}
);
width = 500;
}
);
unicode = 85;
},
{
glyphname = V;
kernLeft = V;
kernRight = V;
lastChange = "2024-03-05 14:42:58 +0000";
layers = (
{
layerId = "7EBE3D46-E53E-419E-A3EC-596DA2EA1E0D";
name = Regular;
shapes = (
{
closed = 1;
nodes = (
(352,-11,o),
(369,30,o),
(379,55,cs),
(610,655,l),
(554,663,o),
(497,665,o),
(440,665,c),
(336,321,ls),
(332,309,o),
(327,283,o),
(320,254.994,c),
(313,283,o),
(308,309,o),
(304,321,cs),
(200,665,l),
(143,665,o),
(77,661,o),
(30,655,c),
(262,51,ls),
(272,26,o),
(280,-11,o),
(320,-11,cs)
);
}
);
width = 640;
},
{
layerId = m002;
name = Regular;
shapes = (
{
closed = 1;
nodes = (
(325,-6,o),
(330,4,o),
(334,15,cs),
(580,631,l),
(566,635,o),
(566,638,o),
(549,638,c),
(316,45,ls),
(313,38,o),
(312,33,o),
(310,30,c),
(308,33,o),
(307,38,o),
(304,45,cs),
(71,638,l),
(54,638,o),
(54,635,o),
(40,631,c),
(286,15,ls),
(290,4,o),
(299,-6,o),
(310,-6,c)
);
}
);
width = 620;
},
{
layerId = m003;
name = Regular;
shapes = (
{
closed = 1;
nodes = (
(360,-12,o),
(395,33,o),
(409,75,cs),
(610,660,l),
(595,664,o),
(575,666,o),
(560,665,c),
(389,178,ls),
(382,159,o),
(378,140,o),
(371,112,c),
(364,140,o),
(359,166,o),
(355,178,cs),
(200,665,l),
(143,665,o),
(87,668,o),
(30,655,c),
(231,75,ls),
(246,33,o),
(280,-12,o),
(320,-12,cs)
);
}
);
width = 640;
},
{
layerId = m004;
name = Regular;
shapes = (
{
closed = 1;
nodes = (
(321,-6,o),
(330,4,o),
(334,15,cs),
(580,631,l),
(566,635,o),
(566,638,o),
(549,638,c),
(316,45,ls),
(313,38,o),
(312,33,o),
(310,30,c),
(308,33,o),
(307,38,o),
(304,45,cs),
(71,638,l),
(54,638,o),
(54,635,o),
(40,631,c),
(286,15,ls),
(290,4,o),
(301,-6,o),
(310,-6,cs)
);
}
);
width = 620;
},
{
layerId = m005;
name = Regular;
shapes = (
{
closed = 1;
nodes = (
(282,-11,o),
(307,33,o),
(319,75,cs),
(480,655,l),
(424,663,o),
(367,665,o),
(310,665,c),
(264,311,ls),
(262,299,o),
(257,273,o),
(250,245,c),
(243,273,o),
(238,299,o),
(236,311,cs),
(190,665,l),
(133,665,o),
(67,661,o),
(20,655,c),
(181,75,ls),
(193,33,o),
(210,-11,o),
(250,-11,cs)
);
}
);
width = 500;
},
{
layerId = m006;
name = Regular;
shapes = (
{
closed = 1;
nodes = (
(255,-6,o),
(260,4,o),
(264,15,cs),
(470,631,l),
(456,635,o),
(456,634,o),
(439,634,c),
(246,45,ls),
(244,38,o),
(242,33,o),
(240,30,c),
(238,33,o),
(236,38,o),
(234,45,cs),
(41,634,l),
(24,634,o),
(24,635,o),
(10,631,c),
(216,15,ls),
(220,4,o),
(229,-6,o),
(240,-6,c)
);
}
);
width = 500;
}
);
unicode = 86;
},
{
glyphname = W;
kernLeft = T;
kernRight = T;
lastChange = "2024-03-02 14:11:50 +0000";
layers = (
{
layerId = "7EBE3D46-E53E-419E-A3EC-596DA2EA1E0D";
name = Regular;
shapes = (
{
closed = 1;
nodes = (
(545,-11,cs),
(571,-11,o),
(586,16,o),
(603,77,cs),
(766,655,l),
(722,660,o),
(657,662,o),
(603,662,c),
(541,318,l),
(451,590,ls),
(434,642,o),
(423,672,o),
(395,672,cs),
(395,672,l),
(367,672,o),
(356,644,o),
(341,594,cs),
(257,321,l),
(194,662,l),
(139,662,o),
(75,660,o),
(30,655,c),
(196,77,ls),
(213,18,o),
(224,-11,o),
(251,-11,cs),
(276,-11,o),
(290,18,o),
(307,77,cs),
(394,373,l),
(485,71,ls),
(501,17,o),
(522,-11,o)
);
}
);
width = 796;
},
{
layerId = m002;
name = Regular;
shapes = (
{
closed = 1;
nodes = (
(565,-1,cs),
(582,-1,o),
(591,20,o),
(596,39,cs),
(748,630,l),
(736,631,o),
(723,633,o),
(711,634,c),
(564,43,l),
(412,586,ls),
(406,607,o),
(398,626,o),
(382,626,cs),
(381,626,l),
(364,626,o),
(356,607,o),
(350,586,cs),
(206,43,l),
(64,634,l),
(53,633,o),
(41,631,o),
(30,630,c),
(173,39,ls),
(178,20,o),
(185,-1,o),
(206,-1,cs),
(222,-1,o),
(232,19,o),
(237,39,cs),
(381,588,l),
(532,39,ls),
(537,20,o),
(546,-1,o)
);
}
);
width = 778;
},
{
layerId = m003;
name = Regular;
shapes = (
{
closed = 1;
nodes = (
(575,-11,cs),
(611,-11,o),
(641,16,o),
(653,77,cs),
(766,655,l),
(752,658,o),
(727,662,o),
(703,659,c),
(599,82,l),
(500,590,ls),
(490,643,o),
(462,672,o),
(424,672,cs),
(424,672,l),
(386,672,o),
(358,645,o),
(350,594,cs),
(275,85,l),
(194,665,l),
(139,665,o),
(85,665,o),
(30,655,c),
(166,77,ls),
(180,18,o),
(204,-11,o),
(241,-11,cs),
(276,-11,o),
(308,17,o),
(317,77,cs),
(394,573,l),
(495,71,ls),
(506,15,o),
(542,-11,o)
);
}
);
width = 796;
},
{
layerId = m004;
name = Regular;
shapes = (
{
closed = 1;
nodes = (
(565,-1,cs),
(582,-1,o),
(591,20,o),
(596,39,cs),
(748,630,l),
(736,631,o),
(723,633,o),
(711,634,c),
(564,43,l),
(412,586,ls),
(406,607,o),
(398,626,o),
(382,626,cs),
(381,626,l),
(364,626,o),
(356,607,o),
(350,586,cs),
(206,43,l),
(64,634,l),
(53,633,o),
(41,631,o),
(30,630,c),
(173,39,ls),
(178,20,o),
(185,-1,o),
(206,-1,cs),
(222,-1,o),
(232,19,o),
(237,39,cs),
(381,588,l),
(532,39,ls),
(537,20,o),
(546,-1,o)
);
}
);
width = 778;
},
{
layerId = m005;
name = Regular;
shapes = (
{
closed = 1;
nodes = (
(355,-11,cs),
(391,-11,o),
(404,16,o),
(413,77,cs),
(496,655,l),
(482,658,o),
(377,662,o),
(353,659,c),
(345,351,l),
(310,590,ls),
(302,643,o),
(292,672,o),
(254,672,cs),
(254,672,l),
(216,672,o),
(209,646,o),
(201,594,cs),
(165,345,l),
(154,665,l),
(119,666,o),
(44,665,o),
(10,655,c),
(106,77,ls),
(116,18,o),
(124,-11,o),
(161,-11,cs),
(196,-11,o),
(207,18,o),
(217,77,cs),
(254,293,l),
(295,71,ls),
(305,15,o),
(322,-11,o)
);
}
);
width = 500;
},
{
layerId = m006;
name = Regular;
shapes = (
{
closed = 1;
nodes = (
(370,-1,cs),
(387,-1,o),
(398,20,o),
(401,39,cs),
(493,630,l),
(481,631,o),
(468,633,o),
(456,634,c),
(369,43,l),
(267,586,ls),
(263,607,o),
(253,626,o),
(237,626,cs),
(236,626,l),
(219,626,o),
(209,607,o),
(205,586,cs),
(111,43,l),
(39,634,l),
(28,633,o),
(16,631,o),
(5,630,c),
(78,39,ls),
(80,20,o),
(90,-1,o),
(111,-1,cs),
(127,-1,o),
(139,19,o),
(142,39,cs),
(236,588,l),
(337,39,ls),
(341,20,o),
(351,-1,o)
);
}
);
width = 500;
}
);
unicode = 87;
},
{
glyphname = a;
kernLeft = e;
kernRight = e;
lastChange = "2024-03-05 14:38:04 +0000";
layers = (
{
layerId = "7EBE3D46-E53E-419E-A3EC-596DA2EA1E0D";
name = Regular;
shapes = (
{
closed = 1;
nodes = (
(111,291,o),
(40,245,o),
(40,144,cs),
(40,45,o),
(122,-4,o),
(197,-4,cs),
(276,-4,o),
(337,41,o),
(360,84,c),
(371,0,l),
(458,0,l),
(458,305,l),
(458,430,o),
(369,515,o),
(241,515,cs),
(187,515,o),
(139,510,o),
(81,489,c),
(80,439,o),
(82,381,o),
(91,328,c),
(145,356,o),
(193,350,o),
(242,350,cs),
(303,350,o),
(316,323,o),
(325,297,cs),
(327,291,l),
(211,291,ls)
);
},
{
closed = 1;
nodes = (
(176,196,o),
(204,213,o),
(242,213,cs),
(333,213,l),
(322,188,ls),
(311,163,o),
(280,141,o),
(236,141,cs),
(196,141,o),
(176,145,o),
(176,174,cs)
);
},
{
pos = (-20,-1);
ref = _u_r;
}
);
width = 519;
},
{
layerId = m002;
name = Regular;
shapes = (
{
closed = 1;
nodes = (
(111,286,o),
(40,239,o),
(40,138,cs),
(40,49,o),
(112,-8,o),
(207,-8,cs),
(346,-8,o),
(422,69,o),
(435,122,c),
(435,-1,l),
(458,-1,l),
(458,305,l),
(458,430,o),
(379,515,o),
(251,515,cs),
(177,515,o),
(151,510,o),
(75,482,c),
(74,473,o),
(76,457,o),
(78,449,c),
(131,472,o),
(182,485,o),
(251,485,cs),
(362,485,o),
(429,404,o),
(429,307,cs),
(429,286,l),
(241,286,ls)
);
},
{
closed = 1;
nodes = (
(63,203,o),
(104,257,o),
(242,257,cs),
(430,257,l),
(431,192,ls),
(433,86,o),
(310,18,o),
(206,18,cs),
(116,18,o),
(63,79,o),
(63,138,cs)
);
},
{
pos = (2,0);
ref = _u_r;
}
);
width = 518;
},
{
layerId = m003;
name = Regular;
shapes = (
{
closed = 1;
nodes = (
(121,273,o),
(50,245,o),
(50,158,cs),
(50,45,o),
(122,-4,o),
(227,-4,cs),
(336,-4,o),
(390,51,o),
(413,144,c),
(424,0,l),
(458,0,l),
(458,305,l),
(458,430,o),
(369,515,o),
(241,515,cs),
(187,515,o),
(159,510,o),
(81,479,c),
(80,429,o),
(82,371,o),
(91,318,c),
(145,346,o),
(208,351,o),
(301,350,cs),
(372,349,o),
(416,321,o),
(416,277,cs),
(416,273,l),
(291,273,ls)
);
},
{
closed = 1;
nodes = (
(106,210,o),
(141,225,o),
(239,225,cs),
(417,225,l),
(417,224,ls),
(417,177,o),
(380,131,o),
(246,131,cs),
(146,131,o),
(106,144,o),
(106,179,cs)
);
},
{
pos = (-30,2);
ref = _u_r;
}
);
width = 518;
},
{
layerId = m004;
name = Regular;
shapes = (
{
closed = 1;
nodes = (
(111,286,o),
(40,239,o),
(40,138,cs),
(40,49,o),
(112,-8,o),
(207,-8,cs),
(346,-8,o),
(422,69,o),
(435,122,c),
(435,-1,l),
(458,-1,l),
(458,305,l),
(458,430,o),
(379,515,o),
(251,515,cs),
(177,515,o),
(151,510,o),
(75,482,c),
(74,473,o),
(76,457,o),
(78,449,c),
(131,472,o),
(182,485,o),
(251,485,cs),
(362,485,o),
(429,404,o),
(429,307,cs),
(429,286,l),
(241,286,ls)
);
},
{
closed = 1;
nodes = (
(63,203,o),
(104,257,o),
(242,257,cs),
(430,257,l),
(431,192,ls),
(433,86,o),
(310,18,o),
(206,18,cs),
(116,18,o),
(63,79,o),
(63,138,cs)
);
},
{
pos = (2,0);
ref = _u_r;
}
);
width = 518;
},
{
layerId = m005;
name = Regular;
shapes = (
{
closed = 1;
nodes = (
(111,291,o),
(40,245,o),
(40,144,cs),
(40,45,o),
(122,-4,o),
(197,-4,cs),
(276,-4,o),
(337,41,o),
(360,84,c),
(371,0,l),
(458,0,l),
(458,305,l),
(458,430,o),
(369,515,o),
(241,515,cs),
(187,515,o),
(147,514,o),
(81,487,c),
(79,456,o),
(84,359,o),
(91,326,c),
(145,344,o),
(193,350,o),
(242,350,cs),
(303,350,o),
(316,323,o),
(325,297,cs),
(327,291,l),
(211,291,ls)
);
},
{
closed = 1;
nodes = (
(176,196,o),
(204,213,o),
(242,213,cs),
(333,213,l),
(322,188,ls),
(311,163,o),
(280,141,o),
(236,141,cs),
(196,141,o),
(176,145,o),
(176,174,cs)
);
},
{
pos = (-20,-1);
ref = _u_r;
}
);
width = 500;
},
{
layerId = m006;
name = Regular;
shapes = (
{
closed = 1;
nodes = (
(111,286,o),
(40,239,o),
(40,138,cs),
(40,49,o),
(112,-8,o),
(207,-8,cs),
(346,-8,o),
(422,69,o),
(435,122,c),
(435,-1,l),
(458,-1,l),
(458,305,l),
(458,430,o),
(379,515,o),
(251,515,cs),
(177,515,o),
(151,510,o),
(75,482,c),
(74,473,o),
(76,457,o),
(78,449,c),
(131,472,o),
(182,485,o),
(251,485,cs),
(362,485,o),
(429,404,o),
(429,307,cs),
(429,286,l),
(241,286,ls)
);
},
{
closed = 1;
nodes = (
(63,203,o),
(104,257,o),
(242,257,cs),
(430,257,l),
(431,192,ls),
(433,86,o),
(310,18,o),
(206,18,cs),
(116,18,o),
(63,79,o),
(63,138,cs)
);
},
{
pos = (2,0);
ref = _u_r;
}
);
width = 500;
}
);
unicode = 97;
},
{
glyphname = d;
kernLeft = e;
kernRight = h;
lastChange = "2024-03-01 06:50:30 +0000";
layers = (
{
layerId = "7EBE3D46-E53E-419E-A3EC-596DA2EA1E0D";
name = Regular;
shapes = (
{
closed = 1;
nodes = (
(391,148,l),
(391,37,l),
(463,37,l),
(463,148,l)
);
},
{
pos = (319,412);
ref = _I_small;
},
{
angle = 180;
pos = (511,510);
ref = _curve_b;
},
{
pos = (319,572);
ref = _I_small;
},
{
pos = (2,3);
ref = _u_r;
}
);
width = 544;
},
{
layerId = m002;
name = Regular;
shapes = (
{
closed = 1;
nodes = (
(436,286,l),
(436,245,l),
(453,245,l),
(453,286,l)
);
},
{
pos = (301,458);
ref = _I_small;
},
{
angle = 180;
pos = (491,509);
ref = _curve_b;
},
{
pos = (301,531);
ref = _I_small;
},
{
ref = _u_r;
}
);
width = 516;
},
{
layerId = m003;
name = Regular;
shapes = (
{
closed = 1;
nodes = (
(471,138,l),
(471,27,l),
(483,27,l),
(483,138,l)
);
},
{
pos = (339,412);
ref = _I_small;
},
{
angle = 180;
pos = (511,510);
ref = _curve_b;
},
{
pos = (339,572);
ref = _I_small;
},
{
pos = (2,3);
ref = _u_r;
}
);
width = 564;
},
{
layerId = m004;
name = Regular;
shapes = (
{
closed = 1;
nodes = (
(436,286,l),
(436,245,l),
(453,245,l),
(453,286,l)
);
},
{
pos = (301,458);
ref = _I_small;
},
{
angle = 180;
pos = (491,509);
ref = _curve_b;
},
{
pos = (301,531);
ref = _I_small;
},
{
ref = _u_r;
}
);
width = 516;
},
{
layerId = m005;
name = Regular;
shapes = (
{
closed = 1;
nodes = (
(381,78,l),
(381,47,l),
(443,47,l),
(443,78,l)
);
},
{
pos = (279,412);
ref = _I_small;
},
{
angle = 180;
pos = (471,510);
ref = _curve_b;
},
{
pos = (279,572);
ref = _I_small;
},
{
pos = (-18,3);
ref = _u_r;
}
);
width = 500;
},
{
layerId = m006;
name = Regular;
shapes = (
{
closed = 1;
nodes = (
(436,286,l),
(436,245,l),
(453,245,l),
(453,286,l)
);
},
{
pos = (301,458);
ref = _I_small;
},
{
angle = 180;
pos = (491,509);
ref = _curve_b;
},
{
pos = (301,531);
ref = _I_small;
},
{
ref = _u_r;
}
);
width = 500;
}
);
unicode = 100;
},
{
glyphname = eth;
lastChange = "2024-02-24 08:56:54 +0000";
layers = (
{
layerId = "7EBE3D46-E53E-419E-A3EC-596DA2EA1E0D";
name = Regular;
shapes = (
{
closed = 1;
nodes = (
(469,683,l),
(356,708,l),
(173,469,l),
(298,449,l)
);
},
{
pos = (558,0);
ref = six;
scale = (-1,1);
}
);
width = 558;
},
{
layerId = m002;
name = Regular;
shapes = (
{
closed = 1;
nodes = (
(419,713,l),
(396,718,l),
(183,489,l),
(218,489,l)
);
},
{
pos = (558,0);
ref = six;
scale = (-1,1);
}
);
width = 558;
},
{
layerId = m003;
name = Regular;
shapes = (
{
closed = 1;
nodes = (
(469,683,l),
(356,708,l),
(173,469,l),
(298,449,l)
);
},
{
pos = (558,0);
ref = six;
scale = (-1,1);
}
);
width = 558;
},
{
layerId = m004;
name = Regular;
shapes = (
{
closed = 1;
nodes = (
(419,713,l),
(396,718,l),
(183,489,l),
(218,489,l)
);
},
{
pos = (558,0);
ref = six;
scale = (-1,1);
}
);
width = 558;
},
{
layerId = m005;
name = Regular;
shapes = (
{
closed = 1;
nodes = (
(469,683,l),
(356,708,l),
(173,469,l),
(298,449,l)
);
},
{
pos = (558,0);
ref = six;
scale = (-1,1);
}
);
width = 500;
},
{
layerId = m006;
name = Regular;
shapes = (
{
closed = 1;
nodes = (
(419,713,l),
(396,718,l),
(183,489,l),
(218,489,l)
);
},
{
pos = (558,0);
ref = six;
scale = (-1,1);
}
);
width = 500;
}
);
unicode = 240;
},
{
glyphname = e;
kernLeft = e;
kernRight = e;
lastChange = "2024-02-24 08:56:54 +0000";
layers = (
{
layerId = "7EBE3D46-E53E-419E-A3EC-596DA2EA1E0D";
name = Regular;
shapes = (
{
closed = 1;
nodes = (
(468,237,o),
(466,266,o),
(464,285,c),
(405,295,l),
(133,295,l),
(133,217,l),
(464,217,l)
);
},
{
pos = (6,1);
ref = _o_curve;
},
{
closed = 1;
nodes = (
(329,356,o),
(353,323,o),
(373,287,c),
(466,216,l),
(494,414,o),
(380,517,o),
(257,517,c),
(257,356,l)
);
},
{
pos = (-10,1);
ref = _curve_cursive;
}
);
width = 512;
},
{
layerId = m002;
name = Regular;
shapes = (
{
closed = 1;
nodes = (
(459,237,o),
(450,242,o),
(450,260,c),
(448,258,l),
(58,258,l),
(58,226,l),
(457,225,l)
);
},
{
pos = (6,8);
ref = _o_curve;
},
{
closed = 1;
nodes = (
(360,487,o),
(440,419,o),
(430,253,c),
(457,226,l),
(465,414,o),
(397,517,o),
(254,517,c),
(254,487,l)
);
},
{
pos = (-10,1);
ref = _curve_cursive;
}
);
width = 497;
},
{
layerId = m003;
name = Regular;
shapes = (
{
closed = 1;
nodes = (
(468,237,o),
(466,266,o),
(464,285,c),
(405,275,l),
(73,275,l),
(73,217,l),
(464,217,l)
);
},
{
pos = (6,1);
ref = _o_curve;
},
{
closed = 1;
nodes = (
(309,356,o),
(413,333,o),
(413,257,c),
(466,216,l),
(494,414,o),
(380,517,o),
(257,517,c),
(257,356,l)
);
},
{
pos = (-10,1);
ref = _curve_cursive;
}
);
width = 510;
},
{
layerId = m004;
name = Regular;
shapes = (
{
closed = 1;
nodes = (
(459,237,o),
(450,242,o),
(450,260,c),
(448,258,l),
(58,258,l),
(58,226,l),
(457,225,l)
);
},
{
pos = (6,8);
ref = _o_curve;
},
{
closed = 1;
nodes = (
(360,487,o),
(440,419,o),
(430,253,c),
(457,226,l),
(465,414,o),
(397,517,o),
(254,517,c),
(254,487,l)
);
},
{
pos = (-10,1);
ref = _curve_cursive;
}
);
width = 497;
},
{
layerId = m005;
name = Regular;
shapes = (
{
closed = 1;
nodes = (
(468,237,o),
(466,266,o),
(464,285,c),
(405,295,l),
(133,295,l),
(133,217,l),
(464,217,l)
);
},
{
pos = (6,1);
ref = _o_curve;
},
{
closed = 1;
nodes = (
(329,356,o),
(353,323,o),
(373,287,c),
(466,216,l),
(494,414,o),
(380,517,o),
(257,517,c),
(257,356,l)
);
},
{
pos = (-10,1);
ref = _curve_cursive;
}
);
width = 500;
},
{
layerId = m006;
name = Regular;
shapes = (
{
closed = 1;
nodes = (
(459,237,o),
(450,242,o),
(450,260,c),
(448,258,l),
(58,258,l),
(58,226,l),
(457,225,l)
);
},
{
pos = (6,8);
ref = _o_curve;
},
{
closed = 1;
nodes = (
(360,487,o),
(440,419,o),
(430,253,c),
(457,226,l),
(465,414,o),
(397,517,o),
(254,517,c),
(254,487,l)
);
},
{
pos = (-10,1);
ref = _curve_cursive;
}
);
width = 500;
}
);
unicode = 101;
},
{
glyphname = g;
kernLeft = e;
lastChange = "2024-02-29 13:55:03 +0000";
layers = (
{
layerId = "7EBE3D46-E53E-419E-A3EC-596DA2EA1E0D";
name = Regular;
shapes = (
{
closed = 1;
nodes = (
(500,342,l),
(505,382,o),
(507,463,o),
(498,510,c),
(276,510,l),
(230,510,o),
(270,419,o),
(292,370,c)
);
},
{
closed = 1;
nodes = (
(421,-251,o),
(532,-192,o),
(532,-50,c),
(532,61,o),
(426,140,o),
(277,140,c),
(171,140,o),
(181,162,o),
(200,187,c),
(205,218,l),
(139,243,l),
(86,202,o),
(75,95,o),
(144,71,c),
(79,65,o),
(30,1,o),
(30,-77,c),
(31,-165,o),
(90,-251,o),
(273,-251,c),
(299,-251,l)
);
},
{
closed = 1;
nodes = (
(284,-125,l),
(172,-125,o),
(143,-100,o),
(143,-60,cs),
(143,-27,o),
(176,0,o),
(284,0,c),
(287,0,l),
(393,0,o),
(419,-26,o),
(419,-59,cs),
(419,-100,o),
(399,-125,o),
(287,-125,c)
);
},
{
closed = 1;
nodes = (
(484,356,o),
(370,368,o),
(297,370,c),
(288,510,l),
(268,510,l),
(127,510,o),
(64,433,o),
(64,336,c),
(64,335,ls),
(64,231,o),
(137,175,o),
(268,175,c),
(272,175,l),
(274,175,o),
(275,175,o),
(277,175,c),
(281,175,l),
(422,175,o),
(484,215,o),
(484,270,c)
);
},
{
closed = 1;
nodes = (
(275,275,l),
(275,275,o),
(275,275,o),
(275,275,c),
(269,275,l),
(194,275,o),
(177,294,o),
(177,314,c),
(177,332,o),
(194,350,o),
(269,350,c),
(275,350,l),
(275,350,o),
(275,350,o),
(275,350,c),
(280,350,l),
(355,350,o),
(371,330,o),
(371,314,c),
(371,294,o),
(355,275,o),
(280,275,c)
);
}
);
width = 562;
},
{
layerId = m002;
name = Regular;
shapes = (
{
closed = 1;
nodes = (
(464,479,l),
(463,489,o),
(463,500,o),
(462,510,c),
(297,510,l),
(251,510,o),
(246,503,o),
(282,493,c)
);
},
{
closed = 1;
nodes = (
(396,-251,o),
(507,-215,o),
(507,-114,c),
(507,-19,o),
(422,29,o),
(263,29,cs),
(82,29,o),
(103,132,o),
(122,157,c),
(129,165,l),
(107,175,l),
(51,125,o),
(106,28,o),
(179,16,c),
(114,10,o),
(25,-20,o),
(25,-118,c),
(26,-206,o),
(112,-251,o),
(239,-251,c),
(284,-251,l)
);
},
{
closed = 1;
nodes = (
(258,-224,l),
(107,-224,o),
(46,-176,o),
(44,-118,c),
(46,-45,o),
(115,0,o),
(258,0,c),
(264,0,l),
(403,0,o),
(486,-37,o),
(487,-115,c),
(486,-180,o),
(414,-224,o),
(264,-224,c)
);
},
{
closed = 1;
nodes = (
(469,434,o),
(384,476,o),
(316,488,c),
(307,510,l),
(253,510,l),
(112,510,o),
(49,426,o),
(49,313,c),
(49,312,l),
(53,191,o),
(122,115,o),
(253,115,c),
(257,115,l),
(259,115,o),
(260,115,o),
(262,115,c),
(266,115,l),
(397,115,o),
(469,202,o),
(469,303,c)
);
},
{
closed = 1;
nodes = (
(260,148,l),
(260,148,o),
(260,148,o),
(260,148,c),
(254,148,l),
(179,148,o),
(71,181,o),
(71,312,cs),
(71,441,o),
(164,480,o),
(259,480,c),
(265,480,l),
(265,480,o),
(265,480,o),
(265,480,c),
(270,480,l),
(345,480,o),
(448,429,o),
(448,305,cs),
(448,191,o),
(340,148,o),
(265,148,c)
);
}
);
width = 520;
},
{
layerId = m003;
name = Regular;
shapes = (
{
closed = 1;
nodes = (
(500,342,l),
(505,382,o),
(507,463,o),
(498,510,c),
(276,510,l),
(230,510,o),
(270,419,o),
(292,370,c)
);
},
{
closed = 1;
nodes = (
(421,-251,o),
(532,-192,o),
(532,-50,c),
(532,61,o),
(416,140,o),
(267,140,c),
(121,140,o),
(131,182,o),
(150,207,c),
(165,218,l),
(139,243,l),
(86,202,o),
(75,95,o),
(144,71,c),
(79,65,o),
(30,1,o),
(30,-77,c),
(31,-165,o),
(90,-251,o),
(273,-251,c),
(299,-251,l)
);
},
{
closed = 1;
nodes = (
(284,-125,l),
(132,-125,o),
(73,-100,o),
(73,-60,cs),
(73,-27,o),
(136,0,o),
(284,0,c),
(287,0,l),
(443,0,o),
(499,-26,o),
(499,-59,cs),
(499,-100,o),
(449,-125,o),
(287,-125,c)
);
},
{
closed = 1;
nodes = (
(484,366,o),
(370,398,o),
(297,400,c),
(288,510,l),
(268,510,l),
(127,510,o),
(64,433,o),
(64,336,c),
(64,335,ls),
(64,231,o),
(137,175,o),
(268,175,c),
(272,175,l),
(274,175,o),
(275,175,o),
(277,175,c),
(281,175,l),
(422,175,o),
(484,225,o),
(484,280,c)
);
},
{
closed = 1;
nodes = (
(275,265,l),
(275,265,o),
(275,265,o),
(275,265,c),
(269,265,l),
(134,265,o),
(117,294,o),
(117,314,c),
(117,332,o),
(134,350,o),
(269,350,c),
(275,350,l),
(275,350,o),
(275,350,o),
(275,350,c),
(280,350,l),
(405,350,o),
(431,330,o),
(431,314,c),
(431,294,o),
(405,265,o),
(280,265,c)
);
}
);
width = 562;
},
{
layerId = m004;
name = Regular;
shapes = (
{
closed = 1;
nodes = (
(464,479,l),
(463,489,o),
(463,500,o),
(462,510,c),
(297,510,l),
(251,510,o),
(246,503,o),
(282,493,c)
);
},
{
closed = 1;
nodes = (
(396,-251,o),
(507,-215,o),
(507,-114,c),
(507,-19,o),
(422,29,o),
(263,29,cs),
(82,29,o),
(103,132,o),
(122,157,c),
(129,165,l),
(107,175,l),
(51,125,o),
(106,28,o),
(179,16,c),
(114,10,o),
(25,-20,o),
(25,-118,c),
(26,-206,o),
(112,-251,o),
(239,-251,c),
(284,-251,l)
);
},
{
closed = 1;
nodes = (
(258,-224,l),
(107,-224,o),
(46,-176,o),
(44,-118,c),
(46,-45,o),
(115,0,o),
(258,0,c),
(264,0,l),
(403,0,o),
(486,-37,o),
(487,-115,c),
(486,-180,o),
(414,-224,o),
(264,-224,c)
);
},
{
closed = 1;
nodes = (
(469,434,o),
(384,476,o),
(316,488,c),
(307,510,l),
(253,510,l),
(112,510,o),
(49,426,o),
(49,313,c),
(49,312,l),
(53,191,o),
(122,115,o),
(253,115,c),
(257,115,l),
(259,115,o),
(260,115,o),
(262,115,c),
(266,115,l),
(397,115,o),
(469,202,o),
(469,303,c)
);
},
{
closed = 1;
nodes = (
(260,148,l),
(260,148,o),
(260,148,o),
(260,148,c),
(254,148,l),
(179,148,o),
(71,181,o),
(71,312,cs),
(71,441,o),
(164,480,o),
(259,480,c),
(265,480,l),
(265,480,o),
(265,480,o),
(265,480,c),
(270,480,l),
(345,480,o),
(448,429,o),
(448,305,cs),
(448,191,o),
(340,148,o),
(265,148,c)
);
}
);
width = 520;
},
{
layerId = m005;
name = Regular;
shapes = (
{
closed = 1;
nodes = (
(460,342,l),
(465,382,o),
(467,463,o),
(458,510,c),
(236,510,l),
(190,510,o),
(230,419,o),
(252,370,c)
);
},
{
closed = 1;
nodes = (
(381,-251,o),
(492,-192,o),
(492,-50,c),
(492,61,o),
(386,140,o),
(237,140,c),
(131,140,o),
(141,162,o),
(160,187,c),
(165,218,l),
(99,243,l),
(46,202,o),
(35,95,o),
(104,71,c),
(39,65,o),
(-10,1,o),
(-10,-77,c),
(-9,-165,o),
(50,-251,o),
(233,-251,c),
(259,-251,l)
);
},
{
closed = 1;
nodes = (
(244,-125,l),
(132,-125,o),
(103,-100,o),
(103,-60,cs),
(103,-27,o),
(136,0,o),
(244,0,c),
(247,0,l),
(353,0,o),
(379,-26,o),
(379,-59,cs),
(379,-100,o),
(359,-125,o),
(247,-125,c)
);
},
{
closed = 1;
nodes = (
(444,356,o),
(330,368,o),
(257,370,c),
(248,510,l),
(228,510,l),
(87,510,o),
(24,433,o),
(24,336,c),
(24,335,ls),
(24,231,o),
(97,175,o),
(228,175,c),
(232,175,l),
(234,175,o),
(235,175,o),
(237,175,c),
(241,175,l),
(382,175,o),
(444,215,o),
(444,270,c)
);
},
{
closed = 1;
nodes = (
(235,275,l),
(235,275,o),
(235,275,o),
(235,275,c),
(229,275,l),
(154,275,o),
(137,294,o),
(137,314,c),
(137,332,o),
(154,350,o),
(229,350,c),
(235,350,l),
(235,350,o),
(235,350,o),
(235,350,c),
(240,350,l),
(315,350,o),
(331,330,o),
(331,314,c),
(331,294,o),
(315,275,o),
(240,275,c)
);
}
);
width = 500;
},
{
layerId = m006;
name = Regular;
shapes = (
{
closed = 1;
nodes = (
(464,479,l),
(463,489,o),
(463,500,o),
(462,510,c),
(297,510,l),
(251,510,o),
(246,503,o),
(282,493,c)
);
},
{
closed = 1;
nodes = (
(396,-251,o),
(507,-215,o),
(507,-114,c),
(507,-19,o),
(422,29,o),
(263,29,cs),
(82,29,o),
(103,132,o),
(122,157,c),
(129,165,l),
(107,175,l),
(51,125,o),
(106,28,o),
(179,16,c),
(114,10,o),
(25,-20,o),
(25,-118,c),
(26,-206,o),
(112,-251,o),
(239,-251,c),
(284,-251,l)
);
},
{
closed = 1;
nodes = (
(258,-224,l),
(107,-224,o),
(46,-176,o),
(44,-118,c),
(46,-45,o),
(115,0,o),
(258,0,c),
(264,0,l),
(403,0,o),
(486,-37,o),
(487,-115,c),
(486,-180,o),
(414,-224,o),
(264,-224,c)
);
},
{
closed = 1;
nodes = (
(469,434,o),
(384,476,o),
(316,488,c),
(307,510,l),
(253,510,l),
(112,510,o),
(49,426,o),
(49,313,c),
(49,312,l),
(53,191,o),
(122,115,o),
(253,115,c),
(257,115,l),
(259,115,o),
(260,115,o),
(262,115,c),
(266,115,l),
(397,115,o),
(469,202,o),
(469,303,c)
);
},
{
closed = 1;
nodes = (
(260,148,l),
(260,148,o),
(260,148,o),
(260,148,c),
(254,148,l),
(179,148,o),
(71,181,o),
(71,312,cs),
(71,441,o),
(164,480,o),
(259,480,c),
(265,480,l),
(265,480,o),
(265,480,o),
(265,480,c),
(270,480,l),
(345,480,o),
(448,429,o),
(448,305,cs),
(448,191,o),
(340,148,o),
(265,148,c)
);
}
);
width = 500;
}
);
unicode = 103;
},
{
glyphname = k;
kernLeft = h;
kernRight = v;
lastChange = "2024-03-05 16:12:40 +0000";
layers = (
{
layerId = "7EBE3D46-E53E-419E-A3EC-596DA2EA1E0D";
name = Regular;
shapes = (
{
pos = (30,0);
ref = _I_dbh;
},
{
closed = 1;
nodes = (
(422,328,o),
(446,414,o),
(533,510,c),
(486,519,o),
(421,519,o),
(340,510,c),
(233,401,o),
(186,248,o),
(186,224,cs),
(186,201,o),
(296,102,o),
(340,0,c),
(408,-10,o),
(473,-9,o),
(533,0,c),
(444,133,o),
(422,178,o),
(304,256,c)
);
},
{
pos = (30,573);
ref = _I_small;
},
{
angle = 180;
pos = (552,757);
ref = _u_r;
}
);
width = 543;
},
{
layerId = m002;
name = Regular;
shapes = (
{
pos = (-58,0);
ref = _I_dbh;
},
{
closed = 1;
nodes = (
(210,342,o),
(307,426,o),
(415,510,c),
(398,511,o),
(381,512,o),
(362,510,c),
(257,429,o),
(167,332,o),
(89,244,c),
(203,160,o),
(304,85,o),
(372,0,c),
(390,-3,o),
(397,-2,o),
(415,0,c),
(346,87,o),
(251,172,o),
(127,256,c)
);
},
{
pos = (-58,532);
ref = _I_small;
},
{
angle = 180;
pos = (527,730);
ref = _u_r;
}
);
width = 445;
},
{
layerId = m003;
name = Regular;
shapes = (
{
pos = (36,0);
ref = _I_dbh;
},
{
closed = 1;
nodes = (
(277,341,o),
(344,455,o),
(419,510,c),
(392,518,o),
(327,518,o),
(286,510,c),
(228,441,o),
(112,278,o),
(112,254,cs),
(112,231,o),
(162,112,o),
(296,0,c),
(364,-10,o),
(419,-9,o),
(479,0,c),
(335,107,o),
(294,233,o),
(190,286,c)
);
},
{
pos = (-50,573);
ref = _I_small;
},
{
angle = 180;
pos = (548,758);
ref = _u_r;
}
);
width = 499;
},
{
layerId = m004;
name = Regular;
shapes = (
{
pos = (-58,0);
ref = _I_dbh;
},
{
closed = 1;
nodes = (
(210,346,o),
(307,426,o),
(415,510,c),
(398,511,o),
(381,512,o),
(362,510,c),
(257,429,o),
(167,332,o),
(89,244,c),
(193,170,o),
(284,95,o),
(362,0,c),
(380,-3,o),
(397,-2,o),
(415,0,c),
(336,97,o),
(241,186,o),
(127,260,c)
);
},
{
pos = (-58,532);
ref = _I_small;
},
{
angle = 180;
pos = (527,730);
ref = _u_r;
}
);
width = 445;
},
{
layerId = m005;
name = Regular;
shapes = (
{
pos = (30,-10);
ref = _I_dbh;
},
{
closed = 1;
nodes = (
(382,338,o),
(406,414,o),
(493,510,c),
(446,519,o),
(381,519,o),
(300,510,c),
(243,441,o),
(180,252,o),
(196,234,cs),
(226,201,o),
(256,102,o),
(310,0,c),
(378,-10,o),
(443,-9,o),
(503,0,c),
(434,103,o),
(382,228,o),
(274,266,c)
);
},
{
pos = (30,563);
ref = _I_small;
},
{
angle = 180;
pos = (542,747);
ref = _u_r;
}
);
width = 500;
},
{
layerId = m006;
name = Regular;
shapes = (
{
pos = (-18,0);
ref = _I_dbh;
},
{
closed = 1;
nodes = (
(248,342,o),
(357,426,o),
(465,510,c),
(448,511,o),
(431,512,o),
(412,510,c),
(307,429,o),
(205,332,o),
(127,244,c),
(231,150,o),
(334,75,o),
(412,0,c),
(430,-3,o),
(447,-2,o),
(465,0,c),
(386,77,o),
(279,162,o),
(165,256,c)
);
},
{
pos = (-17,431);
ref = _I_small;
},
{
angle = 180;
pos = (568,630);
ref = _u_r;
}
);
width = 500;
}
);
unicode = 107;
},
{
glyphname = m;
kernLeft = n;
kernRight = n;
lastChange = "2024-03-02 13:45:07 +0000";
layers = (
{
layerId = "7EBE3D46-E53E-419E-A3EC-596DA2EA1E0D";
name = Regular;
shapes = (
{
closed = 1;
nodes = (
(234,522,o),
(137,429,o),
(128,307,c),
(171,256,l),
(172,347,o),
(220,361,o),
(285,361,c),
(349,361,o),
(353,301,o),
(353,220,c),
(353,1,ls),
(496,1,l),
(496,225,l),
(494,410,o),
(447,522,o),
(313,522,c)
);
},
{
closed = 1;
nodes = (
(518,522,o),
(421,479,o),
(412,348,c),
(455,247,l),
(456,338,o),
(504,361,o),
(569,361,c),
(633,361,o),
(637,301,o),
(637,220,c),
(637,1,ls),
(780,1,l),
(780,295,l),
(778,440,o),
(721,522,o),
(587,522,c)
);
},
{
alignment = -1;
pos = (30,186);
ref = _I_small;
},
{
alignment = -1;
pos = (30,20);
ref = _I_small;
},
{
angle = 180;
pos = (538,510);
ref = _u_r;
}
);
width = 840;
},
{
layerId = m002;
name = Regular;
shapes = (
{
closed = 1;
nodes = (
(126,511,o),
(92,445,o),
(62,359,c),
(79,364,l),
(110,435,o),
(151,480,o),
(206,480,c),
(288,480,o),
(315,406,o),
(315,279,c),
(315,0,ls),
(342,0,l),
(342,290,l),
(340,405,o),
(309,511,o),
(205,511,c)
);
},
{
closed = 1;
nodes = (
(400,511,o),
(348,451,o),
(315,373,c),
(331,346,l),
(352,397,o),
(399,480,o),
(461,480,c),
(537,480,o),
(577,441,o),
(577,300,c),
(577,1,ls),
(604,1,l),
(604,301,l),
(602,466,o),
(563,511,o),
(469,511,c)
);
},
{
alignment = -1;
pos = (-68,186);
ref = _I_small;
},
{
alignment = -1;
pos = (-68,20);
ref = _I_small;
},
{
angle = 180;
pos = (516,510);
ref = _u_r;
}
);
width = 664;
},
{
layerId = m003;
name = Regular;
shapes = (
{
closed = 1;
nodes = (
(145,513,o),
(98,399,o),
(89,367,c),
(92,296,l),
(113,327,o),
(161,361,o),
(236,361,c),
(330,361,o),
(374,301,o),
(374,220,c),
(374,1,ls),
(417,1,l),
(417,225,l),
(415,380,o),
(378,513,o),
(244,513,c)
);
},
{
closed = 1;
nodes = (
(459,513,o),
(429,429,o),
(390,357,c),
(393,286,l),
(434,337,o),
(465,361,o),
(540,361,c),
(634,361,o),
(678,301,o),
(678,220,c),
(678,1,ls),
(721,1,l),
(721,295,l),
(719,440,o),
(662,513,o),
(558,513,c)
);
},
{
alignment = -1;
pos = (-50,186);
ref = _I_small;
},
{
alignment = -1;
pos = (-50,20);
ref = _I_small;
},
{
angle = 180;
pos = (548,510);
ref = _u_r;
}
);
width = 781;
},
{
layerId = m004;
name = Regular;
shapes = (
{
closed = 1;
nodes = (
(126,511,o),
(90,445,o),
(70,369,c),
(85,376,l),
(106,427,o),
(141,480,o),
(196,480,c),
(290,480,o),
(315,406,o),
(315,279,c),
(315,0,ls),
(342,0,l),
(342,290,l),
(340,405,o),
(320,512,o),
(205,511,c)
);
},
{
closed = 1;
nodes = (
(390,511,o),
(333,427,o),
(315,373,c),
(331,346,l),
(341,369,o),
(389,480,o),
(461,480,c),
(537,480,o),
(577,441,o),
(577,300,c),
(577,1,ls),
(604,1,l),
(604,301,l),
(602,466,o),
(563,511,o),
(469,511,c)
);
},
{
alignment = -1;
pos = (-68,186);
ref = _I_small;
},
{
alignment = -1;
pos = (-68,20);
ref = _I_small;
},
{
angle = 180;
pos = (516,510);
ref = _u_r;
}
);
width = 664;
},
{
layerId = m005;
name = Regular;
shapes = (
{
closed = 1;
nodes = (
(191,525,o),
(124,482,o),
(115,360,c),
(118,289,l),
(121,330,o),
(135,364,o),
(160,364,c),
(184,364,o),
(190,344,o),
(190,303,c),
(190,4,ls),
(333,4,l),
(333,228,l),
(331,413,o),
(314,525,o),
(240,525,c)
);
},
{
closed = 1;
nodes = (
(358,525,o),
(261,502,o),
(252,381,c),
(255,270,l),
(266,301,o),
(294,364,o),
(319,364,c),
(343,364,o),
(347,354,o),
(347,303,c),
(347,4,ls),
(490,4,l),
(490,298,l),
(488,443,o),
(471,525,o),
(387,525,c)
);
},
{
alignment = -1;
pos = (-10,196);
ref = _I_small;
},
{
alignment = -1;
pos = (-10,20);
ref = _I_small;
},
{
angle = 180;
pos = (498,510);
ref = _u_r;
}
);
width = 500;
},
{
layerId = m006;
name = Regular;
shapes = (
{
closed = 1;
nodes = (
(86,511,o),
(62,445,o),
(32,359,c),
(49,364,l),
(80,435,o),
(111,480,o),
(166,480,c),
(208,480,o),
(235,406,o),
(235,279,c),
(235,0,ls),
(262,0,l),
(262,290,l),
(260,405,o),
(229,511,o),
(165,511,c)
);
},
{
closed = 1;
nodes = (
(310,511,o),
(268,451,o),
(235,373,c),
(251,346,l),
(272,397,o),
(309,480,o),
(371,480,c),
(407,480,o),
(447,441,o),
(447,300,c),
(447,1,ls),
(474,1,l),
(474,301,l),
(472,466,o),
(433,511,o),
(379,511,c)
);
},
{
alignment = -1;
pos = (-99,186);
ref = _I_small;
},
{
alignment = -1;
pos = (-99,20);
ref = _I_small;
},
{
angle = 180;
pos = (485,510);
ref = _u_r;
}
);
width = 500;
}
);
unicode = 109;
},
{
glyphname = r;
kernLeft = i;
kernRight = f;
lastChange = "2024-03-02 13:28:56 +0000";
layers = (
{
layerId = "7EBE3D46-E53E-419E-A3EC-596DA2EA1E0D";
name = Regular;
shapes = (
{
alignment = -1;
angle = 180;
pos = (245,317);
ref = _I_small;
},
{
alignment = -1;
angle = 180;
pos = (245,188);
ref = _I_small;
},
{
angle = 180;
pos = (538,508);
ref = _u_r;
},
{
closed = 1;
nodes = (
(457,376,o),
(460,447,o),
(456,498,c),
(406,518,o),
(335,527,o),
(297,510,cs),
(193,463,o),
(192,373,o),
(181,303,c),
(171,271,l),
(215,165,l),
(215,257,o),
(250,347,o),
(330,358,cs),
(367,363,o),
(426,344,o),
(453,329,c)
);
}
);
width = 488;
},
{
hints = (
{
horizontal = 1;
place = (420, 80);
place = (420, 80);
type = Stem;
}
);
layerId = m002;
name = Regular;
shapes = (
{
alignment = -1;
angle = 180;
pos = (215,317);
ref = _I_small;
},
{
alignment = -1;
angle = 180;
pos = (215,198);
ref = _I_small;
},
{
angle = 180;
pos = (516,509);
ref = _u_r;
},
{
closed = 1;
nodes = (
(346,477,o),
(346,492,o),
(345,504,c),
(314,510,o),
(286,515,o),
(260,515,c),
(161,515,o),
(85,450,o),
(74,332,c),
(63,230,l),
(87,278,l),
(87,393,o),
(133,481,o),
(264,481,cs),
(278,481,o),
(311,478,o),
(345,469,c)
);
}
);
width = 376;
},
{
layerId = m003;
name = Regular;
shapes = (
{
alignment = -1;
angle = 180;
pos = (225,317);
ref = _I_small;
},
{
alignment = -1;
angle = 180;
pos = (225,188);
ref = _I_small;
},
{
angle = 180;
pos = (548,508);
ref = _u_r;
},
{
closed = 1;
nodes = (
(350,376,o),
(356,457,o),
(356,498,c),
(306,518,o),
(254,532,o),
(207,514,cs),
(130,485,o),
(109,353,o),
(98,283,c),
(91,271,l),
(115,165,l),
(115,257,o),
(140,350,o),
(220,358,cs),
(267,363,o),
(316,344,o),
(343,329,c)
);
}
);
width = 386;
},
{
hints = (
{
horizontal = 1;
place = (420, 80);
place = (420, 80);
type = Stem;
}
);
layerId = m004;
name = Regular;
shapes = (
{
alignment = -1;
angle = 180;
pos = (215,317);
ref = _I_small;
},
{
alignment = -1;
angle = 180;
pos = (215,198);
ref = _I_small;
},
{
angle = 180;
pos = (516,509);
ref = _u_r;
},
{
closed = 1;
nodes = (
(346,477,o),
(346,492,o),
(345,504,c),
(314,510,o),
(286,515,o),
(260,515,c),
(161,515,o),
(85,450,o),
(74,332,c),
(63,230,l),
(87,278,l),
(87,393,o),
(133,481,o),
(264,481,cs),
(278,481,o),
(311,478,o),
(345,469,c)
);
}
);
width = 376;
},
{
layerId = m005;
name = Regular;
shapes = (
{
alignment = -1;
angle = 180;
pos = (245,357);
ref = _I_small;
},
{
alignment = -1;
angle = 180;
pos = (245,188);
ref = _I_small;
},
{
angle = 180;
pos = (538,508);
ref = _u_r;
},
{
closed = 1;
nodes = (
(457,376,o),
(460,447,o),
(456,498,c),
(406,518,o),
(335,527,o),
(297,510,cs),
(193,463,o),
(192,373,o),
(181,303,c),
(171,271,l),
(215,165,l),
(215,257,o),
(250,347,o),
(330,358,cs),
(367,363,o),
(426,344,o),
(453,329,c)
);
}
);
width = 500;
},
{
hints = (
{
horizontal = 1;
place = (420, 80);
place = (420, 80);
type = Stem;
}
);
layerId = m006;
name = Regular;
shapes = (
{
alignment = -1;
angle = 180;
pos = (315,317);
ref = _I_small;
},
{
alignment = -1;
angle = 180;
pos = (315,198);
ref = _I_small;
},
{
angle = 180;
pos = (616,509);
ref = _u_r;
},
{
closed = 1;
nodes = (
(446,477,o),
(446,492,o),
(445,504,c),
(414,510,o),
(386,515,o),
(360,515,c),
(261,515,o),
(185,450,o),
(174,332,c),
(163,230,l),
(187,278,l),
(187,393,o),
(233,481,o),
(364,481,cs),
(378,481,o),
(411,478,o),
(445,469,c)
);
}
);
width = 500;
}
);
unicode = 114;
},
{
glyphname = s;
kernLeft = e;
kernRight = e;
lastChange = "2024-02-24 08:56:54 +0000";
layers = (
{
background = {
shapes = (
{
closed = 1;
nodes = (
(157,82,o),
(123,101,o),
(84,136,c),
(42,58,l),
(80,22,o),
(121,-7,o),
(213,-7,cs),
(325,-7,o),
(396,52,o),
(396,139,cs),
(396,231,o),
(331,267,o),
(228,297,cs),
(174,313,o),
(145,329,o),
(145,367,cs),
(145,405,o),
(179,416,o),
(219,416,cs),
(261,416,o),
(285,506,o),
(216,506,cs),
(118,506,o),
(48,458,o),
(48,376,cs),
(48,257,o),
(150,233,o),
(222,212,cs),
(282,194,o),
(305,176,o),
(305,143,cs),
(305,98,o),
(254,82,o),
(210,82,cs)
);
}
);
};
layerId = "7EBE3D46-E53E-419E-A3EC-596DA2EA1E0D";
name = Regular;
shapes = (
{
closed = 1;
nodes = (
(251,302,ls),
(222,313,o),
(211,318,o),
(211,332,cs),
(211,347,o),
(224,348,o),
(249,348,cs),
(281,348,o),
(343,333,o),
(385,314,c),
(398,360,o),
(415,444,o),
(415,483,c),
(348,503,o),
(302,514,o),
(238,514,cs),
(110,514,o),
(50,452,o),
(50,399,cs),
(50,298,o),
(105,265,o),
(199,227,cs),
(270,198,o),
(275,188,o),
(275,175,cs),
(275,162,o),
(265,158,o),
(230,158,cs),
(194,158,o),
(106,184,o),
(85,196,c),
(71,158,o),
(53,70,o),
(52,35,c),
(119,10,o),
(183,-4,o),
(247,-4,cs),
(355,-4,o),
(436,46,o),
(436,144,cs),
(436,219,o),
(376,256,o),
(300,284,cs)
);
}
);
width = 476;
},
{
background = {
shapes = (
{
closed = 1;
nodes = (
(158,82,o),
(124,101,o),
(85,136,c),
(43,58,l),
(81,22,o),
(122,-7,o),
(214,-7,cs),
(326,-7,o),
(397,52,o),
(397,139,cs),
(397,231,o),
(332,267,o),
(229,297,cs),
(175,313,o),
(146,329,o),
(146,367,cs),
(146,405,o),
(180,416,o),
(220,416,cs),
(262,416,o),
(286,506,o),
(217,506,cs),
(119,506,o),
(49,458,o),
(49,376,cs),
(49,257,o),
(151,233,o),
(223,212,cs),
(283,194,o),
(306,176,o),
(306,143,cs),
(306,98,o),
(255,82,o),
(211,82,cs)
);
}
);
};
layerId = m002;
name = Regular;
shapes = (
{
closed = 1;
nodes = (
(203,283,ls),
(174,291,o),
(84,305,o),
(84,377,cs),
(84,441,o),
(131,480,o),
(232,480,cs),
(273,480,o),
(361,465,o),
(403,456,c),
(404,466,o),
(404,479,o),
(404,491,c),
(347,502,o),
(293,510,o),
(229,510,cs),
(105,510,o),
(51,457,o),
(51,376,cs),
(51,296,o),
(108,280,o),
(205,251,cs),
(285,227,o),
(405,215,o),
(405,124,cs),
(405,55,o),
(327,34,o),
(239,34,cs),
(153,34,o),
(107,47,o),
(62,62,c),
(60,50,o),
(59,37,o),
(60,27,c),
(106,8,o),
(176,0,o),
(260,0,cs),
(338,0,o),
(437,29,o),
(437,124,cs),
(437,222,o),
(348,243,o),
(272,264,cs)
);
}
);
width = 477;
},
{
background = {
shapes = (
{
closed = 1;
nodes = (
(157,82,o),
(123,101,o),
(84,136,c),
(42,58,l),
(80,22,o),
(121,-7,o),
(213,-7,cs),
(325,-7,o),
(396,52,o),
(396,139,cs),
(396,231,o),
(331,267,o),
(228,297,cs),
(174,313,o),
(145,329,o),
(145,367,cs),
(145,405,o),
(179,416,o),
(219,416,cs),
(261,416,o),
(285,506,o),
(216,506,cs),
(118,506,o),
(48,458,o),
(48,376,cs),
(48,257,o),
(150,233,o),
(222,212,cs),
(282,194,o),
(305,176,o),
(305,143,cs),
(305,98,o),
(254,82,o),
(210,82,cs)
);
}
);
};
layerId = m003;
name = Regular;
shapes = (
{
closed = 1;
nodes = (
(201,296,ls),
(173,304,o),
(121,316,o),
(121,340,cs),
(121,353,o),
(134,361,o),
(179,360,cs),
(251,358,o),
(343,333,o),
(385,314,c),
(398,360,o),
(415,444,o),
(415,483,c),
(348,503,o),
(302,514,o),
(238,514,cs),
(110,514,o),
(50,472,o),
(50,372,cs),
(50,288,o),
(141,264,o),
(239,237,cs),
(318,215,o),
(354,204,o),
(355,177,cs),
(356,159,o),
(335,147,o),
(280,148,cs),
(204,149,o),
(106,184,o),
(85,196,c),
(71,158,o),
(53,70,o),
(52,35,c),
(119,10,o),
(183,-4,o),
(247,-4,cs),
(355,-4,o),
(436,46,o),
(436,128,cs),
(436,219,o),
(377,246,o),
(300,268,cs)
);
}
);
width = 476;
},
{
background = {
shapes = (
{
closed = 1;
nodes = (
(158,82,o),
(124,101,o),
(85,136,c),
(43,58,l),
(81,22,o),
(122,-7,o),
(214,-7,cs),
(326,-7,o),
(397,52,o),
(397,139,cs),
(397,231,o),
(332,267,o),
(229,297,cs),
(175,313,o),
(146,329,o),
(146,367,cs),
(146,405,o),
(180,416,o),
(220,416,cs),
(262,416,o),
(286,506,o),
(217,506,cs),
(119,506,o),
(49,458,o),
(49,376,cs),
(49,257,o),
(151,233,o),
(223,212,cs),
(283,194,o),
(306,176,o),
(306,143,cs),
(306,98,o),
(255,82,o),
(211,82,cs)
);
}
);
};
layerId = m004;
name = Regular;
shapes = (
{
closed = 1;
nodes = (
(203,283,ls),
(174,291,o),
(84,305,o),
(84,377,cs),
(84,441,o),
(131,480,o),
(232,480,cs),
(273,480,o),
(361,465,o),
(403,456,c),
(404,466,o),
(404,479,o),
(404,491,c),
(347,502,o),
(293,510,o),
(229,510,cs),
(105,510,o),
(51,457,o),
(51,376,cs),
(51,296,o),
(108,280,o),
(205,251,cs),
(285,227,o),
(405,215,o),
(405,124,cs),
(405,55,o),
(327,34,o),
(239,34,cs),
(153,34,o),
(107,47,o),
(62,62,c),
(60,50,o),
(59,37,o),
(60,27,c),
(106,8,o),
(176,0,o),
(260,0,cs),
(338,0,o),
(437,29,o),
(437,124,cs),
(437,222,o),
(348,243,o),
(272,264,cs)
);
}
);
width = 477;
},
{
background = {
shapes = (
{
closed = 1;
nodes = (
(157,82,o),
(123,101,o),
(84,136,c),
(42,58,l),
(80,22,o),
(121,-7,o),
(213,-7,cs),
(325,-7,o),
(396,52,o),
(396,139,cs),
(396,231,o),
(331,267,o),
(228,297,cs),
(174,313,o),
(145,329,o),
(145,367,cs),
(145,405,o),
(179,416,o),
(219,416,cs),
(261,416,o),
(285,506,o),
(216,506,cs),
(118,506,o),
(48,458,o),
(48,376,cs),
(48,257,o),
(150,233,o),
(222,212,cs),
(282,194,o),
(305,176,o),
(305,143,cs),
(305,98,o),
(254,82,o),
(210,82,cs)
);
}
);
};
layerId = m005;
name = Regular;
shapes = (
{
closed = 1;
nodes = (
(251,302,ls),
(222,313,o),
(211,318,o),
(211,332,cs),
(211,347,o),
(224,348,o),
(249,348,cs),
(281,348,o),
(343,333,o),
(385,314,c),
(398,360,o),
(415,444,o),
(415,483,c),
(348,503,o),
(302,514,o),
(238,514,cs),
(110,514,o),
(50,452,o),
(50,399,cs),
(50,298,o),
(105,265,o),
(199,227,cs),
(270,198,o),
(275,188,o),
(275,175,cs),
(275,162,o),
(265,158,o),
(230,158,cs),
(194,158,o),
(106,184,o),
(85,196,c),
(71,158,o),
(53,70,o),
(52,35,c),
(119,10,o),
(183,-4,o),
(247,-4,cs),
(355,-4,o),
(436,46,o),
(436,144,cs),
(436,219,o),
(376,256,o),
(300,284,cs)
);
}
);
width = 500;
},
{
background = {
shapes = (
{
closed = 1;
nodes = (
(158,82,o),
(124,101,o),
(85,136,c),
(43,58,l),
(81,22,o),
(122,-7,o),
(214,-7,cs),
(326,-7,o),
(397,52,o),
(397,139,cs),
(397,231,o),
(332,267,o),
(229,297,cs),
(175,313,o),
(146,329,o),
(146,367,cs),
(146,405,o),
(180,416,o),
(220,416,cs),
(262,416,o),
(286,506,o),
(217,506,cs),
(119,506,o),
(49,458,o),
(49,376,cs),
(49,257,o),
(151,233,o),
(223,212,cs),
(283,194,o),
(306,176,o),
(306,143,cs),
(306,98,o),
(255,82,o),
(211,82,cs)
);
}
);
};
layerId = m006;
name = Regular;
shapes = (
{
closed = 1;
nodes = (
(203,283,ls),
(174,291,o),
(84,305,o),
(84,377,cs),
(84,441,o),
(131,480,o),
(232,480,cs),
(273,480,o),
(361,465,o),
(403,456,c),
(404,466,o),
(404,479,o),
(404,491,c),
(347,502,o),
(293,510,o),
(229,510,cs),
(105,510,o),
(51,457,o),
(51,376,cs),
(51,296,o),
(108,280,o),
(205,251,cs),
(285,227,o),
(405,215,o),
(405,124,cs),
(405,55,o),
(327,34,o),
(239,34,cs),
(153,34,o),
(107,47,o),
(62,62,c),
(60,50,o),
(59,37,o),
(60,27,c),
(106,8,o),
(176,0,o),
(260,0,cs),
(338,0,o),
(437,29,o),
(437,124,cs),
(437,222,o),
(348,243,o),
(272,264,cs)
);
}
);
width = 500;
}
);
unicode = 115;
},
{
glyphname = germandbls;
kernLeft = h;
kernRight = c;
lastChange = "2024-02-24 08:56:54 +0000";
layers = (
{
layerId = "7EBE3D46-E53E-419E-A3EC-596DA2EA1E0D";
name = Regular;
shapes = (
{
closed = 1;
nodes = (
(426,237,o),
(325,232,o),
(325,251,c),
(325,275,o),
(426,265,o),
(426,369,c),
(426,455,o),
(341,514,o),
(239,514,c),
(139,514,o),
(60,444,o),
(60,326,c),
(60,1,l),
(151,1,l),
(151,262,l),
(151,321,o),
(159,355,o),
(233,355,c),
(281,355,o),
(301,325,o),
(301,308,c),
(301,248,o),
(210,283,o),
(210,249,c),
(210,206,o),
(325,238,o),
(325,190,cs),
(325,168,o),
(303,159,o),
(264,157,c),
(239,157,o),
(230,158,o),
(200,162,c),
(199,2,l),
(211,0,o),
(243,-6,o),
(275,-6,c),
(385,-6,o),
(426,71,o),
(426,133,c)
);
}
);
width = 476;
},
{
layerId = m002;
name = Regular;
shapes = (
{
closed = 1;
nodes = (
(426,227,o),
(300,229,o),
(300,248,c),
(300,272,o),
(426,265,o),
(426,369,c),
(426,455,o),
(341,514,o),
(239,514,c),
(115,514,o),
(60,444,o),
(60,326,c),
(60,1,l),
(87,1,l),
(87,262,l),
(87,440,o),
(125,484,o),
(242,484,c),
(303,479,o),
(396,455,o),
(396,369,c),
(396,269,o),
(210,283,o),
(210,249,c),
(210,206,o),
(396,237,o),
(396,123,cs),
(396,31,o),
(303,28,o),
(264,26,c),
(239,26,o),
(230,27,o),
(200,31,c),
(199,2,l),
(211,0,o),
(243,-6,o),
(275,-6,c),
(385,-6,o),
(426,51,o),
(426,123,c)
);
}
);
width = 476;
},
{
layerId = m003;
name = Regular;
shapes = (
{
closed = 1;
nodes = (
(426,237,o),
(325,232,o),
(325,251,c),
(325,275,o),
(426,265,o),
(426,369,c),
(426,455,o),
(341,514,o),
(239,514,c),
(139,514,o),
(60,444,o),
(60,326,c),
(60,1,l),
(151,1,l),
(151,262,l),
(151,321,o),
(159,355,o),
(233,355,c),
(281,355,o),
(301,325,o),
(301,308,c),
(301,248,o),
(210,283,o),
(210,249,c),
(210,206,o),
(325,238,o),
(325,190,cs),
(325,168,o),
(303,159,o),
(264,157,c),
(239,157,o),
(230,158,o),
(200,162,c),
(199,2,l),
(211,0,o),
(243,-6,o),
(275,-6,c),
(385,-6,o),
(426,71,o),
(426,133,c)
);
}
);
width = 476;
},
{
layerId = m004;
name = Regular;
shapes = (
{
closed = 1;
nodes = (
(426,227,o),
(300,229,o),
(300,248,c),
(300,272,o),
(426,265,o),
(426,369,c),
(426,455,o),
(341,514,o),
(239,514,c),
(115,514,o),
(60,444,o),
(60,326,c),
(60,1,l),
(87,1,l),
(87,262,l),
(87,440,o),
(125,484,o),
(242,484,c),
(303,479,o),
(396,455,o),
(396,369,c),
(396,269,o),
(210,283,o),
(210,249,c),
(210,206,o),
(396,237,o),
(396,123,cs),
(396,31,o),
(303,28,o),
(264,26,c),
(239,26,o),
(230,27,o),
(200,31,c),
(199,2,l),
(211,0,o),
(243,-6,o),
(275,-6,c),
(385,-6,o),
(426,51,o),
(426,123,c)
);
}
);
width = 476;
},
{
layerId = m005;
name = Regular;
shapes = (
{
closed = 1;
nodes = (
(426,237,o),
(325,232,o),
(325,251,c),
(325,275,o),
(426,265,o),
(426,369,c),
(426,455,o),
(341,514,o),
(239,514,c),
(139,514,o),
(60,444,o),
(60,326,c),
(60,1,l),
(151,1,l),
(151,262,l),
(151,321,o),
(159,355,o),
(233,355,c),
(281,355,o),
(301,325,o),
(301,308,c),
(301,248,o),
(210,283,o),
(210,249,c),
(210,206,o),
(325,238,o),
(325,190,cs),
(325,168,o),
(303,159,o),
(264,157,c),
(239,157,o),
(230,158,o),
(200,162,c),
(199,2,l),
(211,0,o),
(243,-6,o),
(275,-6,c),
(385,-6,o),
(426,71,o),
(426,133,c)
);
}
);
width = 500;
},
{
layerId = m006;
name = Regular;
shapes = (
{
closed = 1;
nodes = (
(426,227,o),
(300,229,o),
(300,248,c),
(300,272,o),
(426,265,o),
(426,369,c),
(426,455,o),
(341,514,o),
(239,514,c),
(115,514,o),
(60,444,o),
(60,326,c),
(60,1,l),
(87,1,l),
(87,262,l),
(87,440,o),
(125,484,o),
(242,484,c),
(303,479,o),
(396,455,o),
(396,369,c),
(396,269,o),
(210,283,o),
(210,249,c),
(210,206,o),
(396,237,o),
(396,123,cs),
(396,31,o),
(303,28,o),
(264,26,c),
(239,26,o),
(230,27,o),
(200,31,c),
(199,2,l),
(211,0,o),
(243,-6,o),
(275,-6,c),
(385,-6,o),
(426,51,o),
(426,123,c)
);
}
);
width = 500;
}
);
unicode = 223;
},
{
glyphname = t;
kernLeft = c;
kernRight = c;
lastChange = "2024-02-24 08:56:54 +0000";
layers = (
{
hints = (
{
horizontal = 1;
place = (420, 80);
place = (420, 80);
type = Stem;
}
);
layerId = "7EBE3D46-E53E-419E-A3EC-596DA2EA1E0D";
name = Regular;
shapes = (
{
closed = 1;
nodes = (
(64,350,l),
(142,350,l),
(142,202,ls),
(142,42,o),
(268,100,o),
(268,202,cs),
(268,350,l),
(395,350,l),
(425,511,l),
(268,511,l),
(270,549,o),
(269,604,o),
(266,628,cs),
(262,658,o),
(237,670,o),
(210,640,cs),
(132,554,o),
(75,483,o),
(24,401,cs),
(11,380,o),
(36,350,o),
(60,350,cs)
);
},
{
pos = (62,5);
ref = _curve_lower;
}
);
width = 531;
},
{
hints = (
{
horizontal = 1;
place = (420, 80);
place = (420, 80);
type = Stem;
}
);
layerId = m002;
name = Regular;
shapes = (
{
closed = 1;
nodes = (
(94,480,l),
(116,480,l),
(116,342,ls),
(116,292,o),
(143,300,o),
(143,342,cs),
(143,480,l),
(356,480,l),
(356,511,l),
(143,511,l),
(144,524,o),
(144,655,o),
(142,669,cs),
(139,692,o),
(126,689,o),
(120,672,cs),
(109,640,o),
(79,524,o),
(75,502,cs),
(72,488,o),
(74,480,o),
(90,480,cs)
);
},
{
pos = (6,1);
ref = _curve_lower;
}
);
width = 459;
},
{
hints = (
{
horizontal = 1;
place = (420, 80);
place = (420, 80);
type = Stem;
}
);
layerId = m003;
name = Regular;
shapes = (
{
closed = 1;
nodes = (
(72,350,l),
(130,350,l),
(130,202,ls),
(130,42,o),
(186,100,o),
(186,202,cs),
(186,350,l),
(313,350,l),
(343,511,l),
(186,511,l),
(188,549,o),
(187,604,o),
(184,628,cs),
(180,658,o),
(146,667,o),
(128,630,cs),
(91,554,o),
(60,483,o),
(32,401,cs),
(24,378,o),
(44,350,o),
(68,350,cs)
);
},
{
pos = (-20,5);
ref = _curve_lower;
}
);
width = 469;
},
{
hints = (
{
horizontal = 1;
place = (420, 80);
place = (420, 80);
type = Stem;
}
);
layerId = m004;
name = Regular;
shapes = (
{
closed = 1;
nodes = (
(94,480,l),
(116,480,l),
(116,342,ls),
(116,292,o),
(143,300,o),
(143,342,cs),
(143,480,l),
(356,480,l),
(356,511,l),
(143,511,l),
(144,524,o),
(144,655,o),
(142,669,cs),
(139,692,o),
(126,689,o),
(120,672,cs),
(109,640,o),
(79,524,o),
(75,502,cs),
(72,488,o),
(74,480,o),
(90,480,cs)
);
},
{
pos = (6,1);
ref = _curve_lower;
}
);
width = 459;
},
{
hints = (
{
horizontal = 1;
place = (420, 80);
place = (420, 80);
type = Stem;
}
);
layerId = m005;
name = Regular;
shapes = (
{
closed = 1;
nodes = (
(64,350,l),
(142,350,l),
(142,202,ls),
(142,42,o),
(268,100,o),
(268,202,cs),
(268,350,l),
(395,350,l),
(425,511,l),
(268,511,l),
(270,549,o),
(269,604,o),
(266,628,cs),
(262,658,o),
(237,670,o),
(210,640,cs),
(132,554,o),
(75,483,o),
(24,401,cs),
(11,380,o),
(36,350,o),
(60,350,cs)
);
},
{
pos = (62,5);
ref = _curve_lower;
}
);
width = 500;
},
{
hints = (
{
horizontal = 1;
place = (420, 80);
place = (420, 80);
type = Stem;
}
);
layerId = m006;
name = Regular;
shapes = (
{
closed = 1;
nodes = (
(94,480,l),
(116,480,l),
(116,342,ls),
(116,292,o),
(143,300,o),
(143,342,cs),
(143,480,l),
(356,480,l),
(356,511,l),
(143,511,l),
(144,524,o),
(144,655,o),
(142,669,cs),
(139,692,o),
(126,689,o),
(120,672,cs),
(109,640,o),
(79,524,o),
(75,502,cs),
(72,488,o),
(74,480,o),
(90,480,cs)
);
},
{
pos = (6,1);
ref = _curve_lower;
}
);
width = 500;
}
);
unicode = 116;
},
{
glyphname = v;
kernLeft = v;
kernRight = v;
lastChange = "2024-03-01 06:46:09 +0000";
layers = (
{
layerId = "7EBE3D46-E53E-419E-A3EC-596DA2EA1E0D";
name = Regular;
shapes = (
{
closed = 1;
nodes = (
(283,-17,o),
(306,12,o),
(323,54,cs),
(504,506,l),
(454,516,o),
(404,516,o),
(354,516,c),
(266,191,ls),
(257,157,o),
(241,151,o),
(231,127,cs),
(223,108,o),
(239,-17,o),
(263,-17,cs)
);
},
{
closed = 1;
nodes = (
(285,-17,o),
(301,108,o),
(293,127,cs),
(283,151,o),
(267,157,o),
(258,191,cs),
(170,516,l),
(120,516,o),
(70,516,o),
(20,506,c),
(201,54,ls),
(218,12,o),
(241,-17,o),
(261,-17,cs)
);
}
);
width = 524;
},
{
layerId = m002;
shapes = (
{
closed = 1;
nodes = (
(260,-6,o),
(267,0,o),
(272,11,cs),
(483,510,l),
(472,513,o),
(461,515,o),
(450,515,c),
(267,71,ls),
(253,36,o),
(253,35,o),
(245,35,cs),
(242,35,o),
(251,-6,o),
(251,-6,cs)
);
},
{
closed = 1;
nodes = (
(252,-6,o),
(261,35,o),
(258,35,cs),
(250,35,o),
(250,36,o),
(236,71,cs),
(53,515,l),
(42,515,o),
(31,513,o),
(20,510,c),
(231,11,ls),
(236,0,o),
(243,-6,o),
(252,-6,cs)
);
}
);
width = 503;
},
{
layerId = m003;
name = Regular;
shapes = (
{
closed = 1;
nodes = (
(293,-17,o),
(308,12,o),
(323,54,cs),
(484,506,l),
(464,513,o),
(464,515,o),
(444,515,c),
(306,140,ls),
(294,106,o),
(281,100,o),
(231,77,cs),
(212,68,o),
(239,-17,o),
(263,-17,cs)
);
},
{
closed = 1;
nodes = (
(285,-17,o),
(277,64,o),
(293,77,cs),
(323,100,o),
(312,106,o),
(298,140,cs),
(140,515,l),
(120,515,o),
(40,513,o),
(20,506,c),
(201,54,ls),
(218,12,o),
(231,-17,o),
(261,-17,cs)
);
}
);
width = 504;
},
{
layerId = m004;
shapes = (
{
closed = 1;
nodes = (
(260,-6,o),
(267,0,o),
(272,11,cs),
(483,510,l),
(472,513,o),
(461,515,o),
(450,515,c),
(267,71,ls),
(253,36,o),
(253,35,o),
(245,35,cs),
(242,35,o),
(251,-6,o),
(251,-6,cs)
);
},
{
closed = 1;
nodes = (
(252,-6,o),
(261,35,o),
(258,35,cs),
(250,35,o),
(250,36,o),
(236,71,cs),
(53,515,l),
(42,515,o),
(31,513,o),
(20,510,c),
(231,11,ls),
(236,0,o),
(243,-6,o),
(252,-6,cs)
);
}
);
width = 503;
},
{
layerId = m005;
name = Regular;
shapes = (
{
closed = 1;
nodes = (
(293,-17,o),
(319,22,o),
(333,64,cs),
(484,506,l),
(434,516,o),
(384,516,o),
(334,516,c),
(256,191,ls),
(248,157,o),
(231,151,o),
(221,127,cs),
(213,108,o),
(210,-17,o),
(253,-17,cs)
);
},
{
closed = 1;
nodes = (
(299,-17,o),
(291,108,o),
(283,127,cs),
(273,151,o),
(257,157,o),
(248,191,cs),
(160,516,l),
(110,516,o),
(60,516,o),
(10,506,c),
(171,64,ls),
(186,22,o),
(211,-17,o),
(251,-17,cs)
);
}
);
width = 500;
},
{
layerId = m006;
shapes = (
{
closed = 1;
nodes = (
(260,-6,o),
(267,0,o),
(272,11,cs),
(483,510,l),
(472,513,o),
(461,515,o),
(450,515,c),
(267,71,ls),
(253,36,o),
(253,35,o),
(245,35,cs),
(242,35,o),
(251,-6,o),
(251,-6,cs)
);
},
{
closed = 1;
nodes = (
(252,-6,o),
(261,35,o),
(258,35,cs),
(250,35,o),
(250,36,o),
(236,71,cs),
(53,515,l),
(42,515,o),
(31,513,o),
(20,510,c),
(231,11,ls),
(236,0,o),
(243,-6,o),
(252,-6,cs)
);
}
);
width = 500;
}
);
unicode = 118;
},
{
glyphname = w;
kernLeft = v;
kernRight = v;
lastChange = "2024-03-01 20:05:11 +0000";
layers = (
{
layerId = "7EBE3D46-E53E-419E-A3EC-596DA2EA1E0D";
name = Regular;
shapes = (
{
closed = 1;
nodes = (
(239,-10,o),
(262,26,o),
(282,79,cs),
(357,278,l),
(421,81,ls),
(439,26,o),
(459,-10,o),
(486,-10,cs),
(510,-10,o),
(527,30,o),
(545,81,cs),
(693,504,l),
(643,512,o),
(593,514,o),
(543,514,c),
(483,244,l),
(410,446,ls),
(394,491,o),
(379,517,o),
(358,517,c),
(357,517,ls),
(329,517,o),
(316,489,o),
(299,446,cs),
(222,245,l),
(170,514,l),
(120,514,o),
(70,512,o),
(20,504,c),
(150,81,ls),
(166,30,o),
(194,-10,o),
(217,-10,cs)
);
}
);
width = 713;
},
{
layerId = m002;
name = Regular;
shapes = (
{
closed = 1;
nodes = (
(207,0,o),
(215,16,o),
(219,31,c),
(357,470,l),
(496,31,l),
(501,15,o),
(511,0,o),
(522,0,cs),
(539,0,o),
(550,24,o),
(554,39,cs),
(693,510,l),
(683,513,o),
(674,515,o),
(664,515,c),
(524,43,l),
(385,478,l),
(379,493,o),
(374,509,o),
(358,509,c),
(357,509,ls),
(345,509,o),
(337,493,o),
(331,478,c),
(192,41,l),
(49,515,l),
(39,515,o),
(30,513,o),
(20,510,c),
(162,31,ls),
(166,16,o),
(178,0,o),
(191,0,cs)
);
}
);
width = 713;
},
{
layerId = m003;
name = Regular;
shapes = (
{
closed = 1;
nodes = (
(249,-10,o),
(258,22,o),
(272,79,cs),
(339,359,l),
(411,88,ls),
(423,42,o),
(441,-10,o),
(478,-10,cs),
(522,-10,o),
(546,40,o),
(557,91,cs),
(643,507,l),
(632,510,o),
(602,513,o),
(592,512,c),
(514,144,l),
(439,426,ls),
(427,472,o),
(410,517,o),
(369,517,c),
(368,517,ls),
(320,517,o),
(313,469,o),
(303,426,cs),
(235,125,l),
(150,504,l),
(120,511,o),
(60,512,o),
(30,504,c),
(146,73,ls),
(160,22,o),
(164,-10,o),
(207,-10,cs)
);
}
);
width = 673;
},
{
layerId = m004;
name = Regular;
shapes = (
{
closed = 1;
nodes = (
(207,0,o),
(215,16,o),
(219,31,c),
(357,470,l),
(496,31,l),
(501,15,o),
(511,0,o),
(522,0,cs),
(539,0,o),
(550,24,o),
(554,39,cs),
(693,510,l),
(683,513,o),
(674,515,o),
(664,515,c),
(524,43,l),
(385,478,l),
(379,493,o),
(374,509,o),
(358,509,c),
(357,509,ls),
(345,509,o),
(337,493,o),
(331,478,c),
(192,41,l),
(49,515,l),
(39,515,o),
(30,513,o),
(20,510,c),
(162,31,ls),
(166,16,o),
(178,0,o),
(191,0,cs)
);
}
);
width = 713;
},
{
layerId = m005;
name = Regular;
shapes = (
{
closed = 1;
nodes = (
(167,-10,o),
(206,13,o),
(220,69,cs),
(267,258,l),
(299,71,ls),
(309,13,o),
(347,-10,o),
(374,-10,cs),
(398,-10,o),
(437,20,o),
(443,71,cs),
(493,504,l),
(443,512,o),
(403,514,o),
(353,514,c),
(352,274,l),
(330,446,ls),
(324,495,o),
(289,517,o),
(268,517,c),
(267,517,ls),
(239,517,o),
(209,494,o),
(199,446,cs),
(162,275,l),
(150,514,l),
(100,514,o),
(60,512,o),
(10,504,c),
(68,71,ls),
(75,20,o),
(122,-10,o),
(145,-10,cs)
);
}
);
width = 500;
},
{
layerId = m006;
name = Regular;
shapes = (
{
closed = 1;
nodes = (
(149,0,o),
(157,16,o),
(161,31,c),
(249,470,l),
(338,31,l),
(343,15,o),
(353,0,o),
(364,0,cs),
(381,0,o),
(393,24,o),
(396,39,cs),
(485,510,l),
(475,513,o),
(466,515,o),
(456,515,c),
(366,43,l),
(277,478,l),
(271,493,o),
(266,509,o),
(250,509,c),
(249,509,ls),
(237,509,o),
(229,493,o),
(223,478,c),
(134,41,l),
(41,515,l),
(31,515,o),
(22,513,o),
(12,510,c),
(104,31,ls),
(107,16,o),
(120,0,o),
(133,0,cs)
);
}
);
width = 500;
}
);
unicode = 119;
},
{
glyphname = y;
kernLeft = v;
kernRight = v;
lastChange = "2024-03-02 13:31:06 +0000";
layers = (
{
layerId = "7EBE3D46-E53E-419E-A3EC-596DA2EA1E0D";
name = Regular;
shapes = (
{
closed = 1;
nodes = (
(473,513,o),
(424,514,o),
(374,514,c),
(292,214,l),
(190,513,l),
(133,513,o),
(76,512,o),
(20,500,c),
(226,45,l),
(207,-8,ls),
(183,-76,o),
(105,-112,o),
(43,-98,c),
(28,-159,o),
(26,-210,o),
(32,-263,c),
(159,-275,o),
(247,-225,o),
(306,-70,cs),
(524,501,l)
);
}
);
width = 544;
},
{
layerId = m002;
name = Regular;
shapes = (
{
closed = 1;
nodes = (
(493,513,o),
(481,515,o),
(470,515,c),
(281,38,l),
(58,515,l),
(45,515,o),
(33,513,o),
(20,510,c),
(266,0,l),
(242,-56,ls),
(207,-137,o),
(162,-229,o),
(46,-217,c),
(44,-225,o),
(43,-238,o),
(44,-249,c),
(175,-264,o),
(224,-186,o),
(274,-61,cs),
(504,510,l)
);
}
);
width = 524;
},
{
layerId = m003;
name = Regular;
shapes = (
{
closed = 1;
nodes = (
(503,512,o),
(492,512,o),
(472,512,c),
(350,194,l),
(170,513,l),
(113,513,o),
(76,512,o),
(20,500,c),
(294,45,l),
(275,-8,ls),
(231,-130,o),
(105,-112,o),
(43,-98,c),
(28,-159,o),
(26,-210,o),
(32,-263,c),
(159,-275,o),
(247,-225,o),
(306,-70,cs),
(524,507,l)
);
}
);
width = 544;
},
{
layerId = m004;
name = Regular;
shapes = (
{
closed = 1;
nodes = (
(493,513,o),
(481,515,o),
(470,515,c),
(281,38,l),
(58,515,l),
(45,515,o),
(33,513,o),
(20,510,c),
(266,0,l),
(242,-56,ls),
(207,-137,o),
(162,-229,o),
(46,-217,c),
(44,-225,o),
(43,-238,o),
(44,-249,c),
(175,-264,o),
(224,-186,o),
(274,-61,cs),
(504,510,l)
);
}
);
width = 524;
},
{
layerId = m005;
name = Regular;
shapes = (
{
closed = 1;
nodes = (
(423,513,o),
(374,514,o),
(324,514,c),
(272,214,l),
(190,513,l),
(133,513,o),
(76,512,o),
(20,500,c),
(216,45,l),
(197,-8,ls),
(173,-76,o),
(105,-112,o),
(43,-98,c),
(28,-159,o),
(26,-210,o),
(32,-263,c),
(159,-275,o),
(246,-229,o),
(296,-70,cs),
(474,501,l)
);
}
);
width = 500;
},
{
layerId = m006;
name = Regular;
shapes = (
{
closed = 1;
nodes = (
(443,513,o),
(431,515,o),
(420,515,c),
(268,40,l),
(58,515,l),
(45,515,o),
(33,513,o),
(20,510,c),
(256,0,l),
(232,-56,ls),
(197,-137,o),
(152,-229,o),
(36,-217,c),
(34,-225,o),
(33,-238,o),
(34,-249,c),
(165,-264,o),
(221,-190,o),
(264,-61,cs),
(454,510,l)
);
}
);
width = 500;
}
);
unicode = 121;
},
{
glyphname = z;
kernLeft = c;
kernRight = c;
lastChange = "2024-03-05 16:45:25 +0000";
layers = (
{
layerId = "7EBE3D46-E53E-419E-A3EC-596DA2EA1E0D";
name = Regular;
shapes = (
{
pos = (3,0);
ref = z___;
},
{
closed = 1;
nodes = (
(309,385,o),
(320,397,o),
(320,411,cs),
(320,425,o),
(309,437,o),
(296,437,cs),
(283,437,o),
(272,425,o),
(272,411,cs),
(272,397,o),
(283,385,o),
(296,385,cs)
);
},
{
angle = 180;
pos = (507,509);
ref = z___;
}
);
width = 510;
},
{
layerId = m002;
name = Regular;
shapes = (
{
pos = (3,0);
ref = z___;
},
{
closed = 1;
nodes = (
(448,467,o),
(455,474,o),
(455,482,cs),
(455,490,o),
(448,497,o),
(441,497,cs),
(433,497,o),
(427,490,o),
(427,482,cs),
(427,474,o),
(433,467,o),
(441,467,cs)
);
},
{
angle = 180;
pos = (507,509);
ref = z___;
}
);
width = 510;
},
{
layerId = m003;
name = Regular;
shapes = (
{
pos = (3,0);
ref = z___;
},
{
closed = 1;
nodes = (
(309,385,o),
(320,397,o),
(320,411,cs),
(320,425,o),
(309,437,o),
(296,437,cs),
(283,437,o),
(272,425,o),
(272,411,cs),
(272,397,o),
(283,385,o),
(296,385,cs)
);
},
{
angle = 180;
pos = (507,509);
ref = z___;
}
);
width = 510;
},
{
layerId = m004;
name = Regular;
shapes = (
{
pos = (3,0);
ref = z___;
},
{
closed = 1;
nodes = (
(448,467,o),
(455,474,o),
(455,482,cs),
(455,490,o),
(448,497,o),
(441,497,cs),
(433,497,o),
(427,490,o),
(427,482,cs),
(427,474,o),
(433,467,o),
(441,467,cs)
);
},
{
angle = 180;
pos = (507,509);
ref = z___;
}
);
width = 510;
},
{
layerId = m005;
name = Regular;
shapes = (
{
pos = (3,0);
ref = z___;
},
{
closed = 1;
nodes = (
(309,385,o),
(320,397,o),
(320,411,cs),
(320,425,o),
(309,437,o),
(296,437,cs),
(283,437,o),
(272,425,o),
(272,411,cs),
(272,397,o),
(283,385,o),
(296,385,cs)
);
},
{
angle = 180;
pos = (507,509);
ref = z___;
}
);
width = 500;
},
{
layerId = m006;
name = Regular;
shapes = (
{
pos = (3,0);
ref = z___;
},
{
closed = 1;
nodes = (
(448,467,o),
(455,474,o),
(455,482,cs),
(455,490,o),
(448,497,o),
(441,497,cs),
(433,497,o),
(427,490,o),
(427,482,cs),
(427,474,o),
(433,467,o),
(441,467,cs)
);
},
{
angle = 180;
pos = (507,509);
ref = z___;
}
);
width = 500;
}
);
unicode = 122;
},
{
glyphname = i_chengel;
lastChange = "2024-02-29 13:50:42 +0000";
layers = (
{
layerId = "7EBE3D46-E53E-419E-A3EC-596DA2EA1E0D";
shapes = (
{
closed = 1;
nodes = (
(231,416,ls),
(231,469,o),
(211,509,o),
(150,509,cs),
(105,509,o),
(131,510,o),
(82,509,cs),
(62,509,o),
(63,492,o),
(63,463,cs),
(63,427,o),
(63,392,o),
(64,376,cs),
(65,360,o),
(72,350,o),
(89,350,cs),
(196,350,ls),
(215,350,o),
(231,356,o),
(231,375,cs)
);
}
);
width = 323;
},
{
layerId = m002;
shapes = (
{
closed = 1;
nodes = (
(232,496,ls),
(232,505,o),
(229,510,o),
(218,510,cs),
(213,510,o),
(205,510,o),
(196,510,cs),
(187,510,o),
(184,506,o),
(186,500,cs),
(192,482,o),
(191,485,o),
(193,479,cs),
(197,467,o),
(199,467,o),
(206,467,cs),
(217,467,ls),
(226,467,o),
(232,472,o),
(232,485,cs)
);
}
);
width = 323;
},
{
layerId = m003;
shapes = (
{
closed = 1;
nodes = (
(231,416,ls),
(231,469,o),
(213,507,o),
(151,509,cs),
(106,510,o),
(94,510,o),
(45,509,cs),
(25,509,o),
(20,491,o),
(26,463,cs),
(34,427,o),
(40,394,o),
(45,376,cs),
(49,360,o),
(53,350,o),
(70,350,cs),
(197,350,ls),
(216,350,o),
(231,356,o),
(231,375,cs)
);
}
);
width = 323;
},
{
layerId = m004;
shapes = (
{
closed = 1;
nodes = (
(232,496,ls),
(232,505,o),
(229,509,o),
(218,510,cs),
(193,511,o),
(145,511,o),
(126,510,cs),
(117,509,o),
(114,506,o),
(116,500,cs),
(122,482,o),
(121,485,o),
(123,479,cs),
(127,467,o),
(129,467,o),
(146,467,cs),
(209,467,ls),
(228,467,o),
(232,471,o),
(232,485,cs)
);
}
);
width = 323;
},
{
layerId = m005;
shapes = (
{
closed = 1;
nodes = (
(231,416,ls),
(231,469,o),
(211,509,o),
(150,509,cs),
(-45,509,o),
(-19,510,o),
(-68,509,cs),
(-88,509,o),
(-87,492,o),
(-87,463,cs),
(-87,427,o),
(-87,392,o),
(-86,376,cs),
(-85,360,o),
(-78,350,o),
(-61,350,cs),
(196,350,ls),
(215,350,o),
(231,356,o),
(231,375,cs)
);
}
);
width = 500;
},
{
layerId = m006;
shapes = (
{
closed = 1;
nodes = (
(232,496,ls),
(232,505,o),
(229,510,o),
(218,510,cs),
(213,510,o),
(115,510,o),
(106,510,cs),
(97,510,o),
(94,506,o),
(96,500,cs),
(102,482,o),
(101,485,o),
(103,479,cs),
(107,467,o),
(109,467,o),
(116,467,cs),
(217,467,ls),
(226,467,o),
(232,472,o),
(232,485,cs)
);
}
);
width = 500;
}
);
},
{
glyphname = z___;
lastChange = "2024-03-05 16:45:07 +0000";
layers = (
{
layerId = "7EBE3D46-E53E-419E-A3EC-596DA2EA1E0D";
shapes = (
{
closed = 1;
nodes = (
(341,524,o),
(133,522,o),
(57,510,c),
(63,464,o),
(65,415,o),
(77,352,c),
(139,354,o),
(202,355,o),
(264,357,c),
(177,219,l),
(209,113,l),
(298,219,o),
(386,343,o),
(451,468,cs),
(462,490,o),
(447,506,o),
(417,511,cs)
);
}
);
width = 501;
},
{
layerId = m002;
shapes = (
{
closed = 1;
nodes = (
(420,512,o),
(268,525,o),
(47,510,c),
(48,502,o),
(51,490,o),
(54,482,c),
(255,490,o),
(365,486,o),
(423,478,c),
(63,35,l),
(60,13,l),
(149,119,o),
(346,343,o),
(451,468,cs),
(467,487,o),
(455,506,o),
(425,511,cs)
);
}
);
width = 501;
},
{
layerId = m003;
shapes = (
{
closed = 1;
nodes = (
(341,524,o),
(133,522,o),
(57,510,c),
(63,464,o),
(65,415,o),
(77,352,c),
(139,354,o),
(262,355,o),
(324,357,c),
(89,99,l),
(111,73,l),
(200,179,o),
(386,343,o),
(451,468,cs),
(462,490,o),
(447,506,o),
(417,511,cs)
);
}
);
width = 501;
},
{
layerId = m004;
shapes = (
{
closed = 1;
nodes = (
(420,512,o),
(268,525,o),
(47,510,c),
(48,502,o),
(51,490,o),
(54,482,c),
(255,490,o),
(365,486,o),
(423,478,c),
(55,28,l),
(60,13,l),
(149,119,o),
(346,343,o),
(451,468,cs),
(467,487,o),
(455,506,o),
(425,511,cs)
);
}
);
width = 501;
},
{
layerId = m005;
shapes = (
{
closed = 1;
nodes = (
(341,524,o),
(133,522,o),
(57,510,c),
(63,464,o),
(65,415,o),
(77,352,c),
(139,354,o),
(212,355,o),
(274,357,c),
(177,219,l),
(199,113,l),
(288,219,o),
(386,343,o),
(451,468,cs),
(462,490,o),
(447,506,o),
(417,511,cs)
);
}
);
width = 500;
},
{
layerId = m006;
shapes = (
{
closed = 1;
nodes = (
(420,512,o),
(268,525,o),
(47,510,c),
(48,502,o),
(51,490,o),
(54,482,c),
(255,490,o),
(365,486,o),
(423,478,c),
(55,28,l),
(60,13,l),
(149,119,o),
(346,343,o),
(451,468,cs),
(467,487,o),
(455,506,o),
(425,511,cs)
);
}
);
width = 500;
}
);
},
{
glyphname = "De-cy";
kernLeft = A;
lastChange = "2024-02-28 10:09:29 +0000";
layers = (
{
background = {
shapes = (
{
closed = 1;
nodes = (
(253,516,l),
(110,516,o),
(36,405,o),
(34,247,c),
(147,246,l),
(147,332,o),
(201,360,o),
(253,360,c)
);
}
);
};
layerId = "7EBE3D46-E53E-419E-A3EC-596DA2EA1E0D";
name = Regular;
shapes = (
{
closed = 1;
nodes = (
(427,159,l),
(248,159,l),
(255,192,o),
(259,229,o),
(259,269,cs),
(259,390,ls),
(259,476,o),
(292,499,o),
(344,499,cs),
(427,499,l)
);
},
{
closed = 1;
nodes = (
(164,-135,l),
(164,-1,l),
(549,-1,l),
(549,-135,l),
(661,-135,l),
(660,161,l),
(582,161,l),
(585,659,l),
(333,659,l),
(200,653,o),
(146,548,o),
(146,397,cs),
(146,272,ls),
(146,195,o),
(119,166,o),
(76,161,c),
(53,161,l),
(52,-135,l)
);
}
);
width = 711;
},
{
background = {
shapes = (
{
closed = 1;
nodes = (
(253,516,l),
(110,516,o),
(36,405,o),
(34,247,c),
(147,246,l),
(147,332,o),
(201,360,o),
(253,360,c)
);
}
);
};
layerId = m002;
name = Regular;
shapes = (
{
closed = 1;
nodes = (
(544,27,l),
(142,27,l),
(178,54,o),
(210,100,o),
(211,159,cs),
(212,390,ls),
(212,476,o),
(220,599,o),
(332,599,cs),
(544,599,l)
);
},
{
closed = 1;
nodes = (
(104,-137,l),
(104,-3,l),
(609,-3,l),
(609,-137,l),
(646,-137,l),
(645,28,l),
(571,27,l),
(571,629,l),
(327,629,ls),
(228,626,o),
(180,548,o),
(177,395,cs),
(176.004,160,ls),
(176,86,o),
(136,39,o),
(91,28,c),
(68,28,l),
(67,-137,l)
);
}
);
width = 706;
},
{
background = {
shapes = (
{
closed = 1;
nodes = (
(253,516,l),
(110,516,o),
(36,405,o),
(34,247,c),
(147,246,l),
(147,332,o),
(201,360,o),
(253,360,c)
);
}
);
};
layerId = m003;
name = Regular;
shapes = (
{
closed = 1;
nodes = (
(508,161,l),
(239,161,l),
(246,194,o),
(250,231,o),
(250,271,cs),
(250,392,ls),
(250,478,o),
(283,501,o),
(335,501,cs),
(508,501,l)
);
},
{
closed = 1;
nodes = (
(95,-133,l),
(95,1,l),
(600,1,l),
(600,-133,l),
(652,-133,l),
(651,163,l),
(573,163,l),
(576,661,l),
(324,661,l),
(191,655,o),
(137,550,o),
(137,399,cs),
(137,274,ls),
(137,197,o),
(110,168,o),
(67,163,c),
(44,163,l),
(43,-133,l)
);
}
);
width = 711;
},
{
background = {
shapes = (
{
closed = 1;
nodes = (
(253,516,l),
(110,516,o),
(36,405,o),
(34,247,c),
(147,246,l),
(147,332,o),
(201,360,o),
(253,360,c)
);
}
);
};
layerId = m004;
name = Regular;
shapes = (
{
closed = 1;
nodes = (
(544,27,l),
(142,27,l),
(178,54,o),
(210,100,o),
(211,159,cs),
(212,390,ls),
(212,476,o),
(220,599,o),
(332,599,cs),
(544,599,l)
);
},
{
closed = 1;
nodes = (
(104,-137,l),
(104,-3,l),
(609,-3,l),
(609,-137,l),
(646,-137,l),
(645,28,l),
(571,27,l),
(571,629,l),
(327,629,ls),
(228,626,o),
(180,548,o),
(177,395,cs),
(176.004,160,ls),
(176,86,o),
(136,39,o),
(91,28,c),
(68,28,l),
(67,-137,l)
);
}
);
width = 713;
},
{
background = {
shapes = (
{
closed = 1;
nodes = (
(253,516,l),
(110,516,o),
(36,405,o),
(34,247,c),
(147,246,l),
(147,332,o),
(201,360,o),
(253,360,c)
);
}
);
};
layerId = m005;
name = Regular;
shapes = (
{
closed = 1;
nodes = (
(297,159,l),
(188,159,l),
(195,192,o),
(199,229,o),
(199,269,cs),
(199,390,ls),
(199,476,o),
(232,499,o),
(284,499,cs),
(297,499,l)
);
},
{
closed = 1;
nodes = (
(124,-135,l),
(124,-1,l),
(369,-1,l),
(369,-135,l),
(481,-135,l),
(480,161,l),
(452,161,l),
(455,659,l),
(273,659,l),
(140,653,o),
(86,548,o),
(86,397,cs),
(86,272,ls),
(86,195,o),
(59,166,o),
(16,161,c),
(13,161,l),
(12,-135,l)
);
}
);
width = 500;
},
{
background = {
shapes = (
{
closed = 1;
nodes = (
(253,516,l),
(110,516,o),
(36,405,o),
(34,247,c),
(147,246,l),
(147,332,o),
(201,360,o),
(253,360,c)
);
}
);
};
layerId = m006;
name = Regular;
shapes = (
{
closed = 1;
nodes = (
(361,27,l),
(79,27,l),
(115,54,o),
(148,100,o),
(148,159,cs),
(149,390,ls),
(149,476,o),
(157,599,o),
(269,599,cs),
(361,599,l)
);
},
{
closed = 1;
nodes = (
(61,-137,l),
(61,-3,l),
(396,-3,l),
(396,-137,l),
(433,-137,l),
(432,28,l),
(388,27,l),
(388,629,l),
(264,629,ls),
(165,629,o),
(115,548,o),
(114,395,cs),
(113,160,ls),
(113,86,o),
(73,39,o),
(28,28,c),
(25,28,l),
(24,-137,l)
);
}
);
width = 500;
}
);
unicode = 1044;
},
{
glyphname = "U-cy";
kernRight = V;
lastChange = "2024-03-02 14:16:26 +0000";
layers = (
{
layerId = "7EBE3D46-E53E-419E-A3EC-596DA2EA1E0D";
name = Regular;
shapes = (
{
closed = 1;
nodes = (
(424,660,l),
(307,385,l),
(190,660,l),
(20,660,l),
(238,242,l),
(219,198,ls),
(206,168,o),
(143,144,o),
(101,158,c),
(105,99,o),
(119,33,o),
(130,-3,c),
(187,-5,o),
(255,2,o),
(318,124,cs),
(594,660,l)
);
}
);
width = 614;
},
{
layerId = m002;
name = Regular;
shapes = (
{
closed = 1;
nodes = (
(494,628,l),
(284,181,l),
(54,628,l),
(20,628,l),
(269,141,l),
(245,97,ls),
(208,29,o),
(134,21,o),
(92,35,c),
(93,15,o),
(92,8,o),
(90,-3,c),
(167,-15,o),
(241,-3,o),
(298,124,cs),
(524,628,l)
);
}
);
width = 544;
},
{
layerId = m003;
name = Regular;
shapes = (
{
closed = 1;
nodes = (
(524,670,l),
(407,395,l),
(210,670,l),
(50,658,l),
(338,252,l),
(325,230,ls),
(296,181,o),
(173,144,o),
(101,158,c),
(105,99,o),
(99,33,o),
(110,-3,c),
(217,-5,o),
(293,78,o),
(368,224,cs),
(594,663,l)
);
}
);
width = 614;
},
{
layerId = m004;
name = Regular;
shapes = (
{
closed = 1;
nodes = (
(494,628,l),
(284,181,l),
(54,628,l),
(20,628,l),
(269,141,l),
(245,97,ls),
(208,29,o),
(134,21,o),
(92,35,c),
(93,15,o),
(92,8,o),
(90,-3,c),
(167,-15,o),
(241,-3,o),
(298,124,cs),
(524,628,l)
);
}
);
width = 544;
},
{
layerId = m005;
name = Regular;
shapes = (
{
closed = 1;
nodes = (
(294,665,l),
(247,395,l),
(180,665,l),
(10,655,l),
(189,222,l),
(179,198,ls),
(166,167,o),
(113,144,o),
(71,158,c),
(66,118,o),
(68,46,o),
(73,-3,c),
(130,-5,o),
(232,-7,o),
(278,124,cs),
(464,655,l)
);
}
);
width = 500;
},
{
layerId = m006;
name = Regular;
shapes = (
{
closed = 1;
nodes = (
(454,628,l),
(284,181,l),
(54,628,l),
(20,628,l),
(269,141,l),
(245,97,ls),
(208,29,o),
(134,21,o),
(92,35,c),
(93,15,o),
(92,8,o),
(90,-3,c),
(167,-15,o),
(250,-7,o),
(298,124,cs),
(484,628,l)
);
}
);
width = 500;
}
);
unicode = 1059;
},
{
glyphname = "Ef-cy";
lastChange = "2024-03-02 14:16:20 +0000";
layers = (
{
anchors = (
{
name = tailq;
pos = (338,62);
}
);
layerId = "7EBE3D46-E53E-419E-A3EC-596DA2EA1E0D";
name = Regular;
shapes = (
{
angle = 180;
pos = (686,728);
ref = _O;
},
{
pos = (20,728);
ref = _O;
scale = (1,-1);
},
{
pos = (20,-70);
ref = _O;
},
{
pos = (686,-70);
ref = _O;
scale = (-1,1);
},
{
closed = 1;
nodes = (
(296,-64,l),
(418,-64,l),
(418,723,l),
(296,723,l)
);
}
);
width = 706;
},
{
anchors = (
{
name = tailq;
pos = (310,62);
}
);
layerId = m002;
name = Regular;
shapes = (
{
angle = 180;
pos = (628,728);
ref = _O;
},
{
pos = (-8,728);
ref = _O;
scale = (1,-1);
},
{
pos = (-8,-90);
ref = _O;
},
{
pos = (628,-90);
ref = _O;
scale = (-1,1);
},
{
closed = 1;
nodes = (
(294,-75,l),
(326,-75,l),
(326,712,l),
(294,712,l)
);
}
);
width = 620;
},
{
anchors = (
{
name = tailq;
pos = (338,62);
}
);
layerId = m003;
name = Regular;
shapes = (
{
angle = 180;
pos = (686,728);
ref = _O;
},
{
pos = (20,728);
ref = _O;
scale = (1,-1);
},
{
pos = (20,-70);
ref = _O;
},
{
pos = (686,-70);
ref = _O;
scale = (-1,1);
},
{
closed = 1;
nodes = (
(296,-64,l),
(418,-64,l),
(418,723,l),
(296,723,l)
);
}
);
width = 706;
},
{
anchors = (
{
name = tailq;
pos = (310,62);
}
);
layerId = m004;
name = Regular;
shapes = (
{
angle = 180;
pos = (628,728);
ref = _O;
},
{
pos = (-8,728);
ref = _O;
scale = (1,-1);
},
{
pos = (-8,-90);
ref = _O;
},
{
pos = (628,-90);
ref = _O;
scale = (-1,1);
},
{
closed = 1;
nodes = (
(294,-75,l),
(326,-75,l),
(326,712,l),
(294,712,l)
);
}
);
width = 620;
},
{
anchors = (
{
name = tailq;
pos = (338,62);
}
);
layerId = m005;
name = Regular;
shapes = (
{
angle = 180;
pos = (546,728);
ref = _O;
},
{
pos = (-50,728);
ref = _O;
scale = (1,-1);
},
{
pos = (-50,-70);
ref = _O;
},
{
pos = (546,-70);
ref = _O;
scale = (-1,1);
},
{
closed = 1;
nodes = (
(186,-64,l),
(308,-64,l),
(308,723,l),
(186,723,l)
);
}
);
width = 500;
},
{
anchors = (
{
name = tailq;
pos = (270,62);
}
);
layerId = m006;
name = Regular;
shapes = (
{
angle = 180;
pos = (548,728);
ref = _O;
},
{
pos = (-48,728);
ref = _O;
scale = (1,-1);
},
{
pos = (-48,-90);
ref = _O;
},
{
pos = (548,-90);
ref = _O;
scale = (-1,1);
},
{
closed = 1;
nodes = (
(234,-75,l),
(266,-75,l),
(266,712,l),
(234,712,l)
);
}
);
width = 500;
}
);
unicode = 1060;
},
{
glyphname = "Iu-cy";
lastChange = "2024-03-02 14:19:08 +0000";
layers = (
{
layerId = "7EBE3D46-E53E-419E-A3EC-596DA2EA1E0D";
name = Regular;
shapes = (
{
alignment = -1;
pos = (-10,0);
ref = I;
},
{
alignment = -1;
pos = (253,-2);
ref = O;
},
{
closed = 1;
nodes = (
(175,270,l),
(357,270,l),
(357,391,l),
(175,391,l)
);
}
);
width = 919;
},
{
layerId = m002;
name = Regular;
shapes = (
{
alignment = -1;
pos = (-30,0);
ref = I;
},
{
alignment = -1;
pos = (183,-2);
ref = O;
},
{
closed = 1;
nodes = (
(126,314,l),
(248,314,l),
(248,348,l),
(126,348,l)
);
}
);
width = 850;
},
{
layerId = m003;
name = Regular;
shapes = (
{
alignment = -1;
pos = (-10,0);
ref = I;
},
{
alignment = -1;
pos = (253,-2);
ref = O;
},
{
closed = 1;
nodes = (
(175,270,l),
(337,270,l),
(337,391,l),
(175,391,l)
);
}
);
width = 879;
},
{
layerId = m004;
name = Regular;
shapes = (
{
alignment = -1;
pos = (-30,0);
ref = I;
},
{
alignment = -1;
pos = (183,-2);
ref = O;
},
{
closed = 1;
nodes = (
(126,314,l),
(248,314,l),
(248,348,l),
(126,348,l)
);
}
);
width = 850;
},
{
layerId = m005;
name = Regular;
shapes = (
{
alignment = -1;
pos = (-10,0);
ref = I;
},
{
alignment = -1;
pos = (453,-2);
ref = O;
},
{
closed = 1;
nodes = (
(305,270,l),
(527,270,l),
(527,391,l),
(305,391,l)
);
}
);
width = 1000;
},
{
layerId = m006;
name = Regular;
shapes = (
{
alignment = -1;
pos = (-30,0);
ref = I;
},
{
alignment = -1;
pos = (483,-2);
ref = O;
},
{
closed = 1;
nodes = (
(226,314,l),
(508,314,l),
(508,348,l),
(226,348,l)
);
}
);
width = 1000;
}
);
unicode = 1070;
},
{
glyphname = "be-cy";
kernLeft = e;
kernRight = e;
lastChange = "2024-02-24 08:56:54 +0000";
layers = (
{
layerId = "7EBE3D46-E53E-419E-A3EC-596DA2EA1E0D";
name = Regular;
shapes = (
{
closed = 1;
nodes = (
(181.961,404.232,l),
(192.003,513.657,o),
(217,607,o),
(432,560,c),
(442.344,716.988,l),
(110.66,771.298,o),
(61,557.476,o),
(61,355,c),
(61,328.224,o),
(60,261.224,o),
(60,242,c),
(69.426,222.033,l),
(148,216,l)
);
},
{
closed = 1;
nodes = (
(291,370,l),
(283,516,l),
(195,516,o),
(121,426,o),
(121,277,c),
(121,230,o),
(183,153,o),
(183,250,c),
(183,318,o),
(220,355,o),
(275,355,c),
(277,355,o),
(279,355,o),
(281,355,c)
);
},
{
angle = 180;
pos = (532,505);
ref = _o_curve;
},
{
pos = (26,505);
ref = _o_curve;
scale = (1,-1);
},
{
pos = (532,0);
ref = _o_curve;
scale = (-1,1);
}
);
width = 558;
},
{
layerId = m002;
name = Regular;
shapes = (
{
closed = 1;
nodes = (
(92,414,l),
(102,544,o),
(127,737,o),
(432,680,c),
(442.344,716.988,l),
(110.66,771.298,o),
(61,567,o),
(61,365,c),
(61,338,o),
(60,271,o),
(60,252,c),
(69,232,l),
(90,216,l)
);
},
{
closed = 1;
nodes = (
(289,485,l),
(283,508,l),
(195,508,o),
(81,423,o),
(81,274,c),
(81,227,o),
(90,150,o),
(90,247,c),
(90,415,o),
(219,478,o),
(274,478,c),
(276,478,o),
(278,478,o),
(280,478,c)
);
},
{
angle = 180;
pos = (532,505);
ref = _o_curve;
},
{
pos = (26,505);
ref = _o_curve;
scale = (1,-1);
},
{
pos = (532,0);
ref = _o_curve;
scale = (-1,1);
}
);
width = 558;
},
{
layerId = m003;
name = Regular;
shapes = (
{
closed = 1;
nodes = (
(112,394,l),
(122,504,o),
(217,607,o),
(432,560,c),
(442,717,l),
(111,771,o),
(61,557,o),
(61,355,c),
(61,328,o),
(60,277,o),
(60,258,c),
(89,232,l),
(128,376,l)
);
},
{
closed = 1;
nodes = (
(291,370,l),
(283,516,l),
(195,516,o),
(90,432,o),
(90,283,c),
(90,236,o),
(103,161,o),
(103,258,c),
(103,346,o),
(220,355,o),
(275,355,c),
(277,355,o),
(279,355,o),
(281,355,c)
);
},
{
angle = 180;
pos = (532,505);
ref = _o_curve;
},
{
pos = (26,505);
ref = _o_curve;
scale = (1,-1);
},
{
pos = (532,0);
ref = _o_curve;
scale = (-1,1);
}
);
width = 558;
},
{
layerId = m004;
name = Regular;
shapes = (
{
closed = 1;
nodes = (
(92,414,l),
(102,544,o),
(127,737,o),
(432,680,c),
(442.344,716.988,l),
(110.66,771.298,o),
(61,567,o),
(61,365,c),
(61,338,o),
(60,271,o),
(60,252,c),
(69,232,l),
(90,216,l)
);
},
{
closed = 1;
nodes = (
(289,485,l),
(283,508,l),
(195,508,o),
(81,423,o),
(81,274,c),
(81,227,o),
(90,150,o),
(90,247,c),
(90,415,o),
(219,478,o),
(274,478,c),
(276,478,o),
(278,478,o),
(280,478,c)
);
},
{
angle = 180;
pos = (532,505);
ref = _o_curve;
},
{
pos = (26,505);
ref = _o_curve;
scale = (1,-1);
},
{
pos = (532,0);
ref = _o_curve;
scale = (-1,1);
}
);
width = 558;
},
{
layerId = m005;
name = Regular;
shapes = (
{
closed = 1;
nodes = (
(181.961,404.232,l),
(192.003,513.657,o),
(217,607,o),
(432,560,c),
(442.344,716.988,l),
(110.66,771.298,o),
(61,557.476,o),
(61,355,c),
(61,328.224,o),
(60,261.224,o),
(60,242,c),
(69.426,222.033,l),
(148,216,l)
);
},
{
closed = 1;
nodes = (
(291,370,l),
(283,516,l),
(195,516,o),
(121,426,o),
(121,277,c),
(121,230,o),
(183,153,o),
(183,250,c),
(183,318,o),
(220,355,o),
(275,355,c),
(277,355,o),
(279,355,o),
(281,355,c)
);
},
{
angle = 180;
pos = (532,505);
ref = _o_curve;
},
{
pos = (26,505);
ref = _o_curve;
scale = (1,-1);
},
{
pos = (532,0);
ref = _o_curve;
scale = (-1,1);
}
);
width = 500;
},
{
layerId = m006;
name = Regular;
shapes = (
{
closed = 1;
nodes = (
(92,414,l),
(102,544,o),
(127,737,o),
(432,680,c),
(442.344,716.988,l),
(110.66,771.298,o),
(61,567,o),
(61,365,c),
(61,338,o),
(60,271,o),
(60,252,c),
(69,232,l),
(90,216,l)
);
},
{
closed = 1;
nodes = (
(289,485,l),
(283,508,l),
(195,508,o),
(81,423,o),
(81,274,c),
(81,227,o),
(90,150,o),
(90,247,c),
(90,415,o),
(219,478,o),
(274,478,c),
(276,478,o),
(278,478,o),
(280,478,c)
);
},
{
angle = 180;
pos = (532,505);
ref = _o_curve;
},
{
pos = (26,505);
ref = _o_curve;
scale = (1,-1);
},
{
pos = (532,0);
ref = _o_curve;
scale = (-1,1);
}
);
width = 500;
}
);
unicode = 1073;
},
{
glyphname = "de-cy";
kernLeft = e;
kernRight = n;
lastChange = "2024-03-01 09:21:20 +0000";
layers = (
{
layerId = "7EBE3D46-E53E-419E-A3EC-596DA2EA1E0D";
name = Regular;
shapes = (
{
alignment = -1;
angle = 180;
pos = (511,507);
ref = _curve_b;
},
{
closed = 1;
nodes = (
(135,-198,o),
(216,-205,o),
(258,-205,c),
(387,-205,o),
(504,-145,o),
(504,11,c),
(504,202,l),
(369,202,l),
(369,45,l),
(369,-15,o),
(317,-43,o),
(242,-44,c),
(203,-45,o),
(154,-34,o),
(116,-16,c),
(93,-80,o),
(90,-92,o),
(75,-169,c)
);
}
);
width = 564;
},
{
layerId = m002;
name = Regular;
shapes = (
{
angle = 180;
pos = (493,510);
ref = _curve_b;
},
{
closed = 1;
nodes = (
(139,-202,o),
(209,-204,o),
(251,-204,cs),
(343,-204,o),
(458,-169,o),
(458,19,c),
(458,68,l),
(432,68,l),
(432,41,l),
(432,-128,o),
(373,-164,o),
(251,-164,cs),
(212,-164,o),
(132,-155,o),
(64,-107,c),
(58,-118,o),
(52,-130,o),
(49,-143,c)
);
}
);
width = 528;
},
{
layerId = m003;
name = Regular;
shapes = (
{
alignment = -1;
angle = 180;
pos = (511,507);
ref = _curve_b;
},
{
closed = 1;
nodes = (
(135,-198,o),
(216,-205,o),
(258,-205,c),
(387,-205,o),
(504,-145,o),
(504,11,c),
(504,202,l),
(458,202,l),
(458,105,l),
(458,-25,o),
(347,-43,o),
(282,-44,c),
(243,-45,o),
(154,-34,o),
(116,-16,c),
(93,-80,o),
(90,-92,o),
(75,-169,c)
);
}
);
width = 564;
},
{
layerId = m004;
name = Regular;
shapes = (
{
angle = 180;
pos = (493,510);
ref = _curve_b;
},
{
closed = 1;
nodes = (
(139,-202,o),
(209,-204,o),
(251,-204,cs),
(343,-204,o),
(458,-169,o),
(458,19,c),
(458,68,l),
(432,68,l),
(432,41,l),
(432,-128,o),
(373,-164,o),
(251,-164,cs),
(212,-164,o),
(132,-155,o),
(64,-107,c),
(58,-118,o),
(52,-130,o),
(49,-143,c)
);
}
);
width = 528;
},
{
layerId = m005;
name = Regular;
shapes = (
{
alignment = -1;
angle = 180;
pos = (471,507);
ref = _curve_b;
},
{
closed = 1;
nodes = (
(95,-198,o),
(176,-205,o),
(218,-205,c),
(347,-205,o),
(464,-145,o),
(464,11,c),
(464,202,l),
(329,202,l),
(329,45,l),
(329,-15,o),
(277,-43,o),
(202,-44,c),
(163,-45,o),
(114,-34,o),
(76,-16,c),
(53,-80,o),
(50,-92,o),
(35,-169,c)
);
}
);
width = 500;
},
{
layerId = m006;
name = Regular;
shapes = (
{
angle = 180;
pos = (493,510);
ref = _curve_b;
},
{
closed = 1;
nodes = (
(139,-202,o),
(209,-204,o),
(251,-204,cs),
(343,-204,o),
(458,-169,o),
(458,19,c),
(458,68,l),
(432,68,l),
(432,41,l),
(432,-128,o),
(373,-164,o),
(251,-164,cs),
(212,-164,o),
(132,-155,o),
(64,-107,c),
(58,-118,o),
(52,-130,o),
(49,-143,c)
);
}
);
width = 500;
}
);
unicode = 1076;
},
{
glyphname = "em-cy";
kernLeft = n;
kernRight = n;
lastChange = "2024-03-02 13:30:34 +0000";
layers = (
{
layerId = "7EBE3D46-E53E-419E-A3EC-596DA2EA1E0D";
name = Regular;
shapes = (
{
closed = 1;
nodes = (
(348,93,l),
(387,92,o),
(396,132,o),
(411,160,cs),
(483,294,l),
(511,-4,l),
(551,-8,o),
(617,-6,o),
(644,2,c),
(578,444,ls),
(572,485,o),
(556,521,o),
(520,521,cs),
(485,521,o),
(469,487,o),
(446,440,cs),
(345,232,l),
(232,450,ls),
(211,491,o),
(191,521,o),
(166,521,cs),
(140,521,o),
(118,505,o),
(110,454,cs),
(40,2,l),
(48,0,o),
(162,-6,o),
(173,-4,c),
(196,303,l),
(275,160,ls),
(286,140,o),
(309,94,o),
(338,93,c),
(338,92,l),
(340,92,o),
(341,92,o),
(343,92,cs),
(348,92,l)
);
}
);
width = 663;
},
{
layerId = m002;
name = Regular;
shapes = (
{
closed = 1;
nodes = (
(348,89,l),
(367,88,o),
(373,98,o),
(383,120,cs),
(544,473,l),
(611,-4,l),
(621,-6,o),
(637,-2,o),
(644,2,c),
(578,484,ls),
(576,502,o),
(566,514,o),
(550,514,cs),
(535,514,o),
(519,497,o),
(508,473,cs),
(345,112,l),
(182,480,ls),
(174,498,o),
(169,521,o),
(146,521,cs),
(129,521,o),
(113,505,o),
(110,484,cs),
(40,2,l),
(48,0,o),
(62,-1,o),
(73,1,c),
(143,480,l),
(305,120,ls),
(314,100,o),
(325,90,o),
(338,89,c),
(338,88,l),
(340,88,o),
(341,88,o),
(343,88,cs),
(348,88,l)
);
}
);
width = 684;
},
{
layerId = m003;
name = Regular;
shapes = (
{
closed = 1;
nodes = (
(292,113,l),
(341,112,o),
(365,163,o),
(375,190,cs),
(446,384,l),
(491,-4,l),
(531,-8,o),
(617,-6,o),
(644,2,c),
(551,444,ls),
(542,485,o),
(529,521,o),
(483,521,cs),
(438,521,o),
(418,489,o),
(399,440,cs),
(318,232,l),
(235,450,ls),
(219,493,o),
(194,521,o),
(159,521,cs),
(123,521,o),
(99,505,o),
(93,454,cs),
(40,2,l),
(48,0,o),
(82,-6,o),
(93,-4,c),
(129,384,l),
(199,190,ls),
(207,168,o),
(243,114,o),
(282,113,c),
(282,112,l),
(284,112,o),
(285,112,o),
(287,112,cs),
(292,112,l)
);
}
);
width = 663;
},
{
layerId = m004;
name = Regular;
shapes = (
{
closed = 1;
nodes = (
(348,89,l),
(367,88,o),
(373,98,o),
(383,120,cs),
(544,473,l),
(611,-4,l),
(621,-6,o),
(637,-2,o),
(644,2,c),
(578,484,ls),
(576,502,o),
(566,514,o),
(550,514,cs),
(535,514,o),
(519,497,o),
(508,473,cs),
(345,112,l),
(182,480,ls),
(174,498,o),
(169,521,o),
(146,521,cs),
(129,521,o),
(113,505,o),
(110,484,cs),
(40,2,l),
(48,0,o),
(62,-1,o),
(73,1,c),
(143,480,l),
(305,120,ls),
(314,100,o),
(325,90,o),
(338,89,c),
(338,88,l),
(340,88,o),
(341,88,o),
(343,88,cs),
(348,88,l)
);
}
);
width = 684;
},
{
layerId = m005;
name = Regular;
shapes = (
{
closed = 1;
nodes = (
(348,93,l),
(387,92,o),
(396,132,o),
(411,160,cs),
(483,294,l),
(511,-4,l),
(551,-8,o),
(617,-6,o),
(644,2,c),
(578,444,ls),
(572,485,o),
(556,521,o),
(520,521,cs),
(485,521,o),
(469,487,o),
(446,440,cs),
(345,232,l),
(232,450,ls),
(211,491,o),
(191,521,o),
(166,521,cs),
(140,521,o),
(118,505,o),
(110,454,cs),
(40,2,l),
(48,0,o),
(162,-6,o),
(173,-4,c),
(196,303,l),
(275,160,ls),
(286,140,o),
(309,94,o),
(338,93,c),
(338,92,l),
(340,92,o),
(341,92,o),
(343,92,cs),
(348,92,l)
);
}
);
width = 500;
},
{
layerId = m006;
name = Regular;
shapes = (
{
closed = 1;
nodes = (
(258,89,l),
(277,88,o),
(287,96,o),
(293,120,cs),
(384,473,l),
(431,-4,l),
(441,-6,o),
(457,-2,o),
(464,2,c),
(418,484,ls),
(416,502,o),
(406,514,o),
(390,514,cs),
(375,514,o),
(355,499,o),
(348,473,cs),
(255,132,l),
(152,480,ls),
(146,499,o),
(139,521,o),
(116,521,cs),
(99,521,o),
(82,505,o),
(80,484,cs),
(40,2,l),
(48,0,o),
(62,-1,o),
(73,1,c),
(113,480,l),
(215,120,ls),
(221,98,o),
(235,90,o),
(248,89,c),
(248,88,l),
(250,88,o),
(251,88,o),
(253,88,cs),
(258,88,l)
);
}
);
width = 500;
}
);
unicode = 1084;
},
{
glyphname = "che-cy";
kernLeft = e;
kernRight = n;
lastChange = "2024-03-02 13:52:02 +0000";
layers = (
{
layerId = "7EBE3D46-E53E-419E-A3EC-596DA2EA1E0D";
name = Regular;
shapes = (
{
closed = 1;
nodes = (
(185,437,o),
(50,429,o),
(50,315,c),
(50,190,o),
(118,132,o),
(260,142,c),
(422,154,l),
(400,275,l),
(277,264,l),
(192,256,o),
(185,291,o),
(185,346,c)
);
},
{
pos = (315,20);
ref = _I_small;
},
{
pos = (315,165);
ref = _I_small;
},
{
pos = (315,319);
ref = _I_small;
},
{
pos = (20,322);
ref = _I_small;
}
);
width = 540;
},
{
layerId = m002;
name = Regular;
shapes = (
{
closed = 1;
nodes = (
(67,406,o),
(40,413,o),
(40,299,c),
(40,258,o),
(68,198,o),
(184,205,cs),
(359,216,l),
(337,243,l),
(181,233,l),
(96,225,o),
(67,260,o),
(67,315,c)
);
},
{
pos = (207,20);
ref = _I_small;
},
{
pos = (207,165);
ref = _I_small;
},
{
pos = (207,309);
ref = _I_small;
},
{
pos = (-88,312);
ref = _I_small;
}
);
width = 422;
},
{
layerId = m003;
name = Regular;
shapes = (
{
closed = 1;
nodes = (
(185,427,o),
(130,440,o),
(130,326,c),
(130,201,o),
(188,162,o),
(330,162,c),
(432,164,l),
(430,255,l),
(287,254,ls),
(202,253,o),
(185,281,o),
(185,336,c)
);
},
{
pos = (315,20);
ref = _I_small;
},
{
pos = (315,165);
ref = _I_small;
},
{
pos = (315,319);
ref = _I_small;
},
{
pos = (20,322);
ref = _I_small;
}
);
width = 540;
},
{
layerId = m004;
name = Regular;
shapes = (
{
closed = 1;
nodes = (
(67,406,o),
(40,413,o),
(40,299,c),
(40,258,o),
(68,198,o),
(184,205,cs),
(359,216,l),
(347,243,l),
(181,233,l),
(96,225,o),
(67,260,o),
(67,315,c)
);
},
{
pos = (207,20);
ref = _I_small;
},
{
pos = (207,165);
ref = _I_small;
},
{
pos = (207,309);
ref = _I_small;
},
{
pos = (-88,312);
ref = _I_small;
}
);
width = 422;
},
{
layerId = m005;
name = Regular;
shapes = (
{
closed = 1;
nodes = (
(205,437,o),
(50,429,o),
(50,315,c),
(50,190,o),
(118,132,o),
(260,142,c),
(422,154,l),
(410,275,l),
(277,264,l),
(192,256,o),
(205,291,o),
(205,346,c)
);
},
{
pos = (315,20);
ref = _I_small;
},
{
pos = (315,165);
ref = _I_small;
},
{
pos = (315,319);
ref = _I_small;
},
{
pos = (20,322);
ref = _I_small;
}
);
width = 500;
},
{
layerId = m006;
name = Regular;
shapes = (
{
closed = 1;
nodes = (
(147,406,o),
(120,413,o),
(120,299,c),
(120,258,o),
(148,198,o),
(264,205,cs),
(439,216,l),
(417,243,l),
(261,233,l),
(176,225,o),
(147,260,o),
(147,315,c)
);
},
{
pos = (287,20);
ref = _I_small;
},
{
pos = (287,165);
ref = _I_small;
},
{
pos = (287,309);
ref = _I_small;
},
{
pos = (-8,312);
ref = _I_small;
}
);
width = 500;
}
);
unicode = 1095;
},
{
glyphname = "softsign-cy";
kernLeft = n;
lastChange = "2024-03-02 13:47:20 +0000";
layers = (
{
layerId = "7EBE3D46-E53E-419E-A3EC-596DA2EA1E0D";
name = Regular;
shapes = (
{
alignment = -1;
angle = 180;
pos = (252,510);
ref = "_i-dotless";
},
{
closed = 1;
nodes = (
(482,198,cs),
(482,303,o),
(405,359,o),
(278,359,cs),
(239,359,o),
(201,359,o),
(167,358,c),
(172,273,l),
(214,274,o),
(233,274,o),
(279,272,cs),
(323,270,o),
(370,250,o),
(370,195,cs),
(370,140,o),
(323,128,o),
(279,126,cs),
(233,124,o),
(214,124,o),
(172,125,c),
(167,0,l),
(278,-1,ls),
(409,-2,o),
(482,92,o)
);
}
);
width = 522;
},
{
layerId = m002;
name = Regular;
shapes = (
{
alignment = -1;
angle = 180;
pos = (242,510);
ref = "_i-dotless";
},
{
closed = 1;
nodes = (
(392,182,cs),
(392,287,o),
(315,359,o),
(188,359,cs),
(149,359,o),
(111,359,o),
(77,358,c),
(82,332,l),
(124,333,o),
(143,332,o),
(189,331,cs),
(303,329,o),
(360,254,o),
(360,179,cs),
(360,94,o),
(303,25,o),
(189,23,cs),
(143,22,o),
(124,21,o),
(82,22,c),
(77,0,l),
(188,-1,ls),
(319,-2,o),
(392,76,o)
);
}
);
width = 432;
},
{
layerId = m003;
name = Regular;
shapes = (
{
alignment = -1;
angle = 180;
pos = (252,510);
ref = "_i-dotless";
},
{
closed = 1;
nodes = (
(422,178,cs),
(422,263,o),
(345,319,o),
(218,319,cs),
(179,319,o),
(141,319,o),
(107,318,c),
(112,273,l),
(154,274,o),
(203,274,o),
(249,272,cs),
(293,270,o),
(370,250,o),
(370,195,cs),
(370,140,o),
(293,128,o),
(249,126,cs),
(203,124,o),
(154,124,o),
(112,125,c),
(107,0,l),
(218,-1,ls),
(349,-2,o),
(422,72,o)
);
}
);
width = 452;
},
{
layerId = m004;
name = Regular;
shapes = (
{
alignment = -1;
angle = 180;
pos = (242,510);
ref = "_i-dotless";
},
{
closed = 1;
nodes = (
(392,182,cs),
(392,287,o),
(315,359,o),
(188,359,cs),
(149,359,o),
(111,359,o),
(77,358,c),
(82,332,l),
(124,333,o),
(143,332,o),
(189,331,cs),
(303,329,o),
(360,254,o),
(360,179,cs),
(360,94,o),
(303,25,o),
(189,23,cs),
(143,22,o),
(124,21,o),
(82,22,c),
(77,0,l),
(188,-1,ls),
(319,-2,o),
(392,76,o)
);
}
);
width = 432;
},
{
layerId = m005;
name = Regular;
shapes = (
{
alignment = -1;
angle = 180;
pos = (252,510);
ref = "_i-dotless";
},
{
closed = 1;
nodes = (
(482,198,cs),
(482,303,o),
(405,359,o),
(278,359,cs),
(239,359,o),
(201,359,o),
(167,358,c),
(172,273,l),
(214,274,o),
(233,274,o),
(279,272,cs),
(323,270,o),
(370,250,o),
(370,195,cs),
(370,140,o),
(323,128,o),
(279,126,cs),
(233,124,o),
(214,124,o),
(172,125,c),
(167,0,l),
(278,-1,ls),
(409,-2,o),
(482,92,o)
);
}
);
width = 500;
},
{
layerId = m006;
name = Regular;
shapes = (
{
alignment = -1;
angle = 180;
pos = (282,510);
ref = "_i-dotless";
},
{
closed = 1;
nodes = (
(432,182,cs),
(432,287,o),
(355,359,o),
(228,359,cs),
(189,359,o),
(151,359,o),
(117,358,c),
(122,332,l),
(164,333,o),
(183,332,o),
(229,331,cs),
(343,329,o),
(400,254,o),
(400,179,cs),
(400,94,o),
(343,25,o),
(229,23,cs),
(183,22,o),
(164,21,o),
(122,22,c),
(117,0,l),
(228,-1,ls),
(359,-2,o),
(432,76,o)
);
}
);
width = 500;
}
);
unicode = 1100;
},
{
glyphname = "hardsign-cy";
lastChange = "2024-03-02 13:47:25 +0000";
layers = (
{
layerId = "7EBE3D46-E53E-419E-A3EC-596DA2EA1E0D";
name = Regular;
shapes = (
{
closed = 1;
nodes = (
(19,350,l),
(171,350,l),
(171,510,l),
(19,510,l)
);
},
{
pos = (37,1);
ref = "softsign-cy";
}
);
width = 550;
},
{
layerId = m002;
name = Regular;
shapes = (
{
closed = 1;
nodes = (
(9,480,l),
(161,480,l),
(161,510,l),
(9,510,l)
);
},
{
pos = (87,1);
ref = "softsign-cy";
}
);
width = 550;
},
{
layerId = m003;
name = Regular;
shapes = (
{
closed = 1;
nodes = (
(19,350,l),
(171,350,l),
(171,510,l),
(19,510,l)
);
},
{
pos = (87,1);
ref = "softsign-cy";
}
);
width = 550;
},
{
layerId = m004;
name = Regular;
shapes = (
{
closed = 1;
nodes = (
(9,480,l),
(161,480,l),
(161,510,l),
(9,510,l)
);
},
{
pos = (87,1);
ref = "softsign-cy";
}
);
width = 519;
},
{
layerId = m005;
name = Regular;
shapes = (
{
closed = 1;
nodes = (
(19,350,l),
(171,350,l),
(171,510,l),
(19,510,l)
);
},
{
pos = (37,1);
ref = "softsign-cy";
}
);
width = 500;
},
{
layerId = m006;
name = Regular;
shapes = (
{
closed = 1;
nodes = (
(9,480,l),
(161,480,l),
(161,510,l),
(9,510,l)
);
},
{
pos = (37,1);
ref = "softsign-cy";
}
);
width = 500;
}
);
unicode = 1098;
},
{
glyphname = "iu-cy";
kernLeft = c;
kernRight = e;
lastChange = "2024-03-02 13:53:30 +0000";
layers = (
{
layerId = "7EBE3D46-E53E-419E-A3EC-596DA2EA1E0D";
name = Regular;
shapes = (
{
alignment = -1;
pos = (33,0);
ref = dotlessi;
},
{
alignment = -1;
pos = (277,0);
ref = o;
},
{
closed = 1;
nodes = (
(179,197,l),
(361,197,l),
(361,318,l),
(179,318,l)
);
}
);
width = 794;
},
{
layerId = m002;
name = Regular;
shapes = (
{
alignment = -1;
ref = dotlessi;
},
{
alignment = -1;
pos = (174,0);
ref = o;
},
{
closed = 1;
nodes = (
(83,236,l),
(225,236,l),
(225,270,l),
(83,270,l)
);
}
);
width = 691;
},
{
layerId = m003;
name = Regular;
shapes = (
{
alignment = -1;
pos = (-200,0);
ref = dotlessi;
},
{
alignment = -1;
pos = (244,0);
ref = o;
},
{
closed = 1;
nodes = (
(186,227,l),
(328,227,l),
(328,278,l),
(186,278,l)
);
}
);
width = 761;
},
{
layerId = m004;
name = Regular;
shapes = (
{
alignment = -1;
pos = (-181,0);
ref = dotlessi;
},
{
alignment = -1;
pos = (213,0);
ref = o;
},
{
closed = 1;
nodes = (
(122,236,l),
(264,236,l),
(264,270,l),
(122,270,l)
);
}
);
width = 730;
},
{
layerId = m005;
name = Regular;
shapes = (
{
alignment = -1;
pos = (33,0);
ref = dotlessi;
},
{
alignment = -1;
pos = (477,0);
ref = o;
},
{
closed = 1;
nodes = (
(379,197,l),
(561,197,l),
(561,318,l),
(379,318,l)
);
}
);
width = 1000;
},
{
layerId = m006;
name = Regular;
shapes = (
{
alignment = -1;
ref = dotlessi;
},
{
alignment = -1;
pos = (374,0);
ref = o;
},
{
closed = 1;
nodes = (
(283,236,l),
(425,236,l),
(425,270,l),
(283,270,l)
);
}
);
width = 1000;
}
);
unicode = 1102;
},
{
glyphname = "ia-cy";
kernLeft = e;
kernRight = n;
lastChange = "2024-03-05 14:34:44 +0000";
layers = (
{
layerId = "7EBE3D46-E53E-419E-A3EC-596DA2EA1E0D";
name = Regular;
shapes = (
{
closed = 1;
nodes = (
(254,117,l),
(279,161,o),
(335,151,o),
(368,153,c),
(376,154,o),
(440,210,o),
(378,225,c),
(364,229,o),
(253,211,o),
(229,211,c),
(157,204,o),
(115,147,o),
(69,43,c),
(50,0,l),
(192,-10,l)
);
},
{
angle = 180;
pos = (522,508);
ref = "softsign-cy";
}
);
width = 522;
},
{
layerId = m002;
name = Regular;
shapes = (
{
closed = 1;
nodes = (
(162,113,ls),
(188,155,o),
(234,147,o),
(266,149,c),
(275,150,o),
(354,155,o),
(292,170,c),
(278,174,o),
(233,170,o),
(229,170,c),
(157,163,o),
(160,157,o),
(106,72,cs),
(60,0,l),
(92,0,l)
);
},
{
angle = 180;
pos = (438,508);
ref = "softsign-cy";
}
);
width = 438;
},
{
layerId = m003;
name = Regular;
shapes = (
{
closed = 1;
nodes = (
(254,117,l),
(279,161,o),
(296,191,o),
(409,193,c),
(417,194,o),
(440,210,o),
(378,225,c),
(364,229,o),
(253,211,o),
(229,211,c),
(157,204,o),
(125,147,o),
(79,43,c),
(60,0,l),
(192,0,l)
);
},
{
angle = 180;
pos = (522,508);
ref = "softsign-cy";
}
);
width = 522;
},
{
layerId = m004;
name = Regular;
shapes = (
{
closed = 1;
nodes = (
(162,113,ls),
(188,155,o),
(234,147,o),
(266,149,c),
(275,150,o),
(354,155,o),
(292,170,c),
(278,174,o),
(233,170,o),
(229,170,c),
(157,163,o),
(160,157,o),
(106,72,cs),
(60,0,l),
(92,0,l)
);
},
{
angle = 180;
pos = (438,508);
ref = "softsign-cy";
}
);
width = 438;
},
{
layerId = m005;
name = Regular;
shapes = (
{
closed = 1;
nodes = (
(254,117,l),
(279,161,o),
(335,151,o),
(368,153,c),
(376,154,o),
(440,210,o),
(378,225,c),
(364,229,o),
(253,211,o),
(229,211,c),
(157,204,o),
(115,147,o),
(69,43,c),
(50,0,l),
(192,-10,l)
);
},
{
angle = 180;
pos = (522,508);
ref = "softsign-cy";
}
);
width = 500;
},
{
layerId = m006;
name = Regular;
shapes = (
{
closed = 1;
nodes = (
(162,113,ls),
(188,155,o),
(234,147,o),
(266,149,c),
(275,150,o),
(354,155,o),
(292,170,c),
(278,174,o),
(233,170,o),
(229,170,c),
(157,163,o),
(160,157,o),
(106,72,cs),
(60,0,l),
(92,0,l)
);
},
{
angle = 180;
pos = (488,508);
ref = "softsign-cy";
}
);
width = 500;
}
);
unicode = 1103;
},
{
glyphname = zero;
lastChange = "2024-02-24 08:57:05 +0000";
layers = (
{
layerId = "7EBE3D46-E53E-419E-A3EC-596DA2EA1E0D";
name = Regular;
shapes = (
{
closed = 1;
nodes = (
(340,7,l),
(355,7,l),
(340,127,l)
);
},
{
angle = 180;
pos = (532,505);
ref = _o_curve;
},
{
pos = (26,505);
ref = _o_curve;
scale = (1,-1);
},
{
pos = (532,160);
ref = _o_curve;
scale = (-1,1);
},
{
pos = (26,160);
ref = _o_curve;
},
{
closed = 1;
nodes = (
(60,245,l),
(183,245,l),
(183,412,l),
(60,412,l)
);
},
{
closed = 1;
nodes = (
(375,244,l),
(498,244,l),
(498,411,l),
(375,411,l)
);
}
);
width = 558;
},
{
layerId = m002;
name = Regular;
shapes = (
{
closed = 1;
nodes = (
(340,7,l),
(355,7,l),
(353,20,l)
);
},
{
angle = 180;
pos = (532,505);
ref = _o_curve;
},
{
pos = (26,505);
ref = _o_curve;
scale = (1,-1);
},
{
pos = (532,129);
ref = _o_curve;
scale = (-1,1);
},
{
pos = (26,129);
ref = _o_curve;
},
{
closed = 1;
nodes = (
(60,255,l),
(90,255,l),
(90,382,l),
(60,382,l)
);
},
{
closed = 1;
nodes = (
(468,254,l),
(498,254,l),
(498,381,l),
(468,381,l)
);
}
);
width = 558;
},
{
layerId = m003;
name = Regular;
shapes = (
{
closed = 1;
nodes = (
(340,7,l),
(355,7,l),
(340,127,l)
);
},
{
angle = 180;
pos = (532,505);
ref = _o_curve;
},
{
pos = (26,505);
ref = _o_curve;
scale = (1,-1);
},
{
pos = (532,160);
ref = _o_curve;
scale = (-1,1);
},
{
pos = (26,160);
ref = _o_curve;
},
{
closed = 1;
nodes = (
(60,245,l),
(103,245,l),
(103,412,l),
(60,412,l)
);
},
{
closed = 1;
nodes = (
(455,244,l),
(498,244,l),
(498,411,l),
(455,411,l)
);
}
);
width = 558;
},
{
layerId = m004;
name = Regular;
shapes = (
{
closed = 1;
nodes = (
(340,7,l),
(355,7,l),
(353,20,l)
);
},
{
angle = 180;
pos = (532,505);
ref = _o_curve;
},
{
pos = (26,505);
ref = _o_curve;
scale = (1,-1);
},
{
pos = (532,129);
ref = _o_curve;
scale = (-1,1);
},
{
pos = (26,129);
ref = _o_curve;
},
{
closed = 1;
nodes = (
(60,255,l),
(90,255,l),
(90,382,l),
(60,382,l)
);
},
{
closed = 1;
nodes = (
(468,254,l),
(498,254,l),
(498,381,l),
(468,381,l)
);
}
);
width = 558;
},
{
layerId = m005;
name = Regular;
shapes = (
{
closed = 1;
nodes = (
(340,7,l),
(355,7,l),
(340,127,l)
);
},
{
angle = 180;
pos = (532,505);
ref = _o_curve;
},
{
pos = (26,505);
ref = _o_curve;
scale = (1,-1);
},
{
pos = (532,160);
ref = _o_curve;
scale = (-1,1);
},
{
pos = (26,160);
ref = _o_curve;
},
{
closed = 1;
nodes = (
(60,245,l),
(183,245,l),
(183,412,l),
(60,412,l)
);
},
{
closed = 1;
nodes = (
(375,244,l),
(498,244,l),
(498,411,l),
(375,411,l)
);
}
);
width = 500;
},
{
layerId = m006;
name = Regular;
shapes = (
{
closed = 1;
nodes = (
(340,7,l),
(355,7,l),
(353,20,l)
);
},
{
angle = 180;
pos = (532,505);
ref = _o_curve;
},
{
pos = (26,505);
ref = _o_curve;
scale = (1,-1);
},
{
pos = (532,129);
ref = _o_curve;
scale = (-1,1);
},
{
pos = (26,129);
ref = _o_curve;
},
{
closed = 1;
nodes = (
(60,255,l),
(90,255,l),
(90,382,l),
(60,382,l)
);
},
{
closed = 1;
nodes = (
(468,254,l),
(498,254,l),
(498,381,l),
(468,381,l)
);
}
);
width = 500;
}
);
unicode = 48;
},
{
glyphname = one;
lastChange = "2024-03-02 13:57:25 +0000";
layers = (
{
layerId = "7EBE3D46-E53E-419E-A3EC-596DA2EA1E0D";
name = Regular;
shapes = (
{
pos = (185,19);
ref = _I_small;
},
{
pos = (185,168);
ref = _I_small;
},
{
pos = (185,331);
ref = _I_small;
},
{
pos = (185,352);
ref = _I_small;
},
{
closed = 1;
nodes = (
(68,318,o),
(135,296,o),
(180,283,c),
(370,455,l),
(370,637,l),
(370,649,o),
(365,664,o),
(348,669,cs),
(331,674,o),
(318,660,o),
(311,655,c),
(30,338,l)
);
}
);
width = 420;
},
{
layerId = m002;
name = Regular;
shapes = (
{
pos = (119,19);
ref = _I_small;
},
{
pos = (119,168);
ref = _I_small;
},
{
pos = (119,331);
ref = _I_small;
},
{
pos = (119,412);
ref = _I_small;
},
{
closed = 1;
nodes = (
(29,381,o),
(46,374,o),
(53,373,c),
(262,604,l),
(274,608,l),
(274,628,o),
(270,636,o),
(260,636,cs),
(252,636,o),
(245,631,o),
(240,625,c),
(22,385,l)
);
}
);
width = 332;
},
{
layerId = m003;
name = Regular;
shapes = (
{
pos = (195,19);
ref = _I_small;
},
{
pos = (195,168);
ref = _I_small;
},
{
pos = (195,321);
ref = _I_small;
},
{
pos = (195,392);
ref = _I_small;
},
{
closed = 1;
nodes = (
(58,318,o),
(115,306,o),
(160,293,c),
(360,575,l),
(360,637,l),
(360,649,o),
(355,664,o),
(338,669,cs),
(321,674,o),
(308,660,o),
(301,655,c),
(20,338,l)
);
}
);
width = 420;
},
{
layerId = m004;
name = Regular;
shapes = (
{
pos = (119,19);
ref = _I_small;
},
{
pos = (119,168);
ref = _I_small;
},
{
pos = (119,371);
ref = _I_small;
},
{
pos = (119,411);
ref = _I_small;
},
{
closed = 1;
nodes = (
(29,381,o),
(46,374,o),
(53,373,c),
(262,604,l),
(274,608,l),
(274,620,o),
(270,636,o),
(260,636,cs),
(252,636,o),
(245,631,o),
(240,625,c),
(22,385,l)
);
}
);
width = 332;
},
{
layerId = m005;
name = Regular;
shapes = (
{
pos = (185,19);
ref = _I_small;
},
{
pos = (185,168);
ref = _I_small;
},
{
pos = (185,331);
ref = _I_small;
},
{
pos = (185,352);
ref = _I_small;
},
{
closed = 1;
nodes = (
(68,318,o),
(135,296,o),
(180,283,c),
(370,455,l),
(370,637,l),
(370,649,o),
(365,664,o),
(348,669,cs),
(331,674,o),
(318,660,o),
(311,655,c),
(30,338,l)
);
}
);
width = 500;
},
{
layerId = m006;
name = Regular;
shapes = (
{
pos = (169,19);
ref = _I_small;
},
{
pos = (169,168);
ref = _I_small;
},
{
pos = (169,331);
ref = _I_small;
},
{
pos = (169,412);
ref = _I_small;
},
{
closed = 1;
nodes = (
(79,381,o),
(96,374,o),
(103,373,c),
(312,604,l),
(324,608,l),
(324,628,o),
(320,636,o),
(310,636,cs),
(302,636,o),
(295,631,o),
(290,625,c),
(72,385,l)
);
}
);
width = 500;
}
);
unicode = 49;
},
{
glyphname = two;
lastChange = "2024-03-01 19:56:19 +0000";
layers = (
{
layerId = "7EBE3D46-E53E-419E-A3EC-596DA2EA1E0D";
name = Regular;
shapes = (
{
closed = 1;
nodes = (
(306,352,o),
(235,277,o),
(177,216,cs),
(134,171,o),
(100,129,o),
(62,85,cs),
(50,72,o),
(24,46,o),
(24,27,cs),
(24,4,o),
(53,0,o),
(76,0,cs),
(77,0,l),
(181,0,l),
(208,30,o),
(155,56,o),
(186,88,c),
(286,190,o),
(438,303,o),
(438,440,cs),
(438,577,o),
(360,668,o),
(214,668,cs),
(166,668,o),
(86,658,o),
(27,634,c),
(31,584,o),
(40,525,o),
(52,479,c),
(91,499,o),
(139,508,o),
(200,508,cs),
(273,508,o),
(306,480,o),
(306,416,cs)
);
},
{
angle = 180;
pos = (488,452);
ref = _EF_horizontal;
},
{
angle = 180;
pos = (576,452);
ref = _EF_horizontal;
}
);
width = 512;
},
{
layerId = m002;
name = Regular;
shapes = (
{
closed = 1;
nodes = (
(422,336,o),
(348,262,o),
(281,210,cs),
(231,171,o),
(191,137,o),
(141,100,cs),
(126,89,o),
(50,36,o),
(50,17,cs),
(50,4,o),
(59,0,o),
(72,0,cs),
(93,0,l),
(79,13,l),
(106,43,o),
(151,69,o),
(185,95,cs),
(331,205,o),
(454,293,o),
(454,450,cs),
(454,567,o),
(366,636,o),
(230,636,cs),
(182,636,o),
(112,628,o),
(53,594,c),
(55,582,o),
(56,571,o),
(58,559,c),
(121,599,o),
(171,604,o),
(232,604,cs),
(349,604,o),
(422,547,o),
(422,453,cs)
);
},
{
angle = 180;
pos = (429,387);
ref = _EF_horizontal;
},
{
angle = 180;
pos = (582,387);
ref = _EF_horizontal;
}
);
width = 518;
},
{
layerId = m003;
name = Regular;
shapes = (
{
closed = 1;
nodes = (
(306,350,o),
(243,290,o),
(188,246,cs),
(173,234,o),
(140,202,o),
(96,164,cs),
(83,153,o),
(34,113,o),
(34,64,cs),
(34,31,o),
(53,0,o),
(106,0,cs),
(107,0,l),
(151,0,l),
(178,30,o),
(114,116,o),
(145,148,c),
(260,238,o),
(438,343,o),
(438,490,cs),
(438,597,o),
(360,668,o),
(214,668,cs),
(166,668,o),
(86,658,o),
(27,634,c),
(31,584,o),
(40,525,o),
(52,479,c),
(91,499,o),
(139,508,o),
(200,508,cs),
(273,508,o),
(306,480,o),
(306,416,cs)
);
},
{
angle = 180;
pos = (468,452);
ref = _EF_horizontal;
},
{
angle = 180;
pos = (576,452);
ref = _EF_horizontal;
}
);
width = 512;
},
{
layerId = m004;
name = Regular;
shapes = (
{
closed = 1;
nodes = (
(422,336,o),
(348,262,o),
(281,210,cs),
(231,171,o),
(191,137,o),
(141,100,cs),
(126,89,o),
(50,36,o),
(50,17,cs),
(50,4,o),
(59,0,o),
(72,0,cs),
(93,0,l),
(79,13,l),
(106,43,o),
(151,69,o),
(185,95,cs),
(331,205,o),
(454,293,o),
(454,450,cs),
(454,567,o),
(366,636,o),
(230,636,cs),
(182,636,o),
(112,628,o),
(53,594,c),
(55,582,o),
(56,571,o),
(58,559,c),
(121,599,o),
(171,604,o),
(232,604,cs),
(349,604,o),
(422,547,o),
(422,453,cs)
);
},
{
angle = 180;
pos = (429,387);
ref = _EF_horizontal;
},
{
angle = 180;
pos = (582,387);
ref = _EF_horizontal;
}
);
width = 518;
},
{
layerId = m005;
name = Regular;
shapes = (
{
closed = 1;
nodes = (
(306,352,o),
(235,277,o),
(177,216,cs),
(134,171,o),
(100,129,o),
(62,85,cs),
(50,72,o),
(24,46,o),
(24,27,cs),
(24,4,o),
(53,0,o),
(76,0,cs),
(77,0,l),
(181,0,l),
(208,30,o),
(155,56,o),
(186,88,c),
(286,190,o),
(438,303,o),
(438,440,cs),
(438,577,o),
(360,668,o),
(214,668,cs),
(166,668,o),
(86,658,o),
(27,634,c),
(31,584,o),
(40,525,o),
(52,479,c),
(91,499,o),
(139,508,o),
(200,508,cs),
(273,508,o),
(306,480,o),
(306,416,cs)
);
},
{
angle = 180;
pos = (558,452);
ref = _EF_horizontal;
},
{
angle = 180;
pos = (646,452);
ref = _EF_horizontal;
}
);
width = 500;
},
{
layerId = m006;
name = Regular;
shapes = (
{
closed = 1;
nodes = (
(422,336,o),
(348,262,o),
(281,210,cs),
(231,171,o),
(191,137,o),
(141,100,cs),
(126,89,o),
(50,36,o),
(50,17,cs),
(50,4,o),
(59,0,o),
(72,0,cs),
(93,0,l),
(79,13,l),
(106,43,o),
(151,69,o),
(185,95,cs),
(331,205,o),
(454,293,o),
(454,450,cs),
(454,567,o),
(366,636,o),
(230,636,cs),
(182,636,o),
(112,628,o),
(53,594,c),
(55,582,o),
(56,571,o),
(58,559,c),
(121,599,o),
(171,604,o),
(232,604,cs),
(349,604,o),
(422,547,o),
(422,453,cs)
);
},
{
angle = 180;
pos = (429,387);
ref = _EF_horizontal;
},
{
angle = 180;
pos = (582,387);
ref = _EF_horizontal;
}
);
width = 500;
}
);
unicode = 50;
},
{
glyphname = four;
lastChange = "2024-02-24 08:57:05 +0000";
layers = (
{
layerId = "7EBE3D46-E53E-419E-A3EC-596DA2EA1E0D";
name = Regular;
shapes = (
{
alignment = -1;
pos = (271,19);
ref = _I_small;
},
{
alignment = -1;
pos = (271,335);
ref = _I_small;
},
{
alignment = -1;
pos = (158,-84);
ref = "_dash-small";
},
{
alignment = -1;
pos = (8,-84);
ref = "_dash-small";
},
{
alignment = -1;
pos = (271,162);
ref = _I_small;
},
{
closed = 1;
nodes = (
(-1,167,o),
(12,138,o),
(51,138,cs),
(150,138,l),
(456,519,l),
(456,631,l),
(456,643,o),
(451,658,o),
(434,663,cs),
(417,668,o),
(404,654,o),
(397,649,c),
(19,191,ls)
);
},
{
alignment = -1;
pos = (-57,-84);
ref = "_dash-small";
}
);
width = 550;
},
{
layerId = m002;
name = Regular;
shapes = (
{
alignment = -1;
pos = (276,19);
ref = _I_small;
},
{
alignment = -1;
pos = (276,419);
ref = _I_small;
},
{
alignment = -1;
pos = (133,-84);
ref = "_dash-small";
},
{
alignment = -1;
pos = (-7,-84);
ref = "_dash-small";
},
{
alignment = -1;
pos = (276,222);
ref = _I_small;
},
{
closed = 1;
nodes = (
(44,189,o),
(57,175,o),
(66,175,cs),
(72,175,l),
(431,617,l),
(431,619,l),
(431,631,o),
(426,638,o),
(418,638,cs),
(407,638,o),
(401,632,o),
(391,619,cs),
(54,201,ls)
);
},
{
alignment = -1;
pos = (-72,-84);
ref = "_dash-small";
}
);
width = 545;
},
{
layerId = m003;
name = Regular;
shapes = (
{
alignment = -1;
pos = (281,19);
ref = _I_small;
},
{
alignment = -1;
pos = (281,405);
ref = _I_small;
},
{
alignment = -1;
pos = (158,-84);
ref = "_dash-small";
},
{
alignment = -1;
pos = (8,-84);
ref = "_dash-small";
},
{
alignment = -1;
pos = (281,222);
ref = _I_small;
},
{
closed = 1;
nodes = (
(-1,167,o),
(12,138,o),
(51,138,cs),
(80,138,l),
(456,579,l),
(456,631,l),
(456,643,o),
(451,658,o),
(434,663,cs),
(417,668,o),
(404,654,o),
(397,649,c),
(19,191,ls)
);
},
{
alignment = -1;
pos = (-77,-84);
ref = "_dash-small";
}
);
width = 550;
},
{
layerId = m004;
name = Regular;
shapes = (
{
alignment = -1;
pos = (276,19);
ref = _I_small;
},
{
alignment = -1;
pos = (276,419);
ref = _I_small;
},
{
alignment = -1;
pos = (133,-84);
ref = "_dash-small";
},
{
alignment = -1;
pos = (-7,-84);
ref = "_dash-small";
},
{
alignment = -1;
pos = (276,222);
ref = _I_small;
},
{
closed = 1;
nodes = (
(44,189,o),
(57,175,o),
(66,175,cs),
(72,175,l),
(431,617,l),
(431,619,l),
(431,631,o),
(426,638,o),
(418,638,cs),
(407,638,o),
(401,632,o),
(391,619,cs),
(54,201,ls)
);
},
{
alignment = -1;
pos = (-72,-84);
ref = "_dash-small";
}
);
width = 545;
},
{
layerId = m005;
name = Regular;
shapes = (
{
alignment = -1;
pos = (271,19);
ref = _I_small;
},
{
alignment = -1;
pos = (271,335);
ref = _I_small;
},
{
alignment = -1;
pos = (158,-84);
ref = "_dash-small";
},
{
alignment = -1;
pos = (8,-84);
ref = "_dash-small";
},
{
alignment = -1;
pos = (271,162);
ref = _I_small;
},
{
closed = 1;
nodes = (
(-1,167,o),
(12,138,o),
(51,138,cs),
(150,138,l),
(456,519,l),
(456,631,l),
(456,643,o),
(451,658,o),
(434,663,cs),
(417,668,o),
(404,654,o),
(397,649,c),
(19,191,ls)
);
},
{
alignment = -1;
pos = (-57,-84);
ref = "_dash-small";
}
);
width = 500;
},
{
layerId = m006;
name = Regular;
shapes = (
{
alignment = -1;
pos = (276,19);
ref = _I_small;
},
{
alignment = -1;
pos = (276,419);
ref = _I_small;
},
{
alignment = -1;
pos = (133,-84);
ref = "_dash-small";
},
{
alignment = -1;
pos = (-7,-84);
ref = "_dash-small";
},
{
alignment = -1;
pos = (276,222);
ref = _I_small;
},
{
closed = 1;
nodes = (
(44,189,o),
(57,175,o),
(66,175,cs),
(72,175,l),
(431,617,l),
(431,619,l),
(431,631,o),
(426,638,o),
(418,638,cs),
(407,638,o),
(401,632,o),
(391,619,cs),
(54,201,ls)
);
},
{
alignment = -1;
pos = (-72,-84);
ref = "_dash-small";
}
);
width = 500;
}
);
unicode = 52;
},
{
glyphname = five;
lastChange = "2024-02-24 08:57:05 +0000";
layers = (
{
layerId = "7EBE3D46-E53E-419E-A3EC-596DA2EA1E0D";
name = Regular;
shapes = (
{
closed = 1;
nodes = (
(120,11,o),
(200,-2,o),
(248,-2,cs),
(399,-2,o),
(482,78,o),
(482,239,cs),
(482,398,o),
(323,438,o),
(191,418,c),
(205,504,l),
(459,503,l),
(489,661,l),
(142,660,l),
(94,362,ls),
(89,328,o),
(103,320,o),
(126,323,cs),
(241,340,o),
(360,321,o),
(360,239,cs),
(360,136,o),
(192,148,o),
(86,202,c),
(61,55,l)
);
}
);
width = 545;
},
{
layerId = m002;
name = Regular;
shapes = (
{
closed = 1;
nodes = (
(120,11,o),
(200,-2,o),
(248,-2,cs),
(399,-2,o),
(482,78,o),
(482,210,cs),
(482,408,o),
(268,408,o),
(136,388,c),
(182,601,l),
(441,600,l),
(448,631,l),
(162,630,l),
(111,383,ls),
(108,368,o),
(111,359,o),
(134,362,cs),
(247,379,o),
(455,384,o),
(455,209,cs),
(455,-13,o),
(180,0,o),
(65,78,c),
(61,55,l)
);
}
);
width = 545;
},
{
layerId = m003;
name = Regular;
shapes = (
{
closed = 1;
nodes = (
(120,11,o),
(200,-2,o),
(248,-2,cs),
(399,-2,o),
(482,78,o),
(482,239,cs),
(482,418,o),
(343,468,o),
(141,418,c),
(155,504,l),
(459,503,l),
(489,661,l),
(142,660,l),
(94,362,ls),
(89,328,o),
(103,320,o),
(126,323,cs),
(241,340,o),
(440,351,o),
(440,239,cs),
(440,116,o),
(192,148,o),
(86,202,c),
(61,55,l)
);
}
);
width = 545;
},
{
layerId = m004;
name = Regular;
shapes = (
{
closed = 1;
nodes = (
(120,11,o),
(200,-2,o),
(248,-2,cs),
(399,-2,o),
(482,78,o),
(482,210,cs),
(482,408,o),
(268,408,o),
(136,388,c),
(182,601,l),
(441,600,l),
(448,631,l),
(162,630,l),
(111,383,ls),
(108,368,o),
(111,359,o),
(134,362,cs),
(247,379,o),
(455,384,o),
(455,209,cs),
(455,-13,o),
(180,0,o),
(65,78,c),
(61,55,l)
);
}
);
width = 545;
},
{
layerId = m005;
name = Regular;
shapes = (
{
closed = 1;
nodes = (
(120,11,o),
(200,-2,o),
(248,-2,cs),
(399,-2,o),
(482,78,o),
(482,239,cs),
(482,398,o),
(323,438,o),
(191,418,c),
(205,504,l),
(459,503,l),
(489,661,l),
(142,660,l),
(94,362,ls),
(89,328,o),
(103,320,o),
(126,323,cs),
(241,340,o),
(360,321,o),
(360,239,cs),
(360,136,o),
(192,148,o),
(86,202,c),
(61,55,l)
);
}
);
width = 500;
},
{
layerId = m006;
name = Regular;
shapes = (
{
closed = 1;
nodes = (
(120,11,o),
(200,-2,o),
(248,-2,cs),
(399,-2,o),
(482,78,o),
(482,210,cs),
(482,408,o),
(268,408,o),
(136,388,c),
(182,601,l),
(441,600,l),
(448,631,l),
(162,630,l),
(111,383,ls),
(108,368,o),
(111,359,o),
(134,362,cs),
(247,379,o),
(455,384,o),
(455,209,cs),
(455,-13,o),
(180,0,o),
(65,78,c),
(61,55,l)
);
}
);
width = 500;
}
);
unicode = 53;
},
{
glyphname = six;
lastChange = "2024-02-24 08:57:05 +0000";
layers = (
{
layerId = "7EBE3D46-E53E-419E-A3EC-596DA2EA1E0D";
name = Regular;
shapes = (
{
closed = 1;
nodes = (
(210,146,o),
(174,184,o),
(174,244,cs),
(174,300,o),
(210,342,o),
(281,342,cs),
(340,342,o),
(384,305,o),
(384,241,cs),
(384,183,o),
(337,146,o),
(279,146,cs)
);
},
{
closed = 1;
nodes = (
(60,128,o),
(123,-11,o),
(289,-11,cs),
(450,-11,o),
(498,125,o),
(498,218,cs),
(498,336,o),
(429,441,o),
(303,441,cs),
(237,441,o),
(196,422,o),
(171,394,c),
(178,452,o),
(213,517,o),
(308,517,cs),
(354,517,o),
(403,509,o),
(435,494,c),
(451,546,o),
(461,590,o),
(460,641,c),
(419,659,o),
(368,668,o),
(292,668,cs),
(147,668,o),
(60,507,o),
(60,318,cs)
);
}
);
width = 558;
},
{
layerId = m002;
name = Regular;
shapes = (
{
closed = 1;
nodes = (
(128,23,o),
(79,154,o),
(79,233,cs),
(79,311,o),
(147,417,o),
(272,417,cs),
(376,417,o),
(448,352,o),
(448,207,cs),
(448,82,o),
(347,23,o),
(264,23,cs)
);
},
{
closed = 1;
nodes = (
(42,146,o),
(92,-4,o),
(258,-4,cs),
(439,-4,o),
(477,132,o),
(477,208,cs),
(477,336,o),
(415,441,o),
(274,441,cs),
(185,441,o),
(121,424,o),
(68,298,c),
(68,480,o),
(142,610,o),
(261,610,cs),
(336,610,o),
(392,587,o),
(422,570,c),
(424,578,o),
(425,591,o),
(425,602,c),
(384,620,o),
(348,638,o),
(271,638,cs),
(99,638,o),
(42,468,o),
(42,289,cs)
);
}
);
width = 527;
},
{
layerId = m003;
name = Regular;
shapes = (
{
closed = 1;
nodes = (
(150,126,o),
(114,164,o),
(114,224,cs),
(114,280,o),
(150,322,o),
(281,322,cs),
(410,322,o),
(454,285,o),
(454,221,cs),
(454,163,o),
(407,126,o),
(279,126,cs)
);
},
{
closed = 1;
nodes = (
(60,128,o),
(123,-11,o),
(289,-11,cs),
(450,-11,o),
(498,125,o),
(498,218,cs),
(498,336,o),
(429,441,o),
(303,441,cs),
(237,441,o),
(156,432,o),
(111,354,c),
(118,432,o),
(183,517,o),
(278,517,cs),
(324,517,o),
(403,509,o),
(435,494,c),
(451,546,o),
(461,590,o),
(460,641,c),
(419,659,o),
(368,668,o),
(292,668,cs),
(137,668,o),
(60,507,o),
(60,318,cs)
);
}
);
width = 558;
},
{
layerId = m004;
name = Regular;
shapes = (
{
closed = 1;
nodes = (
(128,23,o),
(79,154,o),
(79,233,cs),
(79,311,o),
(147,417,o),
(272,417,cs),
(376,417,o),
(448,352,o),
(448,207,cs),
(448,82,o),
(347,23,o),
(264,23,cs)
);
},
{
closed = 1;
nodes = (
(42,146,o),
(92,-4,o),
(258,-4,cs),
(439,-4,o),
(477,132,o),
(477,208,cs),
(477,336,o),
(415,441,o),
(274,441,cs),
(185,441,o),
(121,424,o),
(68,298,c),
(68,480,o),
(142,610,o),
(261,610,cs),
(336,610,o),
(392,587,o),
(422,570,c),
(424,578,o),
(425,591,o),
(425,602,c),
(384,620,o),
(348,638,o),
(271,638,cs),
(99,638,o),
(42,468,o),
(42,289,cs)
);
}
);
width = 527;
},
{
layerId = m005;
name = Regular;
shapes = (
{
closed = 1;
nodes = (
(210,146,o),
(174,184,o),
(174,244,cs),
(174,300,o),
(210,342,o),
(281,342,cs),
(340,342,o),
(384,305,o),
(384,241,cs),
(384,183,o),
(337,146,o),
(279,146,cs)
);
},
{
closed = 1;
nodes = (
(60,128,o),
(123,-11,o),
(289,-11,cs),
(450,-11,o),
(498,125,o),
(498,218,cs),
(498,336,o),
(429,441,o),
(303,441,cs),
(237,441,o),
(196,422,o),
(171,394,c),
(178,452,o),
(213,517,o),
(308,517,cs),
(354,517,o),
(403,509,o),
(435,494,c),
(451,546,o),
(461,590,o),
(460,641,c),
(419,659,o),
(368,668,o),
(292,668,cs),
(147,668,o),
(60,507,o),
(60,318,cs)
);
}
);
width = 500;
},
{
layerId = m006;
name = Regular;
shapes = (
{
closed = 1;
nodes = (
(128,23,o),
(79,154,o),
(79,233,cs),
(79,311,o),
(147,417,o),
(272,417,cs),
(376,417,o),
(448,352,o),
(448,207,cs),
(448,82,o),
(347,23,o),
(264,23,cs)
);
},
{
closed = 1;
nodes = (
(42,146,o),
(92,-4,o),
(258,-4,cs),
(439,-4,o),
(477,132,o),
(477,208,cs),
(477,336,o),
(415,441,o),
(274,441,cs),
(185,441,o),
(121,424,o),
(68,298,c),
(68,480,o),
(142,610,o),
(261,610,cs),
(336,610,o),
(392,587,o),
(422,570,c),
(424,578,o),
(425,591,o),
(425,602,c),
(384,620,o),
(348,638,o),
(271,638,cs),
(99,638,o),
(42,468,o),
(42,289,cs)
);
}
);
width = 500;
}
);
unicode = 54;
},
{
glyphname = seven;
lastChange = "2024-03-01 19:56:37 +0000";
layers = (
{
layerId = "7EBE3D46-E53E-419E-A3EC-596DA2EA1E0D";
name = Regular;
shapes = (
{
alignment = -1;
pos = (82,208);
ref = _EF_horizontal;
},
{
alignment = -1;
pos = (-94,208);
ref = _EF_horizontal;
},
{
closed = 1;
nodes = (
(483,619,ls),
(495,648,o),
(491,660,o),
(455,660,cs),
(379,660,l),
(71,0,l),
(223,0,l)
);
}
);
width = 517;
},
{
layerId = m002;
name = Regular;
shapes = (
{
alignment = -1;
pos = (82,243);
ref = _EF_horizontal;
},
{
alignment = -1;
pos = (-94,243);
ref = _EF_horizontal;
},
{
closed = 1;
nodes = (
(441,600,ls),
(448,618,o),
(450,630,o),
(435,630,cs),
(429,630,l),
(181,0,l),
(211,0,l)
);
}
);
width = 506;
},
{
layerId = m003;
name = Regular;
shapes = (
{
alignment = -1;
pos = (82,208);
ref = _EF_horizontal;
},
{
alignment = -1;
pos = (-94,208);
ref = _EF_horizontal;
},
{
closed = 1;
nodes = (
(483,619,ls),
(495,648,o),
(491,660,o),
(455,660,cs),
(419,660,l),
(161,0,l),
(223,0,l)
);
}
);
width = 517;
},
{
layerId = m004;
name = Regular;
shapes = (
{
alignment = -1;
pos = (82,243);
ref = _EF_horizontal;
},
{
alignment = -1;
pos = (-94,243);
ref = _EF_horizontal;
},
{
closed = 1;
nodes = (
(441,600,ls),
(448,618,o),
(450,630,o),
(435,630,cs),
(429,630,l),
(181,0,l),
(211,0,l)
);
}
);
width = 506;
},
{
layerId = m005;
name = Regular;
shapes = (
{
alignment = -1;
pos = (12,208);
ref = _EF_horizontal;
},
{
alignment = -1;
pos = (-94,208);
ref = _EF_horizontal;
},
{
closed = 1;
nodes = (
(483,619,ls),
(495,648,o),
(491,660,o),
(455,660,cs),
(379,660,l),
(71,0,l),
(223,0,l)
);
}
);
width = 500;
},
{
layerId = m006;
name = Regular;
shapes = (
{
alignment = -1;
pos = (82,243);
ref = _EF_horizontal;
},
{
alignment = -1;
pos = (-94,243);
ref = _EF_horizontal;
},
{
closed = 1;
nodes = (
(441,600,ls),
(448,618,o),
(450,630,o),
(435,630,cs),
(429,630,l),
(181,0,l),
(211,0,l)
);
}
);
width = 500;
}
);
unicode = 55;
},
{
glyphname = eight;
lastChange = "2024-03-02 13:58:12 +0000";
layers = (
{
layerId = "7EBE3D46-E53E-419E-A3EC-596DA2EA1E0D";
name = Regular;
shapes = (
{
closed = 1;
nodes = (
(71,442,o),
(90,393,o),
(128,346,c),
(86,312,o),
(60,256,o),
(60,180,c),
(60,59,o),
(142,-22,o),
(301,-22,c),
(451,-22,o),
(543,67,o),
(543,180,c),
(543,259,o),
(503,319,o),
(453,351,c),
(501,384,o),
(533,436,o),
(533,482,c),
(533,619,o),
(435,678,o),
(301,678,c),
(156,678,o),
(71,618,o),
(71,482,c)
);
},
{
closed = 1;
nodes = (
(178,282,o),
(227,300,o),
(298,300,c),
(365,300,o),
(415,280,o),
(415,231,c),
(415,187,o),
(389,158,o),
(298,158,c),
(201,158,o),
(178,187,o),
(178,225,c)
);
},
{
closed = 1;
nodes = (
(192,487,o),
(224,512,o),
(302,512,c),
(378,512,o),
(409,487,o),
(409,452,c),
(409,447,l),
(409,401,o),
(370,383,o),
(302,383,c),
(301,383,ls),
(230,383,o),
(192,400,o),
(192,447,c)
);
}
);
width = 603;
},
{
layerId = m002;
name = Regular;
shapes = (
{
closed = 1;
nodes = (
(71,383,o),
(114,351,o),
(184,328,c),
(114,307,o),
(53,267,o),
(53,162,c),
(53,71,o),
(102,-5,o),
(301,-5,c),
(471,-5,o),
(543,60,o),
(543,174,c),
(543,272,o),
(476,309,o),
(414,326,c),
(481,349,o),
(533,395,o),
(533,467,c),
(533,582,o),
(435,636,o),
(301,636,c),
(156,636,o),
(71,591,o),
(71,467,c)
);
},
{
closed = 1;
nodes = (
(75,283,o),
(165,314,o),
(299,314,c),
(429,314,o),
(520,278,o),
(520,174,c),
(520,88,o),
(476,22,o),
(299,22,c),
(114,22,o),
(75,98,o),
(75,161,c)
);
},
{
closed = 1;
nodes = (
(91,555,o),
(152,609,o),
(302,609,c),
(424,609,o),
(506,556,o),
(506,483,c),
(506,471,l),
(506,374,o),
(431,336,o),
(302,336,c),
(299,336,ls),
(162,336,o),
(91,382,o),
(91,470,c)
);
}
);
width = 596;
},
{
layerId = m003;
name = Regular;
shapes = (
{
closed = 1;
nodes = (
(71,442,o),
(79,391,o),
(137,344,c),
(75,300,o),
(60,256,o),
(60,180,c),
(60,59,o),
(142,-22,o),
(301,-22,c),
(451,-22,o),
(543,67,o),
(543,180,c),
(543,259,o),
(513,299,o),
(453,341,c),
(511,384,o),
(533,436,o),
(533,482,c),
(533,619,o),
(435,678,o),
(301,678,c),
(156,678,o),
(71,618,o),
(71,482,c)
);
},
{
closed = 1;
nodes = (
(108,282,o),
(157,300,o),
(298,300,c),
(435,300,o),
(485,280,o),
(485,231,c),
(485,187,o),
(459,158,o),
(298,158,c),
(131,158,o),
(108,187,o),
(108,225,c)
);
},
{
closed = 1;
nodes = (
(122,487,o),
(154,512,o),
(302,512,c),
(448,512,o),
(479,487,o),
(479,452,c),
(479,447,l),
(479,401,o),
(440,383,o),
(302,383,c),
(301,383,ls),
(160,383,o),
(122,400,o),
(122,447,c)
);
}
);
width = 603;
},
{
layerId = m004;
name = Regular;
shapes = (
{
closed = 1;
nodes = (
(71,383,o),
(114,351,o),
(184,328,c),
(114,307,o),
(53,267,o),
(53,162,c),
(53,71,o),
(102,-5,o),
(301,-5,c),
(471,-5,o),
(543,60,o),
(543,174,c),
(543,272,o),
(476,309,o),
(414,326,c),
(481,349,o),
(533,395,o),
(533,467,c),
(533,582,o),
(435,636,o),
(301,636,c),
(156,636,o),
(71,591,o),
(71,467,c)
);
},
{
closed = 1;
nodes = (
(75,283,o),
(165,314,o),
(299,314,c),
(429,314,o),
(520,278,o),
(520,174,c),
(520,88,o),
(476,22,o),
(299,22,c),
(114,22,o),
(75,98,o),
(75,161,c)
);
},
{
closed = 1;
nodes = (
(91,555,o),
(152,609,o),
(302,609,c),
(424,609,o),
(506,556,o),
(506,483,c),
(506,471,l),
(506,374,o),
(431,336,o),
(302,336,c),
(299,336,ls),
(162,336,o),
(91,382,o),
(91,470,c)
);
}
);
width = 596;
},
{
layerId = m005;
name = Regular;
shapes = (
{
closed = 1;
nodes = (
(31,442,o),
(50,393,o),
(88,346,c),
(46,312,o),
(20,256,o),
(20,180,c),
(20,59,o),
(102,-22,o),
(241,-22,c),
(371,-22,o),
(463,67,o),
(463,180,c),
(463,259,o),
(423,319,o),
(373,351,c),
(421,384,o),
(453,436,o),
(453,482,c),
(453,619,o),
(355,678,o),
(241,678,c),
(116,678,o),
(31,618,o),
(31,482,c)
);
},
{
closed = 1;
nodes = (
(138,282,o),
(187,300,o),
(238,300,c),
(285,300,o),
(335,280,o),
(335,231,c),
(335,187,o),
(309,158,o),
(238,158,c),
(161,158,o),
(138,187,o),
(138,225,c)
);
},
{
closed = 1;
nodes = (
(152,487,o),
(184,512,o),
(242,512,c),
(298,512,o),
(329,487,o),
(329,452,c),
(329,447,l),
(329,401,o),
(290,383,o),
(242,383,c),
(241,383,ls),
(190,383,o),
(152,400,o),
(152,447,c)
);
}
);
width = 500;
},
{
layerId = m006;
name = Regular;
shapes = (
{
closed = 1;
nodes = (
(41,383,o),
(84,351,o),
(154,328,c),
(84,307,o),
(23,267,o),
(23,162,c),
(23,71,o),
(72,-5,o),
(241,-5,c),
(381,-5,o),
(453,60,o),
(453,174,c),
(453,272,o),
(386,309,o),
(324,326,c),
(391,349,o),
(443,395,o),
(443,467,c),
(443,582,o),
(345,636,o),
(241,636,c),
(126,636,o),
(41,591,o),
(41,467,c)
);
},
{
closed = 1;
nodes = (
(45,283,o),
(135,314,o),
(239,314,c),
(339,314,o),
(430,278,o),
(430,174,c),
(430,88,o),
(386,22,o),
(239,22,c),
(84,22,o),
(45,98,o),
(45,161,c)
);
},
{
closed = 1;
nodes = (
(61,555,o),
(122,609,o),
(242,609,c),
(334,609,o),
(416,556,o),
(416,483,c),
(416,471,l),
(416,374,o),
(341,336,o),
(242,336,c),
(239,336,ls),
(132,336,o),
(61,382,o),
(61,470,c)
);
}
);
width = 500;
}
);
unicode = 56;
},
{
glyphname = question;
lastChange = "2024-02-24 08:57:23 +0000";
layers = (
{
layerId = "7EBE3D46-E53E-419E-A3EC-596DA2EA1E0D";
name = Regular;
shapes = (
{
closed = 1;
nodes = (
(326,455,o),
(309,453,o),
(219,369,cs),
(163,317,o),
(163,288,o),
(163,225,c),
(288,225,l),
(288,288,o),
(298,291,o),
(318,311,cs),
(428,426,o),
(458,448,o),
(458,530,cs),
(458,636,o),
(389,718,o),
(244,718,cs),
(198,718,o),
(92,709,o),
(40,673,c),
(45,624,o),
(55,569,o),
(78,513,c),
(119,544,o),
(187,564,o),
(243,564,cs),
(312,564,o),
(326,520,o),
(326,492,cs)
);
},
{
pos = (117,-609);
ref = _dot;
}
);
width = 538;
},
{
layerId = m002;
name = Regular;
shapes = (
{
closed = 1;
nodes = (
(411,461,o),
(398,416,o),
(308,323,cs),
(255,268,o),
(251,228,o),
(251,135,c),
(271,135,l),
(271,198,o),
(270,246,o),
(317,297,cs),
(424,413,o),
(439,444,o),
(439,496,cs),
(439,584,o),
(377,633,o),
(262,633,cs),
(161,633,o),
(105,605,o),
(63,579,c),
(68,570,o),
(77,556,o),
(78,549,c),
(119,580,o),
(205,603,o),
(261,603,cs),
(370,603,o),
(411,567,o),
(411,498,cs)
);
},
{
pos = (107,-579);
ref = _dot;
}
);
width = 538;
},
{
layerId = m003;
name = Regular;
shapes = (
{
closed = 1;
nodes = (
(366,457,o),
(359,453,o),
(269,369,cs),
(213,317,o),
(213,288,o),
(213,225,c),
(258,225,l),
(258,288,o),
(268,291,o),
(288,311,cs),
(398,426,o),
(478,478,o),
(478,560,cs),
(478,656,o),
(409,718,o),
(264,718,cs),
(218,718,o),
(112,709,o),
(60,673,c),
(65,624,o),
(75,569,o),
(98,513,c),
(139,544,o),
(207,564,o),
(263,564,cs),
(332,564,o),
(366,522,o),
(366,494,cs)
);
},
{
pos = (117,-609);
ref = _dot;
}
);
width = 538;
},
{
layerId = m004;
name = Regular;
shapes = (
{
closed = 1;
nodes = (
(411,461,o),
(398,416,o),
(308,323,cs),
(255,268,o),
(251,228,o),
(251,135,c),
(271,135,l),
(271,198,o),
(270,246,o),
(317,297,cs),
(424,413,o),
(439,444,o),
(439,496,cs),
(439,584,o),
(377,633,o),
(262,633,cs),
(161,633,o),
(105,605,o),
(63,579,c),
(68,570,o),
(77,556,o),
(78,549,c),
(119,580,o),
(205,603,o),
(261,603,cs),
(370,603,o),
(411,567,o),
(411,498,cs)
);
},
{
pos = (107,-579);
ref = _dot;
}
);
width = 538;
},
{
layerId = m005;
name = Regular;
shapes = (
{
closed = 1;
nodes = (
(326,455,o),
(309,453,o),
(219,369,cs),
(163,317,o),
(163,288,o),
(163,225,c),
(288,225,l),
(288,288,o),
(298,291,o),
(318,311,cs),
(428,426,o),
(458,448,o),
(458,530,cs),
(458,636,o),
(389,718,o),
(244,718,cs),
(198,718,o),
(92,709,o),
(40,673,c),
(45,624,o),
(55,569,o),
(78,513,c),
(119,544,o),
(187,564,o),
(243,564,cs),
(312,564,o),
(326,520,o),
(326,492,cs)
);
},
{
pos = (117,-609);
ref = _dot;
}
);
width = 500;
},
{
layerId = m006;
name = Regular;
shapes = (
{
closed = 1;
nodes = (
(411,461,o),
(398,416,o),
(308,323,cs),
(255,268,o),
(251,228,o),
(251,135,c),
(271,135,l),
(271,198,o),
(270,246,o),
(317,297,cs),
(424,413,o),
(439,444,o),
(439,496,cs),
(439,584,o),
(377,633,o),
(262,633,cs),
(161,633,o),
(105,605,o),
(63,579,c),
(68,570,o),
(77,556,o),
(78,549,c),
(119,580,o),
(205,603,o),
(261,603,cs),
(370,603,o),
(411,567,o),
(411,498,cs)
);
},
{
pos = (107,-579);
ref = _dot;
}
);
width = 500;
}
);
unicode = 63;
},
{
glyphname = bullet;
lastChange = "2024-02-24 08:57:23 +0000";
layers = (
{
layerId = "7EBE3D46-E53E-419E-A3EC-596DA2EA1E0D";
name = Regular;
shapes = (
{
closed = 1;
nodes = (
(301.072,170,o),
(375,239.379,o),
(375,326,c),
(375,414.621,o),
(301.072,484,o),
(218,484,c),
(135.992,484,o),
(60,414.814,o),
(60,326,c),
(60,239.186,o),
(135.992,170,o),
(218,170,c)
);
}
);
width = 435;
},
{
layerId = m002;
name = Regular;
shapes = (
{
closed = 1;
nodes = (
(274,233,o),
(318,274,o),
(318,327,c),
(318,380,o),
(274,422,o),
(223,422,c),
(174,422,o),
(128,380,o),
(128,327,c),
(128,274,o),
(174,233,o),
(223,233,c)
);
}
);
width = 435;
},
{
layerId = m003;
name = Regular;
shapes = (
{
closed = 1;
nodes = (
(301.072,170,o),
(375,239.379,o),
(375,326,c),
(375,414.621,o),
(301.072,484,o),
(218,484,c),
(135.992,484,o),
(60,414.814,o),
(60,326,c),
(60,239.186,o),
(135.992,170,o),
(218,170,c)
);
}
);
width = 435;
},
{
layerId = m004;
name = Regular;
shapes = (
{
closed = 1;
nodes = (
(274,233,o),
(318,274,o),
(318,327,c),
(318,380,o),
(274,422,o),
(223,422,c),
(174,422,o),
(128,380,o),
(128,327,c),
(128,274,o),
(174,233,o),
(223,233,c)
);
}
);
width = 435;
},
{
layerId = m005;
name = Regular;
shapes = (
{
closed = 1;
nodes = (
(301.072,170,o),
(375,239.379,o),
(375,326,c),
(375,414.621,o),
(301.072,484,o),
(218,484,c),
(135.992,484,o),
(60,414.814,o),
(60,326,c),
(60,239.186,o),
(135.992,170,o),
(218,170,c)
);
}
);
width = 500;
},
{
layerId = m006;
name = Regular;
shapes = (
{
closed = 1;
nodes = (
(274,233,o),
(318,274,o),
(318,327,c),
(318,380,o),
(274,422,o),
(223,422,c),
(174,422,o),
(128,380,o),
(128,327,c),
(128,274,o),
(174,233,o),
(223,233,c)
);
}
);
width = 500;
}
);
unicode = 8226;
},
{
glyphname = asterisk;
lastChange = "2024-02-24 08:57:23 +0000";
layers = (
{
layerId = "7EBE3D46-E53E-419E-A3EC-596DA2EA1E0D";
name = Regular;
shapes = (
{
closed = 1;
nodes = (
(296.449,532.289,l),
(368.549,572.794,l),
(322.076,654.523,l),
(245,607.371,l),
(245,703,l),
(168,703,l),
(168,605.728,l),
(91.382,654.983,l),
(52.036,573.011,l),
(122.455,533,l),
(50.804,492.289,l),
(94.791,412.462,l),
(173,458.842,l),
(173,363,l),
(250,363,l),
(250,458.763,l),
(327.838,412.061,l),
(365.753,494.486,l)
);
}
);
width = 419;
},
{
layerId = m002;
name = Regular;
shapes = (
{
closed = 1;
nodes = (
(239,532,l),
(332,584,l),
(314,617,l),
(220,559,l),
(220,674,l),
(193,674,l),
(193,557,l),
(101,616,l),
(87,586,l),
(179,533,l),
(87,481,l),
(104,450,l),
(198,506,l),
(198,392,l),
(225,392,l),
(225,506,l),
(317,451,l),
(331,481,l)
);
}
);
width = 419;
},
{
layerId = m003;
name = Regular;
shapes = (
{
closed = 1;
nodes = (
(296.449,532.289,l),
(368.549,572.794,l),
(322.076,654.523,l),
(245,607.371,l),
(245,703,l),
(168,703,l),
(168,605.728,l),
(91.382,654.983,l),
(52.036,573.011,l),
(122.455,533,l),
(50.804,492.289,l),
(94.791,412.462,l),
(173,458.842,l),
(173,363,l),
(250,363,l),
(250,458.763,l),
(327.838,412.061,l),
(365.753,494.486,l)
);
}
);
width = 419;
},
{
layerId = m004;
name = Regular;
shapes = (
{
closed = 1;
nodes = (
(239,532,l),
(332,584,l),
(314,617,l),
(220,559,l),
(220,674,l),
(193,674,l),
(193,557,l),
(101,616,l),
(87,586,l),
(179,533,l),
(87,481,l),
(104,450,l),
(198,506,l),
(198,392,l),
(225,392,l),
(225,506,l),
(317,451,l),
(331,481,l)
);
}
);
width = 419;
},
{
layerId = m005;
name = Regular;
shapes = (
{
closed = 1;
nodes = (
(296.449,532.289,l),
(368.549,572.794,l),
(322.076,654.523,l),
(245,607.371,l),
(245,703,l),
(168,703,l),
(168,605.728,l),
(91.382,654.983,l),
(52.036,573.011,l),
(122.455,533,l),
(50.804,492.289,l),
(94.791,412.462,l),
(173,458.842,l),
(173,363,l),
(250,363,l),
(250,458.763,l),
(327.838,412.061,l),
(365.753,494.486,l)
);
}
);
width = 500;
},
{
layerId = m006;
name = Regular;
shapes = (
{
closed = 1;
nodes = (
(239,532,l),
(332,584,l),
(314,617,l),
(220,559,l),
(220,674,l),
(193,674,l),
(193,557,l),
(101,616,l),
(87,586,l),
(179,533,l),
(87,481,l),
(104,450,l),
(198,506,l),
(198,392,l),
(225,392,l),
(225,506,l),
(317,451,l),
(331,481,l)
);
}
);
width = 500;
}
);
unicode = 42;
},
{
glyphname = numbersign;
lastChange = "2024-02-24 08:57:23 +0000";
layers = (
{
layerId = "7EBE3D46-E53E-419E-A3EC-596DA2EA1E0D";
name = Regular;
shapes = (
{
closed = 1;
nodes = (
(572,292,l),
(480,292,l),
(492,406,l),
(589,406,l),
(598,524,l),
(504,524,l),
(518,663,l),
(418,663,l),
(406,524,l),
(309,524,l),
(322,663,l),
(224,663,l),
(211,524,l),
(103,524,l),
(94,406,l),
(198,406,l),
(187,292,l),
(77,292,l),
(70,174,l),
(175,174,l),
(157,-3,l),
(256,-3,l),
(274,174,l),
(370,174,l),
(352,-3,l),
(450,-3,l),
(468,174,l),
(565,174,l)
);
},
{
closed = 1;
nodes = (
(285,292,l),
(297,406,l),
(393,406,l),
(381,292,l)
);
}
);
width = 704;
},
{
layerId = m002;
name = Regular;
shapes = (
{
closed = 1;
nodes = (
(547,231,l),
(446,231,l),
(468,437,l),
(571,437,l),
(574,479,l),
(473,479,l),
(487,626,l),
(446,626,l),
(432,479,l),
(264,479,l),
(279,626,l),
(239,626,l),
(226,479,l),
(111,479,l),
(107,437,l),
(219,437,l),
(199,231,l),
(84,231,l),
(81,191,l),
(195,191,l),
(177,2,l),
(217,2,l),
(236,191,l),
(401,191,l),
(383,2,l),
(424,2,l),
(443,191,l),
(545,191,l)
);
},
{
closed = 1;
nodes = (
(239,231,l),
(261,437,l),
(427,437,l),
(406,231,l)
);
}
);
width = 704;
},
{
layerId = m003;
name = Regular;
shapes = (
{
closed = 1;
nodes = (
(572,292,l),
(480,292,l),
(492,406,l),
(589,406,l),
(598,524,l),
(504,524,l),
(518,663,l),
(418,663,l),
(406,524,l),
(309,524,l),
(322,663,l),
(224,663,l),
(211,524,l),
(103,524,l),
(94,406,l),
(198,406,l),
(187,292,l),
(77,292,l),
(70,174,l),
(175,174,l),
(157,-3,l),
(256,-3,l),
(274,174,l),
(370,174,l),
(352,-3,l),
(450,-3,l),
(468,174,l),
(565,174,l)
);
},
{
closed = 1;
nodes = (
(285,292,l),
(297,406,l),
(393,406,l),
(381,292,l)
);
}
);
width = 704;
},
{
layerId = m004;
name = Regular;
shapes = (
{
closed = 1;
nodes = (
(547,231,l),
(446,231,l),
(468,437,l),
(571,437,l),
(574,479,l),
(473,479,l),
(487,626,l),
(446,626,l),
(432,479,l),
(264,479,l),
(279,626,l),
(239,626,l),
(226,479,l),
(111,479,l),
(107,437,l),
(219,437,l),
(199,231,l),
(84,231,l),
(81,191,l),
(195,191,l),
(177,2,l),
(217,2,l),
(236,191,l),
(401,191,l),
(383,2,l),
(424,2,l),
(443,191,l),
(545,191,l)
);
},
{
closed = 1;
nodes = (
(239,231,l),
(261,437,l),
(427,437,l),
(406,231,l)
);
}
);
width = 704;
},
{
layerId = m005;
name = Regular;
shapes = (
{
closed = 1;
nodes = (
(572,292,l),
(480,292,l),
(492,406,l),
(589,406,l),
(598,524,l),
(504,524,l),
(518,663,l),
(418,663,l),
(406,524,l),
(309,524,l),
(322,663,l),
(224,663,l),
(211,524,l),
(103,524,l),
(94,406,l),
(198,406,l),
(187,292,l),
(77,292,l),
(70,174,l),
(175,174,l),
(157,-3,l),
(256,-3,l),
(274,174,l),
(370,174,l),
(352,-3,l),
(450,-3,l),
(468,174,l),
(565,174,l)
);
},
{
closed = 1;
nodes = (
(285,292,l),
(297,406,l),
(393,406,l),
(381,292,l)
);
}
);
width = 500;
},
{
layerId = m006;
name = Regular;
shapes = (
{
closed = 1;
nodes = (
(547,231,l),
(446,231,l),
(468,437,l),
(571,437,l),
(574,479,l),
(473,479,l),
(487,626,l),
(446,626,l),
(432,479,l),
(264,479,l),
(279,626,l),
(239,626,l),
(226,479,l),
(111,479,l),
(107,437,l),
(219,437,l),
(199,231,l),
(84,231,l),
(81,191,l),
(195,191,l),
(177,2,l),
(217,2,l),
(236,191,l),
(401,191,l),
(383,2,l),
(424,2,l),
(443,191,l),
(545,191,l)
);
},
{
closed = 1;
nodes = (
(239,231,l),
(261,437,l),
(427,437,l),
(406,231,l)
);
}
);
width = 500;
}
);
unicode = 35;
},
{
glyphname = braceleft;
lastChange = "2024-02-24 08:57:23 +0000";
layers = (
{
layerId = "7EBE3D46-E53E-419E-A3EC-596DA2EA1E0D";
name = Regular;
shapes = (
{
closed = 1;
nodes = (
(449,-85,l),
(410,-85,ls),
(352,-85,o),
(324,-66,o),
(319,-24,c),
(319,153,ls),
(319,217,o),
(278,263,o),
(211,287,c),
(278,302,o),
(318,357,o),
(318,420,cs),
(318,542,l),
(323,582,o),
(351,601,o),
(410,601,cs),
(449,601,l),
(449,733,l),
(393,733,ls),
(255,733,o),
(197,652,o),
(197,533,cs),
(197,429,ls),
(197,374,o),
(181,351,o),
(91,351,cs),
(60,351,l),
(60,221,l),
(91,221,ls),
(177,221,o),
(197,193,o),
(197,141,cs),
(197,-17,ls),
(197,-148,o),
(268,-215,o),
(393,-215,cs),
(449,-215,l)
);
}
);
width = 509;
},
{
layerId = m002;
name = Regular;
shapes = (
{
closed = 1;
nodes = (
(420,-136,l),
(410,-136,ls),
(325,-136,o),
(277,-91,o),
(270,-28,c),
(270,153,ls),
(270,225,o),
(270,233,o),
(170,286,c),
(271,343,o),
(269,349,o),
(269,420,cs),
(269,546,l),
(276,604,o),
(321,652,o),
(410,652,cs),
(420,652,l),
(420,682,l),
(393,682,ls),
(263,682,o),
(226,630,o),
(226,533,cs),
(226,429,ls),
(226,347,o),
(202,300,o),
(91,300,cs),
(89,300,l),
(89,272,l),
(91,272,ls),
(205,272,o),
(226,209,o),
(226,141,cs),
(226,-17,ls),
(226,-119,o),
(273,-164,o),
(393,-164,cs),
(420,-164,l)
);
}
);
width = 509;
},
{
layerId = m003;
name = Regular;
shapes = (
{
closed = 1;
nodes = (
(399,-125,l),
(360,-125,ls),
(302,-125,o),
(274,-66,o),
(269,-24,c),
(269,153,ls),
(269,217,o),
(228,263,o),
(161,287,c),
(228,302,o),
(268,357,o),
(268,420,cs),
(268,542,l),
(273,582,o),
(301,621,o),
(360,621,cs),
(399,621,l),
(399,733,l),
(393,733,ls),
(255,733,o),
(197,652,o),
(197,533,cs),
(197,429,ls),
(197,374,o),
(181,351,o),
(91,351,cs),
(60,351,l),
(60,231,l),
(91,231,ls),
(177,231,o),
(197,193,o),
(197,141,cs),
(197,-17,ls),
(197,-148,o),
(268,-215,o),
(393,-215,cs),
(399,-215,l)
);
}
);
width = 509;
},
{
layerId = m004;
name = Regular;
shapes = (
{
closed = 1;
nodes = (
(420,-136,l),
(410,-136,ls),
(325,-136,o),
(277,-91,o),
(270,-28,c),
(270,153,ls),
(270,225,o),
(270,233,o),
(170,286,c),
(271,343,o),
(269,349,o),
(269,420,cs),
(269,546,l),
(276,604,o),
(321,652,o),
(410,652,cs),
(420,652,l),
(420,682,l),
(393,682,ls),
(263,682,o),
(226,630,o),
(226,533,cs),
(226,429,ls),
(226,347,o),
(202,300,o),
(91,300,cs),
(89,300,l),
(89,272,l),
(91,272,ls),
(205,272,o),
(226,209,o),
(226,141,cs),
(226,-17,ls),
(226,-119,o),
(273,-164,o),
(393,-164,cs),
(420,-164,l)
);
}
);
width = 509;
},
{
layerId = m005;
name = Regular;
shapes = (
{
closed = 1;
nodes = (
(449,-85,l),
(410,-85,ls),
(352,-85,o),
(324,-66,o),
(319,-24,c),
(319,153,ls),
(319,217,o),
(278,263,o),
(211,287,c),
(278,302,o),
(318,357,o),
(318,420,cs),
(318,542,l),
(323,582,o),
(351,601,o),
(410,601,cs),
(449,601,l),
(449,733,l),
(393,733,ls),
(255,733,o),
(197,652,o),
(197,533,cs),
(197,429,ls),
(197,374,o),
(181,351,o),
(91,351,cs),
(60,351,l),
(60,221,l),
(91,221,ls),
(177,221,o),
(197,193,o),
(197,141,cs),
(197,-17,ls),
(197,-148,o),
(268,-215,o),
(393,-215,cs),
(449,-215,l)
);
}
);
width = 500;
},
{
layerId = m006;
name = Regular;
shapes = (
{
closed = 1;
nodes = (
(420,-136,l),
(410,-136,ls),
(325,-136,o),
(277,-91,o),
(270,-28,c),
(270,153,ls),
(270,225,o),
(270,233,o),
(170,286,c),
(271,343,o),
(269,349,o),
(269,420,cs),
(269,546,l),
(276,604,o),
(321,652,o),
(410,652,cs),
(420,652,l),
(420,682,l),
(393,682,ls),
(263,682,o),
(226,630,o),
(226,533,cs),
(226,429,ls),
(226,347,o),
(202,300,o),
(91,300,cs),
(89,300,l),
(89,272,l),
(91,272,ls),
(205,272,o),
(226,209,o),
(226,141,cs),
(226,-17,ls),
(226,-119,o),
(273,-164,o),
(393,-164,cs),
(420,-164,l)
);
}
);
width = 500;
}
);
unicode = 123;
},
{
glyphname = guilsinglleft;
lastChange = "2024-02-24 08:57:23 +0000";
layers = (
{
layerId = "7EBE3D46-E53E-419E-A3EC-596DA2EA1E0D";
name = Regular;
shapes = (
{
closed = 1;
nodes = (
(100,363,l),
(80,350,o),
(60,342,o),
(60,321,cs),
(60,305,o),
(78,289,o),
(102,279,cs),
(337,177,ls),
(365,165,o),
(370,177,o),
(370,198,cs),
(370,258,ls),
(370,264,o),
(367,272,o),
(362,274,cs),
(256,321,l),
(362,368,ls),
(367,370,o),
(370,378,o),
(370,384,cs),
(370,454,ls),
(370,475,o),
(365,488,o),
(337,475,cs)
);
}
);
width = 430;
},
{
layerId = m002;
name = Regular;
shapes = (
{
closed = 1;
nodes = (
(80,309,ls),
(65,300,o),
(50,290,o),
(50,281,cs),
(50,271,o),
(66,262,o),
(80,253,cs),
(217,167,ls),
(245,150,o),
(250,157,o),
(250,178,cs),
(250,188,ls),
(250,194,o),
(248,201,o),
(242,204,cs),
(86,281,l),
(242,358,ls),
(248,361,o),
(250,368,o),
(250,374,cs),
(250,384,ls),
(250,405,o),
(245,412,o),
(217,395,cs)
);
}
);
width = 310;
},
{
layerId = m003;
name = Regular;
shapes = (
{
closed = 1;
nodes = (
(100,363,l),
(80,350,o),
(60,342,o),
(60,321,cs),
(60,305,o),
(78,289,o),
(102,279,cs),
(337,177,ls),
(365,165,o),
(370,177,o),
(370,198,cs),
(370,258,ls),
(370,264,o),
(367,273,o),
(362,274,cs),
(196,321,l),
(362,368,ls),
(367,369,o),
(370,378,o),
(370,384,cs),
(370,454,ls),
(370,475,o),
(365,488,o),
(337,475,cs)
);
}
);
width = 430;
},
{
layerId = m004;
name = Regular;
shapes = (
{
closed = 1;
nodes = (
(80,309,ls),
(65,300,o),
(50,290,o),
(50,281,cs),
(50,271,o),
(66,262,o),
(80,253,cs),
(217,167,ls),
(245,150,o),
(250,157,o),
(250,178,cs),
(250,188,ls),
(250,194,o),
(248,201,o),
(242,204,cs),
(86,281,l),
(242,358,ls),
(248,361,o),
(250,368,o),
(250,374,cs),
(250,384,ls),
(250,405,o),
(245,412,o),
(217,395,cs)
);
}
);
width = 310;
},
{
layerId = m005;
name = Regular;
shapes = (
{
closed = 1;
nodes = (
(100,363,l),
(80,350,o),
(60,342,o),
(60,321,cs),
(60,305,o),
(78,289,o),
(102,279,cs),
(337,177,ls),
(365,165,o),
(370,177,o),
(370,198,cs),
(370,258,ls),
(370,264,o),
(367,272,o),
(362,274,cs),
(256,321,l),
(362,368,ls),
(367,370,o),
(370,378,o),
(370,384,cs),
(370,454,ls),
(370,475,o),
(365,488,o),
(337,475,cs)
);
}
);
width = 500;
},
{
layerId = m006;
name = Regular;
shapes = (
{
closed = 1;
nodes = (
(80,309,ls),
(65,300,o),
(50,290,o),
(50,281,cs),
(50,271,o),
(66,262,o),
(80,253,cs),
(217,167,ls),
(245,150,o),
(250,157,o),
(250,178,cs),
(250,188,ls),
(250,194,o),
(248,201,o),
(242,204,cs),
(86,281,l),
(242,358,ls),
(248,361,o),
(250,368,o),
(250,374,cs),
(250,384,ls),
(250,405,o),
(245,412,o),
(217,395,cs)
);
}
);
width = 500;
}
);
unicode = 8249;
},
{
glyphname = at;
lastChange = "2024-02-24 08:57:31 +0000";
layers = (
{
layerId = "7EBE3D46-E53E-419E-A3EC-596DA2EA1E0D";
name = Regular;
shapes = (
{
closed = 1;
nodes = (
(500,150,ls),
(483,36,o),
(577,0,o),
(637,0,cs),
(728,0,o),
(808,118,o),
(814,290,cs),
(822,525,o),
(646,710,o),
(431,710,cs),
(228,710,o),
(69,570,o),
(43,268,cs),
(21,21,o),
(123,-203,o),
(371,-203,cs),
(415,-203,o),
(435,-197,o),
(503,-183,c),
(483,-148,o),
(465,-109,o),
(455,-62,c),
(427,-69,o),
(402,-74,o),
(370,-74,cs),
(171,-74,o),
(118,87,o),
(133,273,cs),
(149,467,o),
(274,584,o),
(430,584,cs),
(626,584,o),
(736,478,o),
(727,290,cs),
(722,187,o),
(671,137,o),
(639,137,cs),
(617,137,o),
(600,166,o),
(604,194,cs),
(643,501,l),
(551,501,l)
);
},
{
closed = 1;
nodes = (
(555,455,l),
(525,501,o),
(478,513,o),
(435,513,c),
(293,513,o),
(222,395,o),
(210,286,c),
(205,210,l),
(193,87,o),
(263,-8,o),
(368,-8,c),
(446,-8,o),
(515,51,o),
(539,104,c)
);
},
{
closed = 1;
nodes = (
(311,273,l),
(317,339,o),
(348,400,o),
(427,400,c),
(489,400,o),
(519,381,o),
(529,374,c),
(519,286,l),
(512,223,o),
(495,104,o),
(376,104,c),
(321,104,o),
(300,152,o),
(307,214,c)
);
}
);
width = 854;
},
{
layerId = m002;
name = Regular;
shapes = (
{
closed = 1;
nodes = (
(479,150,ls),
(463,36,o),
(486,0,o),
(546,0,cs),
(627,0,o),
(693,119,o),
(705,270,cs),
(720,465,o),
(595,630,o),
(380,630,cs),
(177,630,o),
(54,470,o),
(42,268,cs),
(27,20,o),
(122,-133,o),
(330,-133,cs),
(374,-133,o),
(404,-130,o),
(462,-113,c),
(457,-102,o),
(455,-91,o),
(454,-80,c),
(416,-96,o),
(361,-102,o),
(329,-102,cs),
(140,-102,o),
(57,62,o),
(73,267,cs),
(90,487,o),
(223,599,o),
(379,599,cs),
(575,599,o),
(685,458,o),
(676,270,cs),
(671,167,o),
(605,29,o),
(548,29,cs),
(526,29,o),
(494,34,o),
(503,98,cs),
(562,511,l),
(530,511,l)
);
},
{
closed = 1;
nodes = (
(534,445,l),
(504,491,o),
(447,513,o),
(404,513,c),
(249,513,o),
(213,436,o),
(199,327,cs),
(184,210,ls),
(168,87,o),
(242,-6,o),
(347,-6,c),
(425,-6,o),
(464,51,o),
(488,104,c)
);
},
{
closed = 1;
nodes = (
(222,324,ls),
(233,416,o),
(284,484,o),
(404,484,c),
(471,484,o),
(507,455,o),
(521,445,c),
(503,321,l),
(493,233,o),
(502,24,o),
(336,24,c),
(259,24,o),
(197,115,o),
(207,201,cs)
);
}
);
width = 746;
},
{
layerId = m003;
name = Regular;
shapes = (
{
closed = 1;
nodes = (
(500,150,ls),
(483,36,o),
(577,0,o),
(637,0,cs),
(728,0,o),
(808,118,o),
(814,290,cs),
(822,525,o),
(646,710,o),
(431,710,cs),
(228,710,o),
(69,570,o),
(43,268,cs),
(21,21,o),
(123,-203,o),
(371,-203,cs),
(415,-203,o),
(435,-197,o),
(503,-183,c),
(483,-148,o),
(465,-109,o),
(455,-62,c),
(427,-69,o),
(402,-74,o),
(370,-74,cs),
(171,-74,o),
(118,87,o),
(133,273,cs),
(149,467,o),
(274,584,o),
(430,584,cs),
(626,584,o),
(736,478,o),
(727,290,cs),
(722,187,o),
(671,137,o),
(639,137,cs),
(617,137,o),
(600,166,o),
(604,194,cs),
(643,501,l),
(551,501,l)
);
},
{
closed = 1;
nodes = (
(555,455,l),
(525,501,o),
(478,513,o),
(435,513,c),
(293,513,o),
(222,395,o),
(210,286,c),
(205,210,l),
(193,87,o),
(263,-8,o),
(368,-8,c),
(446,-8,o),
(515,51,o),
(539,104,c)
);
},
{
closed = 1;
nodes = (
(311,273,l),
(317,339,o),
(348,400,o),
(427,400,c),
(489,400,o),
(519,381,o),
(529,374,c),
(519,286,l),
(512,223,o),
(495,104,o),
(376,104,c),
(321,104,o),
(300,152,o),
(307,214,c)
);
}
);
width = 854;
},
{
layerId = m004;
name = Regular;
shapes = (
{
closed = 1;
nodes = (
(479,150,ls),
(463,36,o),
(486,0,o),
(546,0,cs),
(627,0,o),
(693,119,o),
(705,270,cs),
(720,465,o),
(595,630,o),
(380,630,cs),
(177,630,o),
(54,470,o),
(42,268,cs),
(27,20,o),
(122,-133,o),
(330,-133,cs),
(374,-133,o),
(404,-130,o),
(462,-113,c),
(457,-102,o),
(455,-91,o),
(454,-80,c),
(416,-96,o),
(361,-102,o),
(329,-102,cs),
(140,-102,o),
(57,62,o),
(73,267,cs),
(90,487,o),
(223,599,o),
(379,599,cs),
(575,599,o),
(685,458,o),
(676,270,cs),
(671,167,o),
(605,29,o),
(548,29,cs),
(526,29,o),
(494,34,o),
(503,98,cs),
(562,511,l),
(530,511,l)
);
},
{
closed = 1;
nodes = (
(534,445,l),
(504,491,o),
(447,513,o),
(404,513,c),
(249,513,o),
(213,436,o),
(199,327,cs),
(184,210,ls),
(168,87,o),
(242,-6,o),
(347,-6,c),
(425,-6,o),
(464,51,o),
(488,104,c)
);
},
{
closed = 1;
nodes = (
(222,324,ls),
(233,416,o),
(284,484,o),
(404,484,c),
(471,484,o),
(507,455,o),
(521,445,c),
(503,321,l),
(493,233,o),
(502,24,o),
(336,24,c),
(259,24,o),
(197,115,o),
(207,201,cs)
);
}
);
width = 746;
},
{
layerId = m005;
name = Regular;
shapes = (
{
closed = 1;
nodes = (
(500,150,ls),
(483,36,o),
(577,0,o),
(637,0,cs),
(728,0,o),
(808,118,o),
(814,290,cs),
(822,525,o),
(646,710,o),
(431,710,cs),
(228,710,o),
(69,570,o),
(43,268,cs),
(21,21,o),
(123,-203,o),
(371,-203,cs),
(415,-203,o),
(435,-197,o),
(503,-183,c),
(483,-148,o),
(465,-109,o),
(455,-62,c),
(427,-69,o),
(402,-74,o),
(370,-74,cs),
(171,-74,o),
(118,87,o),
(133,273,cs),
(149,467,o),
(274,584,o),
(430,584,cs),
(626,584,o),
(736,478,o),
(727,290,cs),
(722,187,o),
(671,137,o),
(639,137,cs),
(617,137,o),
(600,166,o),
(604,194,cs),
(643,501,l),
(551,501,l)
);
},
{
closed = 1;
nodes = (
(555,455,l),
(525,501,o),
(478,513,o),
(435,513,c),
(293,513,o),
(222,395,o),
(210,286,c),
(205,210,l),
(193,87,o),
(263,-8,o),
(368,-8,c),
(446,-8,o),
(515,51,o),
(539,104,c)
);
},
{
closed = 1;
nodes = (
(311,273,l),
(317,339,o),
(348,400,o),
(427,400,c),
(489,400,o),
(519,381,o),
(529,374,c),
(519,286,l),
(512,223,o),
(495,104,o),
(376,104,c),
(321,104,o),
(300,152,o),
(307,214,c)
);
}
);
width = 854;
},
{
layerId = m006;
name = Regular;
shapes = (
{
closed = 1;
nodes = (
(479,150,ls),
(463,36,o),
(486,0,o),
(546,0,cs),
(627,0,o),
(693,119,o),
(705,270,cs),
(720,465,o),
(595,630,o),
(380,630,cs),
(177,630,o),
(54,470,o),
(42,268,cs),
(27,20,o),
(122,-133,o),
(330,-133,cs),
(374,-133,o),
(404,-130,o),
(462,-113,c),
(457,-102,o),
(455,-91,o),
(454,-80,c),
(416,-96,o),
(361,-102,o),
(329,-102,cs),
(140,-102,o),
(57,62,o),
(73,267,cs),
(90,487,o),
(223,599,o),
(379,599,cs),
(575,599,o),
(685,458,o),
(676,270,cs),
(671,167,o),
(605,29,o),
(548,29,cs),
(526,29,o),
(494,34,o),
(503,98,cs),
(562,511,l),
(530,511,l)
);
},
{
closed = 1;
nodes = (
(534,445,l),
(504,491,o),
(447,513,o),
(404,513,c),
(249,513,o),
(213,436,o),
(199,327,cs),
(184,210,ls),
(168,87,o),
(242,-6,o),
(347,-6,c),
(425,-6,o),
(464,51,o),
(488,104,c)
);
},
{
closed = 1;
nodes = (
(222,324,ls),
(233,416,o),
(284,484,o),
(404,484,c),
(471,484,o),
(507,455,o),
(521,445,c),
(503,321,l),
(493,233,o),
(502,24,o),
(336,24,c),
(259,24,o),
(197,115,o),
(207,201,cs)
);
}
);
width = 500;
}
);
unicode = 64;
},
{
glyphname = ampersand;
lastChange = "2024-02-24 08:57:31 +0000";
layers = (
{
layerId = "7EBE3D46-E53E-419E-A3EC-596DA2EA1E0D";
name = Regular;
shapes = (
{
closed = 1;
nodes = (
(161,224,o),
(169,236,o),
(225,272,c),
(329,147,l),
(312,141,o),
(289,136,o),
(265,136,cs),
(190,136,o),
(161,163,o),
(161,197,cs)
);
},
{
closed = 1;
nodes = (
(363,450,o),
(251,397,c),
(195,453,o),
(199,530,o),
(279,530,cs),
(363,531,o)
);
},
{
closed = 1;
nodes = (
(495,23,o),
(543,34,o),
(595,33,c),
(491,147,l),
(517,202,o),
(539,287,o),
(523,335,c),
(428,367,l),
(434,303,o),
(430,287,o),
(413,243,c),
(336,332,l),
(386,363,o),
(440,411,o),
(440,511,cs),
(440,598,o),
(384,679,o),
(281,679,cs),
(178,679,o),
(112,599,o),
(112,492,cs),
(112,454,o),
(126,400,o),
(161,372,c),
(112,341,o),
(60,283,o),
(60,187,cs),
(60,73,o),
(132,-13,o),
(253,-13,cs),
(310,-13,o),
(352,0,o),
(412,46,c),
(450,1,l)
);
}
);
width = 679;
},
{
layerId = m002;
name = Regular;
shapes = (
{
closed = 1;
nodes = (
(88,232,o),
(184,283,o),
(240,319,c),
(453,90,l),
(415,54,o),
(318,28,o),
(264,28,cs),
(185,28,o),
(88,56,o),
(88,158,cs)
);
},
{
closed = 1;
nodes = (
(376,407,o),
(248,351,c),
(151,429,o),
(143,603,o),
(279,603,cs),
(391,603,o)
);
},
{
closed = 1;
nodes = (
(519,23,o),
(560,19,o),
(568,18,c),
(487,94,l),
(526,136,o),
(556,216,o),
(560,304,c),
(526,311,l),
(522,207,o),
(497,148,o),
(469,111,c),
(263,330,l),
(313,361,o),
(389,411,o),
(389,511,cs),
(389,578,o),
(354,637,o),
(281,637,cs),
(178,637,o),
(142,570,o),
(142,492,cs),
(142,434,o),
(186,371,o),
(221,340,c),
(172,309,o),
(60,253,o),
(60,157,cs),
(60,22,o),
(176,-4,o),
(265,-4,cs),
(322,-4,o),
(424,24,o),
(465,70,c),
(509,18,l)
);
}
);
width = 679;
},
{
layerId = m003;
name = Regular;
shapes = (
{
closed = 1;
nodes = (
(161,224,o),
(169,236,o),
(225,272,c),
(329,147,l),
(312,141,o),
(289,136,o),
(265,136,cs),
(190,136,o),
(161,163,o),
(161,197,cs)
);
},
{
closed = 1;
nodes = (
(363,450,o),
(251,397,c),
(195,453,o),
(199,530,o),
(279,530,cs),
(363,531,o)
);
},
{
closed = 1;
nodes = (
(495,23,o),
(543,34,o),
(595,33,c),
(491,147,l),
(517,202,o),
(539,287,o),
(523,335,c),
(428,367,l),
(434,303,o),
(430,287,o),
(413,243,c),
(336,332,l),
(386,363,o),
(440,411,o),
(440,511,cs),
(440,598,o),
(384,679,o),
(281,679,cs),
(178,679,o),
(112,599,o),
(112,492,cs),
(112,454,o),
(126,400,o),
(161,372,c),
(112,341,o),
(60,283,o),
(60,187,cs),
(60,73,o),
(132,-13,o),
(253,-13,cs),
(310,-13,o),
(352,0,o),
(412,46,c),
(450,1,l)
);
}
);
width = 679;
},
{
layerId = m004;
name = Regular;
shapes = (
{
closed = 1;
nodes = (
(88,232,o),
(184,283,o),
(240,319,c),
(453,90,l),
(415,54,o),
(318,28,o),
(264,28,cs),
(185,28,o),
(88,56,o),
(88,158,cs)
);
},
{
closed = 1;
nodes = (
(376,407,o),
(248,351,c),
(151,429,o),
(143,603,o),
(279,603,cs),
(391,603,o)
);
},
{
closed = 1;
nodes = (
(519,23,o),
(560,19,o),
(568,18,c),
(487,94,l),
(526,136,o),
(556,216,o),
(560,304,c),
(526,311,l),
(522,207,o),
(497,148,o),
(469,111,c),
(263,330,l),
(313,361,o),
(389,411,o),
(389,511,cs),
(389,578,o),
(354,637,o),
(281,637,cs),
(178,637,o),
(142,570,o),
(142,492,cs),
(142,434,o),
(186,371,o),
(221,340,c),
(172,309,o),
(60,253,o),
(60,157,cs),
(60,22,o),
(176,-4,o),
(265,-4,cs),
(322,-4,o),
(424,24,o),
(465,70,c),
(509,18,l)
);
}
);
width = 679;
},
{
layerId = m005;
name = Regular;
shapes = (
{
closed = 1;
nodes = (
(161,224,o),
(169,236,o),
(225,272,c),
(329,147,l),
(312,141,o),
(289,136,o),
(265,136,cs),
(190,136,o),
(161,163,o),
(161,197,cs)
);
},
{
closed = 1;
nodes = (
(363,450,o),
(251,397,c),
(195,453,o),
(199,530,o),
(279,530,cs),
(363,531,o)
);
},
{
closed = 1;
nodes = (
(495,23,o),
(543,34,o),
(595,33,c),
(491,147,l),
(517,202,o),
(539,287,o),
(523,335,c),
(428,367,l),
(434,303,o),
(430,287,o),
(413,243,c),
(336,332,l),
(386,363,o),
(440,411,o),
(440,511,cs),
(440,598,o),
(384,679,o),
(281,679,cs),
(178,679,o),
(112,599,o),
(112,492,cs),
(112,454,o),
(126,400,o),
(161,372,c),
(112,341,o),
(60,283,o),
(60,187,cs),
(60,73,o),
(132,-13,o),
(253,-13,cs),
(310,-13,o),
(352,0,o),
(412,46,c),
(450,1,l)
);
}
);
width = 679;
},
{
layerId = m006;
name = Regular;
shapes = (
{
closed = 1;
nodes = (
(88,232,o),
(184,283,o),
(240,319,c),
(453,90,l),
(415,54,o),
(318,28,o),
(264,28,cs),
(185,28,o),
(88,56,o),
(88,158,cs)
);
},
{
closed = 1;
nodes = (
(376,407,o),
(248,351,c),
(151,429,o),
(143,603,o),
(279,603,cs),
(391,603,o)
);
},
{
closed = 1;
nodes = (
(519,23,o),
(560,19,o),
(568,18,c),
(487,94,l),
(526,136,o),
(556,216,o),
(560,304,c),
(526,311,l),
(522,207,o),
(497,148,o),
(469,111,c),
(263,330,l),
(313,361,o),
(389,411,o),
(389,511,cs),
(389,578,o),
(354,637,o),
(281,637,cs),
(178,637,o),
(142,570,o),
(142,492,cs),
(142,434,o),
(186,371,o),
(221,340,c),
(172,309,o),
(60,253,o),
(60,157,cs),
(60,22,o),
(176,-4,o),
(265,-4,cs),
(322,-4,o),
(424,24,o),
(465,70,c),
(509,18,l)
);
}
);
width = 500;
}
);
unicode = 38;
},
{
glyphname = paragraph;
lastChange = "2024-02-24 08:57:31 +0000";
layers = (
{
layerId = "7EBE3D46-E53E-419E-A3EC-596DA2EA1E0D";
name = Regular;
shapes = (
{
closed = 1;
nodes = (
(141,279,o),
(80,367,o),
(80,469,c),
(80,573,o),
(157,659,o),
(343,659,c),
(511,659,l),
(511,1,l),
(439,1,l),
(439,627,l),
(335,627,l),
(335,276,l)
);
}
);
width = 591;
},
{
layerId = m002;
name = Regular;
shapes = (
{
closed = 1;
nodes = (
(141,248,o),
(80,336,o),
(80,438,c),
(80,542,o),
(157,628,o),
(343,628,c),
(465,628,l),
(465,0,l),
(439,0,l),
(439,600,l),
(335,600,l),
(335,245,l)
);
}
);
width = 591;
},
{
layerId = m003;
name = Regular;
shapes = (
{
closed = 1;
nodes = (
(141,279,o),
(80,367,o),
(80,469,c),
(80,573,o),
(157,659,o),
(343,659,c),
(511,659,l),
(511,1,l),
(439,1,l),
(439,627,l),
(335,627,l),
(335,276,l)
);
}
);
width = 591;
},
{
layerId = m004;
name = Regular;
shapes = (
{
closed = 1;
nodes = (
(141,248,o),
(80,336,o),
(80,438,c),
(80,542,o),
(157,628,o),
(343,628,c),
(465,628,l),
(465,0,l),
(439,0,l),
(439,600,l),
(335,600,l),
(335,245,l)
);
}
);
width = 591;
},
{
layerId = m005;
name = Regular;
shapes = (
{
closed = 1;
nodes = (
(141,279,o),
(80,367,o),
(80,469,c),
(80,573,o),
(157,659,o),
(343,659,c),
(511,659,l),
(511,1,l),
(439,1,l),
(439,627,l),
(335,627,l),
(335,276,l)
);
}
);
width = 591;
},
{
layerId = m006;
name = Regular;
shapes = (
{
closed = 1;
nodes = (
(141,248,o),
(80,336,o),
(80,438,c),
(80,542,o),
(157,628,o),
(343,628,c),
(465,628,l),
(465,0,l),
(439,0,l),
(439,600,l),
(335,600,l),
(335,245,l)
);
}
);
width = 500;
}
);
unicode = 182;
},
{
glyphname = section;
lastChange = "2024-02-24 08:57:31 +0000";
layers = (
{
layerId = "7EBE3D46-E53E-419E-A3EC-596DA2EA1E0D";
name = Regular;
shapes = (
{
closed = 1;
nodes = (
(500,86,o),
(528,144,o),
(528,197,c),
(528,286,o),
(458,338,o),
(385,375,cs),
(306,416,o),
(223,439,o),
(223,474,cs),
(223,514,o),
(287,520,o),
(329,520,cs),
(371,520,o),
(408,514,o),
(454,501,c),
(474,653,l),
(433,662,o),
(392,667,o),
(351,667,c),
(182,667,o),
(135,570,o),
(135,496,c),
(135,465,o),
(147,439,o),
(160,420,c),
(110,384,o),
(84,324,o),
(84,273,c),
(84,193,o),
(142,140,o),
(208,102,cs),
(294,52,o),
(392,25,o),
(392,-10,c),
(392,-44,o),
(358,-61,o),
(276,-61,c),
(216,-61,o),
(173,-52,o),
(120,-35,c),
(100,-182,l),
(152,-194,o),
(187,-201,o),
(260,-201,c),
(355,-201,o),
(479,-150,o),
(479,-25,c),
(479,4,o),
(467,31,o),
(454,50,c)
);
},
{
closed = 1;
nodes = (
(284,172,o),
(188,216,o),
(188,280,c),
(188,300,o),
(203,332,o),
(240,352,c),
(325,297,o),
(425,254,o),
(425,190,c),
(425,171,o),
(408,137,o),
(372,116,c)
);
}
);
width = 608;
},
{
layerId = m002;
name = Regular;
shapes = (
{
closed = 1;
nodes = (
(448,111,o),
(472,135,o),
(472,186,c),
(472,265,o),
(392,306,o),
(326,349,cs),
(251,398,o),
(160,446,o),
(160,501,cs),
(160,590,o),
(245,602,o),
(334,602,cs),
(376,602,o),
(413,596,o),
(459,583,c),
(462,618,l),
(421,627,o),
(380,632,o),
(339,632,c),
(170,632,o),
(135,570,o),
(135,496,c),
(133,452,o),
(162,419,o),
(192,400,c),
(142,364,o),
(125,338,o),
(125,297,c),
(125,219,o),
(179,183,o),
(242,145,cs),
(329,92,o),
(449,35,o),
(449,-33,cs),
(449,-135,o),
(343,-173,o),
(261,-173,c),
(201,-173,o),
(158,-165,o),
(105,-148,c),
(100,-182,l),
(152,-194,o),
(187,-201,o),
(260,-201,c),
(358,-205,o),
(482,-138,o),
(479,-35,cs),
(477,28,o),
(427,62,o),
(399,80,c)
);
},
{
closed = 1;
nodes = (
(272,163,o),
(153,217,o),
(153,295,c),
(153,320,o),
(171,359,o),
(217,384,c),
(322,316,o),
(446,263,o),
(446,184,c),
(446,160,o),
(424,119,o),
(380,93,c)
);
}
);
width = 608;
},
{
layerId = m003;
name = Regular;
shapes = (
{
closed = 1;
nodes = (
(500,86,o),
(528,144,o),
(528,197,c),
(528,286,o),
(458,338,o),
(385,375,cs),
(306,416,o),
(223,439,o),
(223,474,cs),
(223,514,o),
(287,520,o),
(329,520,cs),
(371,520,o),
(408,514,o),
(454,501,c),
(474,653,l),
(433,662,o),
(392,667,o),
(351,667,c),
(182,667,o),
(135,570,o),
(135,496,c),
(135,465,o),
(147,439,o),
(160,420,c),
(110,384,o),
(84,324,o),
(84,273,c),
(84,193,o),
(142,140,o),
(208,102,cs),
(294,52,o),
(392,25,o),
(392,-10,c),
(392,-44,o),
(358,-61,o),
(276,-61,c),
(216,-61,o),
(173,-52,o),
(120,-35,c),
(100,-182,l),
(152,-194,o),
(187,-201,o),
(260,-201,c),
(355,-201,o),
(479,-150,o),
(479,-25,c),
(479,4,o),
(467,31,o),
(454,50,c)
);
},
{
closed = 1;
nodes = (
(284,172,o),
(188,216,o),
(188,280,c),
(188,300,o),
(203,332,o),
(240,352,c),
(325,297,o),
(425,254,o),
(425,190,c),
(425,171,o),
(408,137,o),
(372,116,c)
);
}
);
width = 608;
},
{
layerId = m004;
name = Regular;
shapes = (
{
closed = 1;
nodes = (
(448,111,o),
(472,135,o),
(472,186,c),
(472,265,o),
(392,306,o),
(326,349,cs),
(251,398,o),
(160,446,o),
(160,501,cs),
(160,590,o),
(245,602,o),
(334,602,cs),
(376,602,o),
(413,596,o),
(459,583,c),
(462,618,l),
(421,627,o),
(380,632,o),
(339,632,c),
(170,632,o),
(135,570,o),
(135,496,c),
(133,452,o),
(162,419,o),
(192,400,c),
(142,364,o),
(125,338,o),
(125,297,c),
(125,219,o),
(179,183,o),
(242,145,cs),
(329,92,o),
(449,35,o),
(449,-33,cs),
(449,-135,o),
(343,-173,o),
(261,-173,c),
(201,-173,o),
(158,-165,o),
(105,-148,c),
(100,-182,l),
(152,-194,o),
(187,-201,o),
(260,-201,c),
(358,-205,o),
(482,-138,o),
(479,-35,cs),
(477,28,o),
(427,62,o),
(399,80,c)
);
},
{
closed = 1;
nodes = (
(272,163,o),
(153,217,o),
(153,295,c),
(153,320,o),
(171,359,o),
(217,384,c),
(322,316,o),
(446,263,o),
(446,184,c),
(446,160,o),
(424,119,o),
(380,93,c)
);
}
);
width = 608;
},
{
layerId = m005;
name = Regular;
shapes = (
{
closed = 1;
nodes = (
(500,86,o),
(528,144,o),
(528,197,c),
(528,286,o),
(458,338,o),
(385,375,cs),
(306,416,o),
(223,439,o),
(223,474,cs),
(223,514,o),
(287,520,o),
(329,520,cs),
(371,520,o),
(408,514,o),
(454,501,c),
(474,653,l),
(433,662,o),
(392,667,o),
(351,667,c),
(182,667,o),
(135,570,o),
(135,496,c),
(135,465,o),
(147,439,o),
(160,420,c),
(110,384,o),
(84,324,o),
(84,273,c),
(84,193,o),
(142,140,o),
(208,102,cs),
(294,52,o),
(392,25,o),
(392,-10,c),
(392,-44,o),
(358,-61,o),
(276,-61,c),
(216,-61,o),
(173,-52,o),
(120,-35,c),
(100,-182,l),
(152,-194,o),
(187,-201,o),
(260,-201,c),
(355,-201,o),
(479,-150,o),
(479,-25,c),
(479,4,o),
(467,31,o),
(454,50,c)
);
},
{
closed = 1;
nodes = (
(284,172,o),
(188,216,o),
(188,280,c),
(188,300,o),
(203,332,o),
(240,352,c),
(325,297,o),
(425,254,o),
(425,190,c),
(425,171,o),
(408,137,o),
(372,116,c)
);
}
);
width = 608;
},
{
layerId = m006;
name = Regular;
shapes = (
{
closed = 1;
nodes = (
(448,111,o),
(472,135,o),
(472,186,c),
(472,265,o),
(392,306,o),
(326,349,cs),
(251,398,o),
(160,446,o),
(160,501,cs),
(160,590,o),
(245,602,o),
(334,602,cs),
(376,602,o),
(413,596,o),
(459,583,c),
(462,618,l),
(421,627,o),
(380,632,o),
(339,632,c),
(170,632,o),
(135,570,o),
(135,496,c),
(133,452,o),
(162,419,o),
(192,400,c),
(142,364,o),
(125,338,o),
(125,297,c),
(125,219,o),
(179,183,o),
(242,145,cs),
(329,92,o),
(449,35,o),
(449,-33,cs),
(449,-135,o),
(343,-173,o),
(261,-173,c),
(201,-173,o),
(158,-165,o),
(105,-148,c),
(100,-182,l),
(152,-194,o),
(187,-201,o),
(260,-201,c),
(358,-205,o),
(482,-138,o),
(479,-35,cs),
(477,28,o),
(427,62,o),
(399,80,c)
);
},
{
closed = 1;
nodes = (
(272,163,o),
(153,217,o),
(153,295,c),
(153,320,o),
(171,359,o),
(217,384,c),
(322,316,o),
(446,263,o),
(446,184,c),
(446,160,o),
(424,119,o),
(380,93,c)
);
}
);
width = 500;
}
);
unicode = 167;
},
{
glyphname = degree;
lastChange = "2024-02-24 08:57:31 +0000";
layers = (
{
layerId = "7EBE3D46-E53E-419E-A3EC-596DA2EA1E0D";
name = Regular;
shapes = (
{
closed = 1;
nodes = (
(294.213,407,o),
(367,479.787,o),
(367,571,c),
(367,661.213,o),
(294.213,734,o),
(214,734,c),
(132.787,734,o),
(60,661.213,o),
(60,571,c),
(60,479.787,o),
(132.787,407,o),
(214,407,c)
);
},
{
closed = 1;
nodes = (
(174.371,513,o),
(147,541.139,o),
(147,572,c),
(147,600.854,o),
(174.371,629,o),
(215,629,c),
(254.696,629,o),
(283,600.665,o),
(283,572,c),
(283,541.328,o),
(254.696,513,o),
(215,513,c)
);
}
);
width = 427;
},
{
layerId = m002;
name = Regular;
shapes = (
{
closed = 1;
nodes = (
(166,480,o),
(199,513,o),
(199,555,c),
(199,596,o),
(166,629,o),
(130,629,c),
(93,629,o),
(60,596,o),
(60,555,c),
(60,513,o),
(93,480,o),
(130,480,c)
);
},
{
closed = 1;
nodes = (
(109,515,o),
(94,532,o),
(94,553,c),
(94,574,o),
(109,590,o),
(130,590,c),
(152,590,o),
(166,574,o),
(166,553,c),
(166,532,o),
(152,515,o),
(130,515,c)
);
}
);
width = 259;
},
{
layerId = m003;
name = Regular;
shapes = (
{
closed = 1;
nodes = (
(294.213,407,o),
(367,479.787,o),
(367,571,c),
(367,661.213,o),
(294.213,734,o),
(214,734,c),
(132.787,734,o),
(60,661.213,o),
(60,571,c),
(60,479.787,o),
(132.787,407,o),
(214,407,c)
);
},
{
closed = 1;
nodes = (
(174.371,513,o),
(147,541.139,o),
(147,572,c),
(147,600.854,o),
(174.371,629,o),
(215,629,c),
(254.696,629,o),
(283,600.665,o),
(283,572,c),
(283,541.328,o),
(254.696,513,o),
(215,513,c)
);
}
);
width = 427;
},
{
layerId = m004;
name = Regular;
shapes = (
{
closed = 1;
nodes = (
(166,480,o),
(199,513,o),
(199,555,c),
(199,596,o),
(166,629,o),
(130,629,c),
(93,629,o),
(60,596,o),
(60,555,c),
(60,513,o),
(93,480,o),
(130,480,c)
);
},
{
closed = 1;
nodes = (
(109,515,o),
(94,532,o),
(94,553,c),
(94,574,o),
(109,590,o),
(130,590,c),
(152,590,o),
(166,574,o),
(166,553,c),
(166,532,o),
(152,515,o),
(130,515,c)
);
}
);
width = 259;
},
{
layerId = m005;
name = Regular;
shapes = (
{
closed = 1;
nodes = (
(294.213,407,o),
(367,479.787,o),
(367,571,c),
(367,661.213,o),
(294.213,734,o),
(214,734,c),
(132.787,734,o),
(60,661.213,o),
(60,571,c),
(60,479.787,o),
(132.787,407,o),
(214,407,c)
);
},
{
closed = 1;
nodes = (
(174.371,513,o),
(147,541.139,o),
(147,572,c),
(147,600.854,o),
(174.371,629,o),
(215,629,c),
(254.696,629,o),
(283,600.665,o),
(283,572,c),
(283,541.328,o),
(254.696,513,o),
(215,513,c)
);
}
);
width = 427;
},
{
layerId = m006;
name = Regular;
shapes = (
{
closed = 1;
nodes = (
(166,480,o),
(199,513,o),
(199,555,c),
(199,596,o),
(166,629,o),
(130,629,c),
(93,629,o),
(60,596,o),
(60,555,c),
(60,513,o),
(93,480,o),
(130,480,c)
);
},
{
closed = 1;
nodes = (
(109,515,o),
(94,532,o),
(94,553,c),
(94,574,o),
(109,590,o),
(130,590,c),
(152,590,o),
(166,574,o),
(166,553,c),
(166,532,o),
(152,515,o),
(130,515,c)
);
}
);
width = 500;
}
);
unicode = 176;
},
{
glyphname = currency;
lastChange = "2024-02-24 08:57:31 +0000";
layers = (
{
layerId = "7EBE3D46-E53E-419E-A3EC-596DA2EA1E0D";
name = Regular;
shapes = (
{
closed = 1;
nodes = (
(139,444,l),
(70,376,l),
(163,284,l),
(233,351,l)
);
},
{
pos = (67,-71);
ref = degree;
},
{
closed = 1;
nodes = (
(165,719,l),
(72,627,l),
(150,548,l),
(243,638,l)
);
},
{
closed = 1;
nodes = (
(401,702,l),
(332,634,l),
(425,542,l),
(495,609,l)
);
},
{
closed = 1;
nodes = (
(422,457,l),
(329,365,l),
(407,286,l),
(500,376,l)
);
}
);
width = 565;
},
{
layerId = m002;
name = Regular;
shapes = (
{
closed = 1;
nodes = (
(220,468,l),
(151,400,l),
(172,377,l),
(242,444,l)
);
},
{
pos = (151,-51);
ref = degree;
},
{
closed = 1;
nodes = (
(164,643,l),
(144,622,l),
(222,543,l),
(242,562,l)
);
},
{
closed = 1;
nodes = (
(387,627,l),
(318,559,l),
(339,536,l),
(409,603,l)
);
},
{
closed = 1;
nodes = (
(330,470,l),
(310,449,l),
(388,370,l),
(408,389,l)
);
}
);
width = 565;
},
{
layerId = m003;
name = Regular;
shapes = (
{
closed = 1;
nodes = (
(139,444,l),
(70,376,l),
(163,284,l),
(233,351,l)
);
},
{
pos = (67,-71);
ref = degree;
},
{
closed = 1;
nodes = (
(165,719,l),
(72,627,l),
(150,548,l),
(243,638,l)
);
},
{
closed = 1;
nodes = (
(401,702,l),
(332,634,l),
(425,542,l),
(495,609,l)
);
},
{
closed = 1;
nodes = (
(422,457,l),
(329,365,l),
(407,286,l),
(500,376,l)
);
}
);
width = 565;
},
{
layerId = m004;
name = Regular;
shapes = (
{
closed = 1;
nodes = (
(220,468,l),
(151,400,l),
(172,377,l),
(242,444,l)
);
},
{
pos = (151,-51);
ref = degree;
},
{
closed = 1;
nodes = (
(164,643,l),
(144,622,l),
(222,543,l),
(242,562,l)
);
},
{
closed = 1;
nodes = (
(387,627,l),
(318,559,l),
(339,536,l),
(409,603,l)
);
},
{
closed = 1;
nodes = (
(330,470,l),
(310,449,l),
(388,370,l),
(408,389,l)
);
}
);
width = 565;
},
{
layerId = m005;
name = Regular;
shapes = (
{
closed = 1;
nodes = (
(139,444,l),
(70,376,l),
(163,284,l),
(233,351,l)
);
},
{
pos = (67,-71);
ref = degree;
},
{
closed = 1;
nodes = (
(165,719,l),
(72,627,l),
(150,548,l),
(243,638,l)
);
},
{
closed = 1;
nodes = (
(401,702,l),
(332,634,l),
(425,542,l),
(495,609,l)
);
},
{
closed = 1;
nodes = (
(422,457,l),
(329,365,l),
(407,286,l),
(500,376,l)
);
}
);
width = 565;
},
{
layerId = m006;
name = Regular;
shapes = (
{
closed = 1;
nodes = (
(220,468,l),
(151,400,l),
(172,377,l),
(242,444,l)
);
},
{
pos = (151,-51);
ref = degree;
},
{
closed = 1;
nodes = (
(164,643,l),
(144,622,l),
(222,543,l),
(242,562,l)
);
},
{
closed = 1;
nodes = (
(387,627,l),
(318,559,l),
(339,536,l),
(409,603,l)
);
},
{
closed = 1;
nodes = (
(330,470,l),
(310,449,l),
(388,370,l),
(408,389,l)
);
}
);
width = 500;
}
);
unicode = 164;
},
